<svg width="12" height="12" viewBox="0 0 12 12" fill="none" xmlns="http://www.w3.org/2000/svg">
<path d="M9.90262 6.47543H6.3261V11H9.90262V6.47543Z" fill="black"/>
<path d="M5.6739 6.47543H2.09738V11H5.6739V6.47543Z" fill="black"/>
<path d="M8.78831 2.84437C8.88505 2.66713 8.94011 2.46402 8.94011 2.24826C8.94013 1.55996 8.38015 1 7.69187 1C7.18279 1 6.66189 1.26305 6.26281 1.7217C6.16404 1.8352 6.07607 1.95717 6 2.0842C5.92392 1.95717 5.83595 1.8352 5.73718 1.7217C5.3381 1.26305 4.81722 1 4.30812 1C3.61984 1 3.05986 1.55998 3.05986 2.24826C3.05986 2.464 3.1149 2.66713 3.21166 2.84437H1.51172V5.82326H5.6739V2.84437H6.32607V5.82326H10.4883V2.84437H8.78831ZM4.30812 2.84437C3.97945 2.84437 3.71203 2.57695 3.71203 2.24826C3.71203 1.91957 3.97945 1.65217 4.30812 1.65217C4.8999 1.65217 5.46254 2.2575 5.62627 2.84436L4.30812 2.84437ZM7.69187 2.84437H6.37373C6.53746 2.2575 7.10009 1.65219 7.69187 1.65219C8.02054 1.65219 8.28796 1.91961 8.28796 2.24828C8.28794 2.57697 8.02054 2.84437 7.69187 2.84437Z" fill="black"/>
</svg>
