<svg width="24" height="24" viewBox="0 0 24 24" fill="none" xmlns="http://www.w3.org/2000/svg">
<path d="M15.5846 4H8.41537C5.98073 4 4 5.98083 4 8.41546V15.5847C4 18.0194 5.98073 20.0001 8.41537 20.0001H15.5846C18.0194 20.0001 20.0001 18.0193 20.0001 15.5847V8.41546C20.0002 5.98083 18.0194 4 15.5846 4ZM18.5806 15.5847C18.5806 17.2366 17.2366 18.5805 15.5847 18.5805H8.41537C6.76351 18.5806 5.41961 17.2366 5.41961 15.5847V8.41546C5.41961 6.7636 6.76351 5.41961 8.41537 5.41961H15.5846C17.2365 5.41961 18.5805 6.7636 18.5805 8.41546V15.5847H18.5806Z" fill="black"/>
<path d="M12.0001 7.87732C9.7267 7.87732 7.87723 9.72679 7.87723 12.0002C7.87723 14.2734 9.7267 16.1228 12.0001 16.1228C14.2734 16.1228 16.1229 14.2734 16.1229 12.0002C16.1229 9.72679 14.2734 7.87732 12.0001 7.87732ZM12.0001 14.7031C10.5096 14.7031 9.29684 13.4906 9.29684 12.0001C9.29684 10.5095 10.5095 9.29684 12.0001 9.29684C13.4907 9.29684 14.7033 10.5095 14.7033 12.0001C14.7033 13.4906 13.4906 14.7031 12.0001 14.7031Z" fill="black"/>
<path d="M16.2957 6.67358C16.0222 6.67358 15.7535 6.78431 15.5604 6.97833C15.3663 7.17139 15.2547 7.44017 15.2547 7.71463C15.2547 7.98824 15.3664 8.25692 15.5604 8.45094C15.7534 8.644 16.0222 8.75568 16.2957 8.75568C16.5702 8.75568 16.838 8.644 17.032 8.45094C17.226 8.25692 17.3368 7.98814 17.3368 7.71463C17.3368 7.44017 17.226 7.17139 17.032 6.97833C16.839 6.78431 16.5702 6.67358 16.2957 6.67358Z" fill="black"/>
</svg>
