<svg width="24" height="24" viewBox="0 0 24 24" fill="none" xmlns="http://www.w3.org/2000/svg">
<path d="M7.65808 8.80479C7.81149 8.65127 8.08314 8.65127 8.23655 8.80479L16.0177 16.5925C16.1108 16.6856 16.1531 16.8176 16.1324 16.9475C16.1112 17.0775 16.0289 17.1894 15.9114 17.2482L15.2726 17.5681V18.6438L17.2298 19.2038L19.2053 17.2266L18.6458 15.2678H17.5709L17.2514 15.9071C17.1926 16.0247 17.0808 16.1071 16.9509 16.1282C16.929 16.1318 16.907 16.1334 16.8854 16.1334C16.778 16.1334 16.6733 16.091 16.5962 16.0134L8.81505 8.22579C8.73835 8.14901 8.6952 8.04507 8.6952 7.93631C8.6952 7.82754 8.73835 7.7236 8.81505 7.64682L10.3196 6.141C10.3963 6.06422 10.5001 6.02103 10.6088 6.02103H10.6096C10.7187 6.02142 10.823 6.06502 10.8993 6.14219L19.2449 14.5701C19.2489 14.5742 19.2487 14.5804 19.2526 14.5846C19.2946 14.63 19.3296 14.6824 19.348 14.746L20.0583 17.2334L20.9843 20.4782C21.0251 20.6209 20.9851 20.7749 20.88 20.88C20.8021 20.958 20.6978 21 20.5908 21C20.5532 21 20.5157 20.9948 20.4785 20.9844L17.2366 20.0576L14.7513 19.3466C14.7438 19.3445 14.7386 19.3388 14.7313 19.3363C14.7055 19.3274 14.6829 19.3129 14.6592 19.2988C14.6358 19.285 14.6125 19.2727 14.5928 19.2549C14.5875 19.2502 14.5806 19.2485 14.5755 19.2435L6.15475 10.8908C6.07766 10.8144 6.03409 10.7101 6.03371 10.6009C6.03332 10.4921 6.07647 10.3878 6.15356 10.3106L7.65808 8.80479Z" fill="black"/>
<path d="M3.47932 5.92113L5.93386 3.46451C6.55229 2.84555 7.62815 2.84436 8.24899 3.4657L9.74753 4.97912C9.90612 5.13947 9.90574 5.39735 9.74634 5.5569L5.56994 9.73683C5.49005 9.8168 5.38535 9.8568 5.28069 9.8568C5.17641 9.8568 5.07255 9.81722 4.99266 9.73806L3.47936 8.23707C3.17012 7.9276 2.99996 7.51654 2.99996 7.07914C2.99996 6.64173 3.17009 6.23059 3.47932 5.92113Z" fill="black"/>
</svg>
