<svg width="24" height="24" viewBox="0 0 24 24" fill="none" xmlns="http://www.w3.org/2000/svg">
<g clip-path="url(#clip0)">
<path d="M7.99091 16.1486C7.33842 15.5611 6.86772 14.8566 6.55933 14.1003C5.74129 12.0941 6.12434 9.70816 7.72148 8.06233L9.19525 9.53611C9.27641 9.61726 9.42249 9.55883 9.44197 9.43872L10.247 4.17013C10.26 4.08248 10.1853 4.00782 10.0977 4.0208L4.82586 4.82586C4.70575 4.84534 4.64732 4.99142 4.72847 5.07257L6.2055 6.5496C3.7676 9.04269 3.35208 12.7823 4.95246 15.7039C5.4329 16.5836 6.09837 17.3887 6.94563 18.0639C8.38695 19.2098 10.1594 19.7584 11.9188 19.7227L12.2499 17.5575C10.734 17.6873 9.17578 17.2199 7.99091 16.1486Z" fill="white"/>
<path d="M17.7945 17.4504C20.2324 14.9573 20.6479 11.2176 19.0475 8.29606C18.5671 7.41634 17.9016 6.61128 17.0543 5.93607C15.613 4.79016 13.8406 4.24155 12.0812 4.27726L11.75 6.44248C13.2628 6.31263 14.8242 6.78008 16.0091 7.85133C16.6616 8.43889 17.1323 9.14332 17.4406 9.89969C18.2587 11.9058 17.8756 14.2918 16.2785 15.9376L14.8047 14.4639C14.7236 14.3827 14.5775 14.4411 14.558 14.5612L13.753 19.8298C13.74 19.9175 13.8146 19.9921 13.9023 19.9792L19.1741 19.1741C19.2942 19.1546 19.3494 19.0085 19.2715 18.9274L17.7945 17.4504Z" fill="white"/>
</g>
<defs>
<clipPath id="clip0">
<rect width="16" height="16" fill="white" transform="translate(4 4)"/>
</clipPath>
</defs>
</svg>
