<svg width="16" height="16" viewBox="0 0 16 16" fill="none" xmlns="http://www.w3.org/2000/svg">
<g clip-path="url(#clip0_1509_8540)">
<path d="M14.1987 10.9377C14.1749 10.8781 14.139 10.8254 14.0949 10.7814V10.7804L11.5355 8.22095L15.8628 3.89381C16.0457 3.71083 16.0457 3.41395 15.8628 3.23085L12.7691 0.137345C12.586 -0.0457606 12.2893 -0.0457606 12.1062 0.137345L7.77904 4.46449L4.00097 0.686416C3.08715 -0.227401 1.60034 -0.227401 0.686522 0.686416C-0.227417 1.60023 -0.227417 3.08717 0.686522 4.00099L1.57031 4.8849L4.46447 7.77894L0.137329 12.1062C-0.0457763 12.2892 -0.0457763 12.5861 0.137329 12.769L3.23083 15.8627C3.32238 15.9542 3.44238 16 3.56237 16C3.68224 16 3.80224 15.9542 3.89379 15.8627L8.22093 11.5355L10.7804 14.0948H10.7812C10.8254 14.1389 10.878 14.1748 10.9377 14.1986L15.357 15.9664C15.4135 15.989 15.4725 15.9999 15.5311 15.9999C15.6532 15.9999 15.773 15.9523 15.8626 15.8625C15.9952 15.73 16.036 15.5311 15.9664 15.3571L14.1987 10.9377ZM13.1006 11.1118L12.4376 11.7748L10.2097 9.54676L10.8727 8.88392L13.1006 11.1118ZM4.55346 2.56471L7.11608 5.12733L6.45324 5.79029L3.89062 3.22767L4.55346 2.56471ZM1.34936 3.33815C0.801146 2.78981 0.801146 1.8976 1.34936 1.34938C1.62353 1.07521 1.98364 0.938125 2.34375 0.938125C2.70385 0.938125 3.06396 1.07521 3.33813 1.34938L3.89062 1.90175L1.90185 3.89051L1.34936 3.33815ZM2.56469 4.55348L3.22766 3.89051L5.79027 6.45313L5.12731 7.1161L2.56469 4.55348ZM7.6975 8.74439C7.51451 8.56141 7.21764 8.56141 7.03466 8.74439C6.85155 8.9275 6.85155 9.22425 7.03466 9.40735L8.02892 10.4017L6.98204 11.4486L5.98766 10.4542C5.80468 10.2712 5.5078 10.2712 5.3247 10.4542C5.14171 10.6373 5.14171 10.9341 5.3247 11.1172L6.31908 12.1116L5.27221 13.1584L4.71972 12.6061C4.53674 12.423 4.23986 12.423 4.05688 12.6061C3.87377 12.7891 3.87377 13.0859 4.05688 13.2689L4.60924 13.8214L3.56237 14.8683L1.13171 12.4376L8.11046 5.45887C8.11058 5.45875 8.11058 5.45875 8.11058 5.45875L12.4376 1.13161L14.8684 3.56239L13.8214 4.60926L13.269 4.0569C13.0859 3.87379 12.7892 3.87379 12.6061 4.0569C12.4231 4.23988 12.4231 4.53675 12.6061 4.71974L13.1585 5.27223L12.1116 6.3191L11.1172 5.32472C10.9342 5.14173 10.6374 5.14173 10.4543 5.32472C10.2712 5.50782 10.2712 5.80457 10.4543 5.98768L11.4487 6.98206L10.4017 8.02894L9.84935 7.47657C9.66624 7.29346 9.36949 7.29346 9.18638 7.47657C9.0034 7.65955 9.0034 7.95631 9.18638 8.13941L9.73887 8.6919L8.69188 9.73877L7.6975 8.74439ZM11.1118 13.1006L8.8839 10.8726L9.54674 10.2097L11.7748 12.4376L11.1118 13.1006ZM11.9459 13.5923L13.5923 11.9459L14.6898 14.6898L11.9459 13.5923Z" fill="white"/>
</g>
<defs>
<clipPath id="clip0_1509_8540">
<rect width="16" height="16" fill="white"/>
</clipPath>
</defs>
</svg>
