<svg width="30" height="30" viewBox="0 0 30 30" fill="none" xmlns="http://www.w3.org/2000/svg">
<path d="M15 3C8.38321 3 3 8.38321 3 15C3 21.6168 8.38321 27 15 27C21.6168 27 27 21.6168 27 15C27 8.38321 21.6169 3 15 3ZM15 25.7027C12.0602 25.7027 9.39373 24.5111 7.45749 22.5859C6.68429 21.8171 6.02793 20.931 5.51687 19.9572C4.73856 18.4743 4.29731 16.7878 4.29731 15C4.29731 9.09851 9.09851 4.29731 15 4.29731C17.7992 4.29731 20.3504 5.37798 22.2595 7.14346C23.2494 8.05872 24.0668 9.15787 24.6562 10.3864C25.3267 11.7842 25.7027 13.349 25.7027 15C25.7027 20.9015 20.9015 25.7027 15 25.7027ZM10.4703 25.4106C10.4897 25.4191 10.5092 25.4278 10.5288 25.4362C10.5092 25.4277 10.4897 25.4191 10.4703 25.4106Z" fill="black"/>
<path d="M10.9863 13.7027C11.7028 13.7027 12.2837 13.1219 12.2837 12.4054C12.2837 11.6889 11.7028 11.1081 10.9863 11.1081C10.2699 11.1081 9.68903 11.6889 9.68903 12.4054C9.68903 13.1219 10.2699 13.7027 10.9863 13.7027Z" fill="black"/>
<path d="M19.0135 13.7027C19.73 13.7027 20.3108 13.1219 20.3108 12.4054C20.3108 11.6889 19.73 11.1081 19.0135 11.1081C18.297 11.1081 17.7162 11.6889 17.7162 12.4054C17.7162 13.1219 18.297 13.7027 19.0135 13.7027Z" fill="black"/>
<path d="M22.1002 9.16491L17.9918 7.3856L17.4763 8.57602L21.5847 10.3553L22.1002 9.16491Z" fill="black"/>
<path d="M8.41491 10.3558L12.5233 8.57654L12.0077 7.38612L7.89935 9.16539L8.41491 10.3558Z" fill="black"/>
<path d="M20.3716 19.4421C20.4712 19.6185 20.5628 19.8019 20.6443 19.9873L21.832 19.4654C21.7332 19.2407 21.6221 19.0184 21.5016 18.8048C20.1214 16.357 17.4145 14.8689 14.6085 15.0147C11.8206 15.1589 9.29247 16.9059 8.16769 19.4654L9.35539 19.9874C10.2847 17.8728 12.3729 16.4295 14.6754 16.3103C16.9932 16.19 19.2311 17.4194 20.3716 19.4421Z" fill="black"/>
</svg>
