<svg width="24" height="24" viewBox="0 0 24 24" fill="none" xmlns="http://www.w3.org/2000/svg">
<path d="M15.6363 15.6364H8.36362V17.0909H15.6363V15.6364Z" fill="black"/>
<path d="M8.36362 18.5455V19.2727V20H15.6364V19.2727V18.5455H8.36362Z" fill="black"/>
<path d="M19.8543 8.18259L16.932 4.29063C16.7946 4.10769 16.5792 4 16.3504 4H15.1515V4.72728V5.45456V10.0606C15.1515 10.4622 14.8259 10.7879 14.4242 10.7879H7.63637C7.23472 10.7879 6.90909 10.4622 6.90909 10.0606V5.45453V4.72728V4H4.72728C4.32563 4 4 4.32569 4 4.72728V19.2727C4 19.6743 4.32563 20 4.72728 20H6.90909V19.2727V18.5454V17.8182V14.9091C6.90909 14.5074 7.23472 14.1818 7.63637 14.1818H16.3637C16.7653 14.1818 17.0909 14.5073 17.0909 14.9091V17.8182V18.5454V19.2727V20H19.2727C19.6744 20 20 19.6743 20 19.2727V8.61928C20 8.46181 19.9488 8.3085 19.8543 8.18259Z" fill="black"/>
<path d="M8.36362 4V4.72728V5.45453V9.33334H13.697V5.45453V4.72728V4H8.36362Z" fill="black"/>
</svg>
