<svg width="303" height="127" fill="none" xmlns="http://www.w3.org/2000/svg">

<style>
    .letter6 {
    fill: none;
    stroke-width: 1px;
    stroke: black;
    }

    <defs>
        <style>
            .letter6 {
                stroke-dasharray: 2000;
                stroke-dashoffset: 2000;
                -webkit-animation: write 5s ease-out forwards;
                animation: write 5s ease-out forwards;
            }

            @-webkit-keyframes write {
                0% {
                    stroke-dashoffset: 2000;
                }

                100% {
                    stroke-dashoffset: 0;
                }
            }
        </style>
    </defs>
</style>

  <!-- <mask id="a" mask-type="alpha" maskUnits="userSpaceOnUse" x="0" y="0" width="303" height="127">
    <path d="M33.906 58.219c.157-.157.313-.203.469-.14.156.062.25.171.281.327.063.157.016.297-.14.422a58.535 58.535 0 01-9 5.625 104.654 104.654 0 01-9.61 4.266c-.719.25-1.469.531-2.25.844h-.047a7.81 7.81 0 011.22 3c-.032 2.374-.657 4.656-1.876 6.843a29.063 29.063 0 01-4.266 5.953c-.03.032-.078.079-.14.141a41.116 41.116 0 01-2.156 1.969c-.938.781-1.86 1.39-2.766 1.828-.938.437-1.672.375-2.203-.188-1.063-2.187-1.047-5.828.047-10.921 1.093-5.094 2.765-10.704 5.015-16.829 2.22-6.125 4.485-11.828 6.797-17.109 2.344-5.281 4.188-9.203 5.531-11.766.282-.468.547-.937.797-1.406a37.94 37.94 0 012.157-3.61 12.417 12.417 0 012.906-3.093c.594-.438 1.172-.5 1.734-.188.563.313.813.813.75 1.5a83.825 83.825 0 01-2.672 10.079 81.714 81.714 0 01-8.953 17.672c-.031.062-.11.171-.234.328-.344.5-.906 1.312-1.688 2.437a57.358 57.358 0 01-2.39 3.234 366.617 366.617 0 00-3 8.204l.281-.094c1.187-.344 2.25-.25 3.188.281 3.53-.156 7.562-1.281 12.093-3.375 4.532-2.125 7.907-4.203 10.125-6.234zm-9.75-27.563a65.145 65.145 0 00-3.984 7.782c-.5 1.062-1.016 2.124-1.547 3.187a324.97 324.97 0 00-6.094 14.531c4.844-6.343 8.375-13.25 10.594-20.718.063-.25.125-.516.188-.797a22.07 22.07 0 00.843-3.985zM9.578 71.016l-.047-.047c-.25.062-.515.125-.797.187-.687-.062-1.156-.36-1.406-.89-.312.906-.61 1.828-.89 2.765-.376 1.25-.766 2.5-1.172 3.75a66.33 66.33 0 00-1.547 5.25 24.115 24.115 0 00-.703 5.344 19.554 19.554 0 005.156-5.11 22.002 22.002 0 003.094-6.468 7.348 7.348 0 00.28-2.297c-.093-.5-.343-1.016-.75-1.547-.374-.531-.78-.844-1.218-.937z" fill="#D28ED8"/>
    <path d="M135.479 33.047c1.5 10.219 1.172 20.39-.985 30.516a107.241 107.241 0 01-10.547 28.687 103.532 103.532 0 01-9.984 15.188 63.67 63.67 0 01-13.125 12.468A38.825 38.825 0 0187.76 126c-4.75 1.219-9.5 1.125-14.25-.281-5.688-1.969-10.063-4.969-13.125-9-3.063-4.031-5.078-8.656-6.047-13.875-.937-5.219-1.094-10.578-.469-16.078.625-5.47 1.766-10.641 3.422-15.516a84.973 84.973 0 0110.64-22.594c.407-.562.813-1.11 1.22-1.64.53-7.094 2.156-14.016 4.875-20.766 2.75-6.781 6.593-12.734 11.53-17.86 3.907-3.906 8.563-6.468 13.97-7.687a30.515 30.515 0 0111.296.047 25.625 25.625 0 0110.407 4.406c4.343 3.344 7.609 7.5 9.797 12.469a59.7 59.7 0 014.453 15.422zm-4.266 24.422c1-5.375 1.375-11.219 1.125-17.532-.219-6.343-1.328-12.374-3.328-18.093-1.969-5.719-5.078-10.328-9.328-13.828-4.219-3.532-9.813-5.172-16.781-4.922-4.657.344-8.844 1.86-12.563 4.547-3.687 2.656-6.875 6.062-9.562 10.218a61.54 61.54 0 00-6.516 13.266c-1.625 4.688-2.719 9.219-3.281 13.594a42.123 42.123 0 015.625-5.438c.375-.281.781-.39 1.219-.328.437.031.796.234 1.078.61.28.374.39.78.328 1.218-.031.438-.235.797-.61 1.078a46.65 46.65 0 00-8.015 8.625c.125 3.563.844 7.157 2.156 10.782 1.344 3.593 3.094 6.672 5.25 9.234 2.656 3.188 6 5.11 10.031 5.766 4.032.437 7.828-.329 11.39-2.297 3.595-1.969 6.204-4.813 7.829-8.531.375-.72.875-1.063 1.5-1.032.625.031 1.109.313 1.453.844.375.5.359 1.094-.047 1.781a26.497 26.497 0 01-9.797 8.203c-3.937 1.938-8.093 2.704-12.468 2.297-3.25-.437-6.11-1.719-8.578-3.844a25.666 25.666 0 01-5.86-7.5 39.892 39.892 0 01-4.265-13.64 74.56 74.56 0 00-7.594 15.234c-1.938 5.406-3.422 10.781-4.453 16.125-.782 4.156-1.11 8.438-.985 12.844.157 4.438 1.016 8.641 2.578 12.609 1.563 4 4.094 7.407 7.594 10.219 3.906 2.938 7.875 4.563 11.906 4.875 4.063.313 8.016-.39 11.86-2.109 3.875-1.719 7.469-4.156 10.781-7.313 7.875-7.562 14.422-16.36 19.641-26.39 5.218-10.032 8.781-20.422 10.687-31.172z" fill="#D28ED8"/>
    <path d="M161.468 54.656c.375-.593.859-.906 1.453-.937.625-.063 1.141.11 1.547.515.438.375.578.907.422 1.594a360.866 360.866 0 01-7.734 28.266c.5-.063.921-.047 1.265.047.375.093.578.375.61.843a.99.99 0 01-.329.47.628.628 0 01-.515.14c-.5-.094-1-.125-1.5-.094a138.474 138.474 0 01-6.75 16.641 104.52 104.52 0 01-8.531 14.343c-.375.5-.844.766-1.407.797a1.887 1.887 0 01-1.547-.515c-.718-.813-1.156-2.297-1.312-4.453a17.414 17.414 0 01.609-6.329c1.094-3.875 2.953-7.734 5.578-11.578 2.594-3.844 5.75-6.797 9.469-8.86a243.013 243.013 0 005.953-20.296 35.105 35.105 0 01-3.937 5.156c-2.031 2.156-4 3.078-5.906 2.766-1.938-.313-2.86-2-2.766-5.063a20.089 20.089 0 012.391-6.843 25.656 25.656 0 014.546-5.86c1.907-1.687 3.516-2.656 4.829-2.906 1.312-.25 2.265-.11 2.859.422.594.531.766 1.156.516 1.875-.25.687-.969 1.14-2.157 1.36-1.437.312-2.968 1.39-4.593 3.234a22.38 22.38 0 00-3.797 6c-.969 2.156-1.188 3.89-.657 5.203l-.234-.094c1.188.5 2.328.219 3.422-.844 1.125-1.062 2.141-2.422 3.047-4.078.937-1.656 1.703-3.14 2.297-4.453a21.9 21.9 0 01.609-1.219c.406-.937.813-1.89 1.219-2.86.344-.78.687-1.577 1.031-2.39zm-21.891 58.172c5.344-8.062 9.563-16.594 12.657-25.594-3.282 2.063-6.032 4.86-8.25 8.391-2.25 3.563-3.782 7.094-4.594 10.594-.031.031-.047.078-.047.14a30.561 30.561 0 00-.328 3.282c-.063 1.218.125 2.281.562 3.187z" fill="#D28ED8"/>
    <path d="M207.098 58.125c.313.375.266.797-.141 1.266a9.312 9.312 0 01-1.359 1.359c-.375.313-.641.563-.797.75-1.187 1.063-3.156 2.469-5.906 4.219-2.75 1.75-5.766 3.375-9.047 4.875-3.281 1.5-6.281 2.406-9 2.719-2.719.312-4.625-.422-5.719-2.204-1.031-2.625-1.25-5.359-.656-8.203.563-2.875 1.688-5.422 3.375-7.64 1-1.188 2.203-1.844 3.609-1.97 1.407-.124 2.282.72 2.625 2.532.219.906-.046 1.906-.796 3-.75 1.063-1.688 2.047-2.813 2.953-1.094.907-2.047 1.532-2.859 1.875-.375 1.969-.485 3.64-.328 5.016.25 2 1.437 2.969 3.562 2.906 2.156-.062 4.656-.672 7.5-1.828a70.789 70.789 0 008.016-3.89c2.468-1.407 4.172-2.47 5.109-3.188a23.471 23.471 0 004.734-4.406c.125-.157.266-.235.422-.235.188-.031.344 0 .469.094zm-25.922-1.313c-1.406.97-2.422 2.563-3.047 4.782a17.54 17.54 0 002.157-2.39c.656-.907.953-1.704.89-2.392z" fill="#D28ED8"/>
    <path d="M269.369 58.266c.156-.157.312-.203.468-.141.188.031.313.125.375.281.094.157.063.328-.093.516-2.344 2.312-5.438 4.781-9.282 7.406a66.92 66.92 0 01-12.046 6.469c-4.188 1.719-7.954 2.422-11.297 2.11-2.063-.313-3.375-1.094-3.938-2.344-.562-1.282-.625-2.782-.187-4.5a20.067 20.067 0 012.156-5.016c-2.719 2.375-5.781 4.703-9.188 6.984-3.406 2.25-6.843 4.078-10.312 5.485-3.469 1.437-6.641 2.078-9.516 1.921-2.218-.374-3.515-1.406-3.89-3.093-.375-1.719-.172-3.703.609-5.953a34.838 34.838 0 012.953-6.375c1.188-2 2.235-3.516 3.141-4.547 1.125-1.375 2.531-2.61 4.219-3.703 1.687-1.125 3.453-1.235 5.296-.328.625.53.891 1.109.797 1.734-.062.625-.375 1.11-.937 1.453-.531.344-1.156.344-1.875 0-.531 0-1.047.172-1.547.516-.5.343-.969.718-1.406 1.125a2.986 2.986 0 00-.328.28 33.27 33.27 0 00-7.735 12.235 27.818 27.818 0 00-.469 1.875 7.04 7.04 0 00-.187 1.922c.031.563.266.953.703 1.172 2.125.594 4.297.547 6.516-.14a38.242 38.242 0 006.234-2.532 88.964 88.964 0 0017.484-11.906 44.617 44.617 0 002.157-2.016l.422-.422c1.125-1.28 2.5-2.297 4.125-3.047 1.625-.78 3.265-.718 4.921.188.625.5.891 1.078.797 1.734-.062.625-.375 1.11-.937 1.453-.531.344-1.156.344-1.875 0-.969-.187-2.047.22-3.235 1.22a20.376 20.376 0 00-3.187 3.515c-.969 1.344-1.641 2.437-2.016 3.281-.281.5-.562 1.188-.843 2.063a8.237 8.237 0 00-.422 2.53c0 .782.312 1.313.937 1.595a14.09 14.09 0 006.844 0 48.227 48.227 0 006.703-2.25A63.418 63.418 0 00266.65 60.89a21.7 21.7 0 002.719-2.625z" fill="#D28ED8"/>
    <path d="M302.202 58.125c.312.375.265.797-.141 1.266a9.312 9.312 0 01-1.359 1.359c-.375.313-.641.563-.797.75-1.188 1.063-3.156 2.469-5.906 4.219-2.75 1.75-5.766 3.375-9.047 4.875-3.281 1.5-6.281 2.406-9 2.719-2.719.312-4.625-.422-5.719-2.204-1.031-2.625-1.25-5.359-.656-8.203.562-2.875 1.687-5.422 3.375-7.64 1-1.188 2.203-1.844 3.609-1.97 1.406-.124 2.281.72 2.625 2.532.219.906-.047 1.906-.797 3-.75 1.063-1.687 2.047-2.812 2.953-1.094.907-2.047 1.532-2.86 1.875-.375 1.969-.484 3.64-.328 5.016.25 2 1.438 2.969 3.563 2.906 2.156-.062 4.656-.672 7.5-1.828a70.69 70.69 0 008.015-3.89c2.469-1.407 4.172-2.47 5.11-3.188a23.471 23.471 0 004.734-4.406c.125-.157.266-.235.422-.235.188-.031.344 0 .469.094zm-25.922-1.313c-1.406.97-2.422 2.563-3.047 4.782.781-.719 1.5-1.516 2.156-2.39.657-.907.953-1.704.891-2.392z" fill="#D28ED8"/>
  </mask> -->
  <g mask="url(#a)">
    <path d="M11.475 57.875C25.973 36.23 30.141 15.773 20.65 33.408 11.19 50.985-7.085 100.287 6.734 85.736c12.12-12.761 3.859-17.394 2.437-16.673-1.422.72.449.77.834.705.384-.064 7.823-1.603 13.851-4.81 6.028-3.206 9.491-5.8 11.287-7.083" stroke="#000" stroke-width="6"/>
    <path d="M110.096 64.745C97.071 85.808 54.773 75.535 75.084 26.98c17.737-42.403 59.587-28.925 59.587 16.63 0 25.22-14.277 58.292-35.198 74.829-18.68 14.765-44.898 6.651-44.343-26.33.443-26.384 16.51-46.703 24.086-52.8" stroke="#000" stroke-width="6"/>
    <path d="M160.1 56.166a3 3 0 00-2.862-5.274l2.862 5.274zm-17.212 55.522l2.38 1.827-2.38-1.827zm-1.471-12.784l-2.562-1.56 2.562 1.56zm15.821-48.012c-5.477 2.972-9.068 6.736-11.085 10.431-1.945 3.564-2.596 7.436-1.43 10.36.615 1.542 1.83 2.97 3.724 3.501 1.839.517 3.68.01 5.238-.918 3.03-1.804 6.122-5.814 9.06-12.175l-5.447-2.516c-2.789 6.038-5.242 8.678-6.681 9.535-.677.402-.801.227-.547.298.31.087.322.292.226.053-.254-.638-.352-2.56 1.124-5.263 1.403-2.572 4.103-5.549 8.68-8.032l-2.862-5.274zm5.507 11.199c.702-1.52 1.266-2.66 1.706-3.47a15.1 15.1 0 01.535-.923c.148-.232.206-.295.181-.267-.013.014-.1.111-.26.23a2.653 2.653 0 01-1.111.468 2.865 2.865 0 01-2.264-.566 2.754 2.754 0 01-.902-1.24c-.151-.426-.117-.71-.121-.555a4.723 4.723 0 01-.05.504c-.33 2.397-1.906 8.192-4.219 15.413-2.282 7.124-5.194 15.372-8.081 22.542-2.941 7.304-5.707 13.103-7.65 15.635l4.759 3.653c2.521-3.284 5.559-9.85 8.457-17.047 2.951-7.33 5.912-15.718 8.229-22.954 2.287-7.138 4.036-13.426 4.449-16.422.055-.398.097-.808.105-1.196.007-.302.007-.93-.223-1.577a3.24 3.24 0 00-1.053-1.48 3.135 3.135 0 00-2.487-.617 3.357 3.357 0 00-1.405.614c-.27.2-.481.412-.629.576-.532.59-1.047 1.45-1.534 2.348-.525.969-1.15 2.236-1.879 3.815l5.447 2.516zm-22.236 47.771c-1.028 1.339-1.712 2.015-2.091 2.303-.578.438.197-.427 1.471.155 1.143.523 1.105 1.527 1.013.937-.05-.325-.064-.938.026-1.858.174-1.797.674-4.132 1.302-6.302.648-2.24 1.33-3.944 1.75-4.633l-5.125-3.12c-.86 1.412-1.718 3.769-2.389 6.085-.691 2.387-1.289 5.105-1.51 7.39-.109 1.122-.145 2.309.017 3.357.122.784.532 2.737 2.419 3.6 2.018.924 3.833-.209 4.652-.831 1.016-.77 2.084-1.945 3.224-3.43l-4.759-3.653zm3.471-9.398c3.085-5.067 6.635-8.411 9.593-10.39 1.485-.992 2.782-1.615 3.757-1.948 1.138-.39 1.397-.238 1.075-.327l1.61-5.78c-1.51-.42-3.241-.044-4.627.43-1.549.53-3.311 1.408-5.15 2.638-3.689 2.466-7.848 6.45-11.383 12.256l5.125 3.121z" fill="#000"/>
    <path d="M175.713 63.63l2.864.892-2.864-.893zm3.143 1.678c3.142-.993 5.146-3.111 6.155-5.36.918-2.05 1.172-4.652.108-6.617-.598-1.104-1.822-2.27-3.67-2.273-1.626-.002-2.894.921-3.737 1.79-1.713 1.764-3.337 4.99-4.863 9.889l5.728 1.785c1.466-4.706 2.753-6.788 3.439-7.494.357-.367.161.03-.575.03-.958-.002-1.474-.64-1.598-.87-.094-.172-.018-.139-.031.196-.01.295-.088.69-.277 1.11-.358.799-1.091 1.652-2.488 2.094l1.809 5.72zm-6.007-2.571c-1.178 3.78-1.195 7.57 1.274 10.177 2.387 2.518 6.065 2.8 9.457 2.239 6.962-1.154 16.41-6.38 25.633-14.87l-4.064-4.415c-8.814 8.114-17.224 12.483-22.549 13.365-2.752.456-3.825-.133-4.122-.447-.214-.225-.848-1.225.099-4.264l-5.728-1.785z" fill="#000"/>
    <path d="M219.631 55.552c-6.471-3.545-20.419 14.95-14.385 20.592 6.034 5.643 34.795-18.024 38.556-19.278 3.009-1.003 3.239 0 2.978.627-1.228-.888-4.937-.736-9.952 6.975-6.27 9.639 0 11.755 10.657 8.306 8.526-2.758 18.704-10.866 22.726-14.575" stroke="#000" stroke-width="6"/>
    <path class="letter6" d="M270.85 63.63l2.864.892-2.864-.893zm3.143 1.678c3.142-.993 5.147-3.111 6.155-5.36.918-2.05 1.172-4.652.108-6.617-.598-1.104-1.822-2.27-3.67-2.273-1.626-.002-2.894.921-3.737 1.79-1.713 1.764-3.337 4.99-4.863 9.889l5.728 1.785c1.466-4.706 2.754-6.788 3.44-7.494.356-.367.16.03-.576.03-.958-.002-1.474-.64-1.598-.87-.094-.172-.018-.139-.03.196a3.06 3.06 0 01-.278 1.11c-.358.799-1.091 1.652-2.488 2.094l1.809 5.72zm-6.007-2.571c-1.178 3.78-1.195 7.57 1.274 10.177 2.387 2.518 6.065 2.8 9.457 2.239 6.962-1.154 16.411-6.38 25.633-14.87l-4.064-4.415c-8.813 8.114-17.224 12.483-22.549 13.365-2.752.456-3.825-.133-4.122-.447-.214-.225-.848-1.225.099-4.264l-5.728-1.785z" fill="#000"/>
  </g>
</svg>
