<svg width="303" height="127" viewBox="0 0 303 127" fill="none" xmlns="http://www.w3.org/2000/svg">

<style>
    .letter1 {
        fill: none;
        stroke: black;
        stroke-width: 6px;
    }

    <defs>
        <style>
            .letter1 {
                stroke-dasharray: 2000;
                stroke-dashoffset: 2000;
                -webkit-animation: write 5s ease-out forwards;
                animation: write 5s ease-out forwards;
            }

            @-webkit-keyframes write {
                0% {
                    stroke-dashoffset: 2000;
                }

                100% {
                    stroke-dashoffset: 0;
                }
            }
        </style>
    </defs>

        .letter2 {
        fill: none;
        stroke: black;
        stroke-width: 6px;
    }

    <defs>
        <style>
            .letter2 {
                stroke-dasharray: 2000;
                stroke-dashoffset: 2000;
                -webkit-animation: write 3s ease-out 1s forwards;
                animation: write 2s ease-out 1s forwards;
            }

            @-webkit-keyframes write {
                0% {
                    stroke-dashoffset: 2000;
                }

                100% {
                    stroke-dashoffset: 0;
                }
            }
        </style>
    </defs>

    .letter3 {
    fill: none;
    stroke: black;
    stroke-width: 6px;
    }

    <defs>
        <style>
            .letter3 {
                stroke-dasharray: 2000;
                stroke-dashoffset: 2000;
                -webkit-animation: write 5s ease-out 1.5s forwards;
                animation: write 5s ease-out 1.5s forwards;
            }

            @-webkit-keyframes write {
                0% {
                    stroke-dashoffset: 2000;
                }

                100% {
                    stroke-dashoffset: 0;
                }
            }
        </style>
    </defs>

    .letter4 {
    fill: none;
    stroke: black;
    stroke-width: 6px;
    }

    <defs>
        <style>
            .letter4 {
                stroke-dasharray: 2000;
                stroke-dashoffset: 2000;
                -webkit-animation: write 5s ease-out 2s forwards;
                animation: write 5s ease-out 2s forwards;
            }

            @-webkit-keyframes write {
                0% {
                    stroke-dashoffset: 2000;
                }

                100% {
                    stroke-dashoffset: 0;
                }
            }
        </style>
    </defs>

    .letter5 {
    fill: none;
    stroke: black;
    stroke-width: 6px;
    }

    <defs>
        <style>
            .letter5 {
                stroke-dasharray: 2000;
                stroke-dashoffset: 2000;
                -webkit-animation: write 5s ease-out 2.5s forwards;
                animation: write 5s ease-out 2.5s forwards;
            }

            @-webkit-keyframes write {
                0% {
                    stroke-dashoffset: 2000;
                }

                100% {
                    stroke-dashoffset: 0;
                }
            }
        </style>
    </defs>
    .letter6 {
    fill: none;
    stroke: black;
    stroke-width: 6px;
    }

    <defs>
        <style>
            .letter6 {
                stroke-dasharray: 2000;
                stroke-dashoffset: 2000;
                -webkit-animation: write 5s ease-out 3s forwards;
                animation: write 5s ease-out 3s forwards;
            }

            @-webkit-keyframes write {
                0% {
                    stroke-dashoffset: 2000;
                }

                100% {
                    stroke-dashoffset: 0;
                }
            }
        </style>
    </defs>
    

</style>

<!-- <mask id="mask0" mask-type="alpha" maskUnits="userSpaceOnUse" x="0" y="0" width="303" height="127">
<path d="M33.9062 58.2188C34.0625 58.0625 34.2187 58.0156 34.375 58.0781C34.5312 58.1406 34.625 58.25 34.6562 58.4063C34.7187 58.5625 34.6719 58.7031 34.5156 58.8281C31.6719 60.9844 28.6719 62.8594 25.5156 64.4531C22.3594 66.0469 19.1562 67.4688 15.9062 68.7188C15.1875 68.9688 14.4375 69.25 13.6562 69.5625C13.625 69.5625 13.6094 69.5625 13.6094 69.5625C14.2344 70.5 14.6406 71.5 14.8281 72.5625C14.7969 74.9375 14.1719 77.2188 12.9531 79.4063C11.7656 81.5938 10.3437 83.5781 8.68749 85.3594C8.65624 85.3906 8.60936 85.4375 8.54686 85.5C8.01561 86.0313 7.29686 86.6875 6.39061 87.4688C5.45311 88.25 4.53124 88.8594 3.62499 89.2969C2.68749 89.7344 1.95311 89.6719 1.42186 89.1094C0.359362 86.9219 0.374987 83.2813 1.46874 78.1875C2.56249 73.0938 4.23436 67.4844 6.48436 61.3594C8.70311 55.2344 10.9687 49.5313 13.2812 44.25C15.625 38.9688 17.4687 35.0469 18.8125 32.4844C19.0937 32.0156 19.3594 31.5469 19.6094 31.0781C20.2656 29.8281 20.9844 28.625 21.7656 27.4688C22.5469 26.2813 23.5156 25.25 24.6719 24.375C25.2656 23.9375 25.8437 23.875 26.4062 24.1875C26.9687 24.5 27.2187 25 27.1562 25.6875C26.4687 29.125 25.5781 32.4844 24.4844 35.7656C22.2344 41.9844 19.25 47.875 15.5312 53.4375C15.5 53.5 15.4219 53.6094 15.2969 53.7656C14.9531 54.2656 14.3906 55.0781 13.6094 56.2031C12.8594 57.2969 12.0625 58.375 11.2187 59.4375C10.1875 62.1563 9.18749 64.8906 8.21874 67.6406C8.31249 67.6094 8.40624 67.5781 8.49999 67.5469C9.68749 67.2031 10.75 67.2969 11.6875 67.8281C15.2187 67.6719 19.25 66.5469 23.7812 64.4531C28.3125 62.3281 31.6875 60.25 33.9062 58.2188ZM24.1562 30.6563C22.6562 33.1563 21.3281 35.75 20.1719 38.4375C19.6719 39.5 19.1562 40.5625 18.625 41.625C16.4687 46.4375 14.4375 51.2813 12.5312 56.1563C17.375 49.8125 20.9062 42.9063 23.125 35.4375C23.1875 35.1875 23.25 34.9219 23.3125 34.6406C23.7187 33.3281 24 32 24.1562 30.6563ZM9.57811 71.0156L9.53124 70.9688C9.28124 71.0313 9.01561 71.0938 8.73436 71.1563C8.04686 71.0938 7.57811 70.7969 7.32811 70.2656C7.01561 71.1719 6.71874 72.0938 6.43749 73.0313C6.06249 74.2813 5.67186 75.5313 5.26561 76.7813C4.67186 78.5313 4.15624 80.2813 3.71874 82.0313C3.28124 83.8125 3.04686 85.5938 3.01561 87.375C5.04686 86 6.76561 84.2969 8.17186 82.2656C9.57811 80.2344 10.6094 78.0781 11.2656 75.7969C11.4844 75.0156 11.5781 74.25 11.5469 73.5C11.4531 73 11.2031 72.4844 10.7969 71.9531C10.4219 71.4219 10.0156 71.1094 9.57811 71.0156Z" fill="#D28ED8"/>
<path d="M135.479 33.0469C136.979 43.2656 136.651 53.4375 134.494 63.5625C132.338 73.6563 128.822 83.2188 123.947 92.25C121.072 97.5938 117.744 102.656 113.963 107.438C110.182 112.219 105.807 116.375 100.838 119.906C96.8694 122.75 92.51 124.781 87.76 126C83.01 127.219 78.26 127.125 73.51 125.719C67.8225 123.75 63.4475 120.75 60.385 116.719C57.3225 112.688 55.3069 108.063 54.3381 102.844C53.4006 97.625 53.2444 92.2656 53.8694 86.7656C54.4944 81.2969 55.635 76.125 57.2912 71.25C59.7287 63.1875 63.2756 55.6563 67.9319 48.6563C68.3381 48.0938 68.7444 47.5469 69.1506 47.0156C69.6819 39.9219 71.3069 33 74.0256 26.25C76.7756 19.4688 80.6194 13.5156 85.5569 8.39064C89.4631 4.48439 94.1194 1.92189 99.5256 0.703141C103.276 0.0156413 107.041 0.0312663 110.822 0.750016C114.604 1.43752 118.072 2.90627 121.229 5.15627C125.572 8.50002 128.838 12.6563 131.026 17.625C133.213 22.5938 134.697 27.7344 135.479 33.0469ZM131.213 57.4688C132.213 52.0938 132.588 46.25 132.338 39.9375C132.119 33.5938 131.01 27.5625 129.01 21.8438C127.041 16.125 123.932 11.5156 119.682 8.01564C115.463 4.48439 109.869 2.84377 102.901 3.09377C98.2444 3.43752 94.0569 4.95314 90.3381 7.64064C86.6506 10.2969 83.4631 13.7031 80.7756 17.8594C78.0881 21.9844 75.9162 26.4063 74.26 31.125C72.635 35.8125 71.5412 40.3438 70.9787 44.7188C72.6662 42.75 74.5412 40.9375 76.6037 39.2813C76.9787 39 77.385 38.8906 77.8225 38.9531C78.26 38.9844 78.6194 39.1875 78.9006 39.5625C79.1819 39.9375 79.2912 40.3438 79.2287 40.7813C79.1975 41.2188 78.9944 41.5781 78.6194 41.8594C75.5881 44.3906 72.9162 47.2656 70.6037 50.4844C70.7287 54.0469 71.4475 57.6406 72.76 61.2656C74.1037 64.8594 75.8537 67.9375 78.01 70.5C80.6662 73.6875 84.01 75.6094 88.0412 76.2656C92.0725 76.7031 95.8694 75.9375 99.4319 73.9688C103.026 72 105.635 69.1563 107.26 65.4375C107.635 64.7188 108.135 64.375 108.76 64.4063C109.385 64.4375 109.869 64.7188 110.213 65.25C110.588 65.75 110.572 66.3438 110.166 67.0313C107.572 70.5625 104.307 73.2969 100.369 75.2344C96.4319 77.1719 92.2756 77.9375 87.9006 77.5313C84.6506 77.0938 81.7912 75.8125 79.3225 73.6875C76.885 71.5313 74.9319 69.0313 73.4631 66.1875C71.2131 61.875 69.7912 57.3281 69.1975 52.5469C66.1037 57.2969 63.5725 62.375 61.6037 67.7813C59.6662 73.1875 58.1819 78.5625 57.1506 83.9063C56.3694 88.0625 56.0412 92.3438 56.1662 96.75C56.3225 101.188 57.1819 105.391 58.7444 109.359C60.3069 113.359 62.8381 116.766 66.3381 119.578C70.2444 122.516 74.2131 124.141 78.2444 124.453C82.3069 124.766 86.26 124.063 90.1037 122.344C93.9787 120.625 97.5725 118.188 100.885 115.031C108.76 107.469 115.307 98.6719 120.526 88.6406C125.744 78.6094 129.307 68.2188 131.213 57.4688Z" fill="#D28ED8"/>
<path d="M161.468 54.6563C161.843 54.0625 162.327 53.75 162.921 53.7188C163.546 53.6563 164.062 53.8281 164.468 54.2344C164.906 54.6094 165.046 55.1406 164.89 55.8281C162.702 65.3281 160.124 74.75 157.156 84.0938C157.656 84.0313 158.077 84.0469 158.421 84.1406C158.796 84.2344 158.999 84.5156 159.031 84.9844C158.968 85.1719 158.859 85.3281 158.702 85.4531C158.546 85.5781 158.374 85.625 158.187 85.5938C157.687 85.5 157.187 85.4688 156.687 85.5C154.812 91.1563 152.562 96.7031 149.937 102.141C147.499 107.109 144.656 111.891 141.406 116.484C141.031 116.984 140.562 117.25 139.999 117.281C139.406 117.344 138.89 117.172 138.452 116.766C137.734 115.953 137.296 114.469 137.14 112.313C136.952 110.188 137.156 108.078 137.749 105.984C138.843 102.109 140.702 98.25 143.327 94.4063C145.921 90.5625 149.077 87.6094 152.796 85.5469C155.077 78.8594 157.062 72.0938 158.749 65.25C157.593 67.0938 156.281 68.8125 154.812 70.4063C152.781 72.5625 150.812 73.4844 148.906 73.1719C146.968 72.8594 146.046 71.1719 146.14 68.1094C146.515 65.7031 147.312 63.4219 148.531 61.2656C149.749 59.1094 151.265 57.1563 153.077 55.4063C154.984 53.7188 156.593 52.75 157.906 52.5C159.218 52.25 160.171 52.3906 160.765 52.9219C161.359 53.4531 161.531 54.0781 161.281 54.7969C161.031 55.4844 160.312 55.9375 159.124 56.1563C157.687 56.4688 156.156 57.5469 154.531 59.3906C152.937 61.2031 151.671 63.2031 150.734 65.3906C149.765 67.5469 149.546 69.2813 150.077 70.5938L149.843 70.5C151.031 71 152.171 70.7188 153.265 69.6563C154.39 68.5938 155.406 67.2344 156.312 65.5781C157.249 63.9219 158.015 62.4375 158.609 61.125C158.827 60.6563 159.031 60.25 159.218 59.9063C159.624 58.9688 160.031 58.0156 160.437 57.0469C160.781 56.2656 161.124 55.4688 161.468 54.6563ZM139.577 112.828C144.921 104.766 149.14 96.2344 152.234 87.2344C148.952 89.2969 146.202 92.0938 143.984 95.625C141.734 99.1875 140.202 102.719 139.39 106.219C139.359 106.25 139.343 106.297 139.343 106.359C139.187 107.328 139.077 108.422 139.015 109.641C138.952 110.859 139.14 111.922 139.577 112.828Z" fill="#D28ED8"/>
<path d="M207.098 58.125C207.411 58.5 207.364 58.9219 206.957 59.3906C206.582 59.8594 206.129 60.3125 205.598 60.75C205.223 61.0625 204.957 61.3125 204.801 61.5C203.614 62.5625 201.645 63.9688 198.895 65.7188C196.145 67.4688 193.129 69.0938 189.848 70.5938C186.567 72.0938 183.567 73 180.848 73.3125C178.129 73.625 176.223 72.8906 175.129 71.1094C174.098 68.4844 173.879 65.75 174.473 62.9063C175.036 60.0313 176.161 57.4844 177.848 55.2656C178.848 54.0781 180.051 53.4219 181.457 53.2969C182.864 53.1719 183.739 54.0156 184.082 55.8281C184.301 56.7344 184.036 57.7344 183.286 58.8281C182.536 59.8906 181.598 60.875 180.473 61.7813C179.379 62.6875 178.426 63.3125 177.614 63.6563C177.239 65.625 177.129 67.2969 177.286 68.6719C177.536 70.6719 178.723 71.6406 180.848 71.5781C183.004 71.5156 185.504 70.9063 188.348 69.75C191.223 68.5625 193.895 67.2656 196.364 65.8594C198.832 64.4531 200.536 63.3906 201.473 62.6719C203.254 61.4219 204.832 59.9531 206.207 58.2656C206.332 58.1094 206.473 58.0313 206.629 58.0313C206.817 58 206.973 58.0313 207.098 58.125ZM181.176 56.8125C179.77 57.7813 178.754 59.375 178.129 61.5938C178.911 60.875 179.629 60.0781 180.286 59.2031C180.942 58.2969 181.239 57.5 181.176 56.8125Z" fill="#D28ED8"/>
<path d="M269.369 58.2656C269.525 58.1094 269.681 58.0625 269.837 58.125C270.025 58.1563 270.15 58.25 270.212 58.4063C270.306 58.5625 270.275 58.7344 270.119 58.9219C267.775 61.2344 264.681 63.7031 260.837 66.3281C256.994 68.9219 252.978 71.0781 248.791 72.7969C244.603 74.5156 240.837 75.2188 237.494 74.9063C235.431 74.5938 234.119 73.8125 233.556 72.5625C232.994 71.2813 232.931 69.7813 233.369 68.0625C233.837 66.3438 234.556 64.6719 235.525 63.0469C232.806 65.4219 229.744 67.75 226.337 70.0313C222.931 72.2813 219.494 74.1094 216.025 75.5156C212.556 76.9531 209.384 77.5938 206.509 77.4375C204.291 77.0625 202.994 76.0313 202.619 74.3438C202.244 72.625 202.447 70.6406 203.228 68.3906C204.009 66.1406 204.994 64.0156 206.181 62.0156C207.369 60.0156 208.416 58.5 209.322 57.4688C210.447 56.0938 211.853 54.8594 213.541 53.7656C215.228 52.6406 216.994 52.5313 218.837 53.4375C219.462 53.9688 219.728 54.5469 219.634 55.1719C219.572 55.7969 219.259 56.2813 218.697 56.625C218.166 56.9688 217.541 56.9688 216.822 56.625C216.291 56.625 215.775 56.7969 215.275 57.1406C214.775 57.4844 214.306 57.8594 213.869 58.2656C213.744 58.3594 213.634 58.4531 213.541 58.5469C210.197 61.9219 207.681 65.8281 205.994 70.2656C205.931 70.4219 205.869 70.5938 205.806 70.7813C205.65 71.3125 205.494 71.9375 205.337 72.6563C205.181 73.3438 205.119 73.9844 205.15 74.5781C205.181 75.1406 205.416 75.5313 205.853 75.75C207.978 76.3438 210.15 76.2969 212.369 75.6094C214.587 74.9219 216.666 74.0781 218.603 73.0781C224.916 69.7969 230.744 65.8281 236.087 61.1719C236.837 60.5156 237.556 59.8438 238.244 59.1563C238.4 59 238.541 58.8594 238.666 58.7344C239.791 57.4531 241.166 56.4375 242.791 55.6875C244.416 54.9063 246.056 54.9688 247.712 55.875C248.337 56.375 248.603 56.9531 248.509 57.6094C248.447 58.2344 248.134 58.7188 247.572 59.0625C247.041 59.4063 246.416 59.4063 245.697 59.0625C244.728 58.875 243.65 59.2813 242.462 60.2813C241.306 61.2813 240.244 62.4531 239.275 63.7969C238.306 65.1406 237.634 66.2344 237.259 67.0781C236.978 67.5781 236.697 68.2656 236.416 69.1406C236.134 70.0156 235.994 70.8594 235.994 71.6719C235.994 72.4531 236.306 72.9844 236.931 73.2656C239.212 73.8281 241.494 73.8281 243.775 73.2656C246.087 72.6719 248.322 71.9219 250.478 71.0156C256.384 68.4531 261.775 65.0781 266.65 60.8906C267.65 60.0781 268.556 59.2031 269.369 58.2656Z" fill="#D28ED8"/>
<path d="M302.202 58.125C302.514 58.5 302.467 58.9219 302.061 59.3906C301.686 59.8594 301.233 60.3125 300.702 60.75C300.327 61.0625 300.061 61.3125 299.905 61.5C298.717 62.5625 296.749 63.9688 293.999 65.7188C291.249 67.4688 288.233 69.0938 284.952 70.5938C281.671 72.0938 278.671 73 275.952 73.3125C273.233 73.625 271.327 72.8906 270.233 71.1094C269.202 68.4844 268.983 65.75 269.577 62.9063C270.139 60.0313 271.264 57.4844 272.952 55.2656C273.952 54.0781 275.155 53.4219 276.561 53.2969C277.967 53.1719 278.842 54.0156 279.186 55.8281C279.405 56.7344 279.139 57.7344 278.389 58.8281C277.639 59.8906 276.702 60.875 275.577 61.7813C274.483 62.6875 273.53 63.3125 272.717 63.6563C272.342 65.625 272.233 67.2969 272.389 68.6719C272.639 70.6719 273.827 71.6406 275.952 71.5781C278.108 71.5156 280.608 70.9063 283.452 69.75C286.327 68.5625 288.999 67.2656 291.467 65.8594C293.936 64.4531 295.639 63.3906 296.577 62.6719C298.358 61.4219 299.936 59.9531 301.311 58.2656C301.436 58.1094 301.577 58.0313 301.733 58.0313C301.921 58 302.077 58.0313 302.202 58.125ZM276.28 56.8125C274.874 57.7813 273.858 59.375 273.233 61.5938C274.014 60.875 274.733 60.0781 275.389 59.2031C276.046 58.2969 276.342 57.5 276.28 56.8125Z" fill="#D28ED8"/>
</mask> -->

<g mask="url(#mask0)">
<path class="letter1" d="M11.4753 57.8752C25.9725 36.2292 30.1408 15.7725 20.6498 33.4077C11.19 50.9849 -7.08548 100.287 6.73406 85.7361C18.8543 72.9746 10.5929 68.3417 9.17083 69.0627C7.74874 69.7836 9.6197 69.8322 10.0045 69.7681C10.3893 69.704 17.8281 68.1649 23.8562 64.9585C29.8842 61.7521 33.3471 59.1577 35.1427 57.8752" stroke="black" stroke-width="6"/>
<path class="letter2" d="M110.096 64.7452C97.0706 85.8083 54.7733 75.5346 75.0841 26.9792C92.8214 -15.4242 134.671 -1.94591 134.671 43.6082C134.671 68.8284 120.394 101.901 99.4729 118.438C80.7933 133.203 54.5753 125.089 55.1296 92.1086C55.573 65.7243 71.6401 45.4055 79.2155 39.3083" stroke="black" stroke-width="6"/>
<path class="letter3" d="M160.099 56.1659C161.556 55.3757 162.096 53.5546 161.306 52.0983C160.515 50.642 158.694 50.102 157.238 50.8922L160.099 56.1659ZM143.43 111.511L145.809 113.337L145.809 113.337L143.43 111.511ZM142.888 95.9098L145.337 97.6438L142.888 95.9098ZM157.238 50.8922C151.761 53.8643 148.17 57.6276 146.153 61.3232C144.208 64.887 143.557 68.7588 144.723 71.683C145.338 73.2249 146.553 74.6524 148.447 75.1845C150.286 75.7012 152.127 75.1933 153.685 74.2657C156.715 72.4621 159.807 68.452 162.745 62.0909L157.298 59.5753C154.509 65.6131 152.056 68.2533 150.617 69.1098C149.94 69.5123 149.816 69.3369 150.07 69.4083C150.38 69.4952 150.392 69.6997 150.296 69.4607C150.042 68.823 149.944 66.9012 151.42 64.1979C152.823 61.6264 155.523 58.6493 160.099 56.1659L157.238 50.8922ZM162.745 62.0909C163.446 60.5723 164.011 59.4353 164.453 58.6256C164.674 58.2209 164.852 57.9207 164.99 57.707C165.139 57.477 165.197 57.4159 165.171 57.4439C165.158 57.4589 165.071 57.5533 164.913 57.6677C164.777 57.7664 164.412 58.0103 163.853 58.1139C163.194 58.236 162.395 58.1314 161.698 57.6407C161.092 57.2147 160.83 56.6836 160.729 56.4363C160.547 55.9891 160.575 55.6775 160.575 55.8218C160.575 55.8783 160.569 56.0274 160.537 56.2971C160.254 58.6578 158.75 64.4145 156.504 71.6175C154.29 78.7168 151.446 86.9402 148.61 94.0917C145.72 101.379 142.988 107.159 141.05 109.684L145.809 113.337C148.335 110.046 151.34 103.484 154.187 96.3036C157.089 88.9879 159.982 80.6194 162.232 73.4036C164.449 66.2916 166.135 60.0101 166.494 57.0112C166.542 56.6109 166.577 56.1943 166.575 55.7982C166.574 55.4899 166.557 54.8386 166.286 54.1731C166.141 53.8168 165.823 53.207 165.151 52.7338C164.386 52.1958 163.509 52.0755 162.759 52.2143C162.11 52.3346 161.643 52.6278 161.392 52.8094C161.12 53.0068 160.906 53.2177 160.754 53.3839C160.205 53.9806 159.679 54.8487 159.187 55.7503C158.656 56.7239 158.028 57.9942 157.298 59.5753L162.745 62.0909ZM141.05 109.684C140.051 110.986 139.25 111.804 138.661 112.278C138.016 112.795 137.882 112.694 138.186 112.673C138.773 112.632 139.31 112.983 139.527 113.312C139.622 113.455 139.491 113.333 139.454 112.653C139.383 111.355 139.714 109.174 140.698 106.426C141.663 103.729 143.194 100.668 145.337 97.6438L140.44 94.1757C137.984 97.644 136.199 101.191 135.049 104.403C133.917 107.563 133.332 110.588 133.463 112.98C133.526 114.145 133.775 115.488 134.518 116.615C135.384 117.928 136.838 118.781 138.601 118.658C140.08 118.556 141.38 117.789 142.418 116.956C143.511 116.078 144.641 114.86 145.809 113.337L141.05 109.684ZM145.337 97.6438C148.811 92.7388 151.968 90.1782 154.335 88.9101C156.784 87.5976 158.21 87.7444 158.405 87.7986L160.015 82.0186C157.835 81.4115 154.779 81.865 151.501 83.6214C148.14 85.4222 144.324 88.6928 140.44 94.1757L145.337 97.6438Z" fill="black" stroke-width="6"/>
<path class="letter4" d="M175.713 63.6293L178.577 64.5218L175.713 63.6293ZM178.856 65.3083C181.998 64.3147 184.002 62.1968 185.011 59.9474C185.929 57.8973 186.183 55.2959 185.119 53.3305C184.521 52.227 183.297 51.0603 181.449 51.0577C179.823 51.0555 178.555 51.9793 177.712 52.8479C175.999 54.6122 174.375 57.8383 172.849 62.7368L178.577 64.5218C180.043 59.8164 181.33 57.7341 182.016 57.0277C182.373 56.6609 182.177 57.0588 181.441 57.0577C180.483 57.0564 179.967 56.4181 179.843 56.1881C179.749 56.0157 179.825 56.0492 179.812 56.3844C179.802 56.6791 179.724 57.0731 179.535 57.4936C179.177 58.293 178.444 59.146 177.047 59.5876L178.856 65.3083ZM172.849 62.7368C171.671 66.517 171.654 70.3079 174.123 72.9137C176.51 75.4319 180.188 75.7145 183.58 75.1526C190.542 73.9992 199.99 68.7724 209.213 60.2828L205.149 55.8684C196.335 63.9818 187.925 68.3509 182.6 69.2333C179.848 69.6891 178.775 69.0995 178.478 68.7862C178.264 68.5605 177.63 67.5607 178.577 64.5218L172.849 62.7368Z" fill="black" stroke-width="6"/>
<path class="letter5" d="M219.631 55.5523C213.16 52.0071 199.212 70.5019 205.246 76.1442C211.28 81.7866 240.041 58.1202 243.802 56.8663C246.811 55.8632 247.041 56.8663 246.78 57.4932C245.552 56.6051 241.843 56.7566 236.828 64.4678C230.558 74.1067 236.828 76.2226 247.485 72.7745C256.011 70.016 266.189 61.9078 270.211 58.1985" stroke="black" stroke-width="6"/>
<path class="letter6" d="M270.85 63.6293L273.714 64.5218L270.85 63.6293ZM273.993 65.3083C277.135 64.3147 279.14 62.1968 280.148 59.9474C281.066 57.8973 281.32 55.2959 280.256 53.3305C279.658 52.227 278.434 51.0603 276.586 51.0577C274.96 51.0555 273.692 51.9793 272.849 52.8479C271.136 54.6122 269.512 57.8383 267.986 62.7368L273.714 64.5218C275.18 59.8164 276.468 57.7341 277.154 57.0277C277.51 56.6609 277.314 57.0588 276.578 57.0577C275.62 57.0564 275.104 56.4181 274.98 56.1881C274.886 56.0157 274.962 56.0492 274.95 56.3844C274.939 56.6791 274.861 57.0731 274.672 57.4936C274.314 58.293 273.581 59.146 272.184 59.5876L273.993 65.3083ZM267.986 62.7368C266.808 66.517 266.791 70.3079 269.26 72.9137C271.647 75.4319 275.325 75.7145 278.717 75.1526C285.679 73.9992 295.128 68.7724 304.35 60.2828L300.286 55.8684C291.473 63.9818 283.062 68.3509 277.737 69.2333C274.985 69.6891 273.912 69.0995 273.615 68.7862C273.401 68.5605 272.767 67.5607 273.714 64.5218L267.986 62.7368Z" fill="black" stroke-width="6"/>
</g>
</svg>
