<svg width="309" height="133" fill="none" xmlns="http://www.w3.org/2000/svg">
  <path d="M14.4753 60.8752C28.9725 39.2292 33.1408 18.7725 23.6498 36.4077C14.19 53.9849 -4.08548 103.287 9.73406 88.7361C21.8543 75.9746 13.5929 71.3417 12.1708 72.0627C10.7487 72.7836 12.6197 72.8322 13.0045 72.7681C13.3893 72.704 20.8281 71.1649 26.8562 67.9585C32.8842 64.7521 36.3471 62.1577 38.1427 60.8752" stroke="#000"/>
  <path d="M113.096 67.7452C100.071 88.8083 57.7733 78.5346 78.0841 29.9792C95.8214 -12.4242 137.671 1.05409 137.671 46.6082C137.671 71.8284 123.394 104.901 102.473 121.438C83.7933 136.203 57.5753 128.089 58.1296 95.1086C58.573 68.7243 74.6401 48.4055 82.2155 42.3083" stroke="#000"/>
  <path d="M161.907 56.9685C162.15 56.8368 162.24 56.5333 162.108 56.2906C161.977 56.0479 161.673 55.9579 161.43 56.0896L161.907 56.9685ZM145.888 114.688L146.285 114.993L146.285 114.993L145.888 114.688ZM144.417 101.904L143.99 101.644L144.417 101.904ZM161.43 56.0896C156.328 58.858 153.109 62.2938 151.347 65.521C149.598 68.7262 149.259 71.7856 150.045 73.757C150.444 74.7561 151.148 75.5036 152.123 75.7778C153.09 76.0494 154.216 75.8262 155.407 75.1174C157.774 73.7084 160.6 70.2691 163.475 64.0427L162.567 63.6235C159.717 69.796 156.997 73.0069 154.895 74.2581C153.851 74.8794 153.012 74.9887 152.394 74.8151C151.785 74.644 151.286 74.1685 150.974 73.3867C150.34 71.7963 150.554 69.0619 152.225 66.0001C153.885 62.9603 156.955 59.6556 161.907 56.9685L161.43 56.0896ZM163.475 64.0427C164.189 62.4978 164.778 61.3056 165.254 60.4283C165.736 59.5389 166.084 59.008 166.311 58.7564C166.365 58.6962 166.401 58.6645 166.421 58.6502C166.444 58.6327 166.421 58.6568 166.358 58.668C166.275 58.6829 166.164 58.6661 166.073 58.5948C166.036 58.5653 166.013 58.5356 166.002 58.5171C165.996 58.5077 165.992 58.5002 165.99 58.4955C165.99 58.4954 165.987 58.4895 165.987 58.4901C165.988 58.491 165.986 58.4867 165.987 58.4882C165.987 58.4882 165.987 58.4902 165.988 58.4945C165.99 58.4988 165.991 58.5049 165.993 58.513C165.996 58.5295 165.999 58.5521 166.002 58.5817C166.008 58.6415 166.011 58.7206 166.009 58.8211C166.005 59.0228 165.981 59.2867 165.936 59.6136C165.571 62.2601 163.923 68.2604 161.621 75.447C159.325 82.6175 156.392 90.924 153.478 98.161C150.555 105.42 147.676 111.539 145.492 114.384L146.285 114.993C148.565 112.022 151.49 105.776 154.406 98.5345C157.331 91.2709 160.271 82.941 162.573 75.752C164.871 68.5791 166.548 62.4968 166.926 59.7502C166.974 59.403 167.003 59.0973 167.009 58.8425C167.014 58.602 167 58.3544 166.929 58.1541C166.893 58.0516 166.825 57.9132 166.69 57.8076C166.537 57.6874 166.353 57.6533 166.183 57.6835C166.034 57.71 165.913 57.7821 165.826 57.8461C165.735 57.9134 165.649 57.9968 165.568 58.0867C165.254 58.435 164.858 59.06 164.375 59.9515C163.885 60.8551 163.285 62.0687 162.567 63.6235L163.475 64.0427ZM145.492 114.384C144.417 115.784 143.573 116.668 142.929 117.157C142.251 117.671 141.947 117.639 141.849 117.594C141.729 117.539 141.536 117.311 141.432 116.64C141.335 116.013 141.342 115.161 141.439 114.157C141.633 112.157 142.174 109.663 142.828 107.402C143.486 105.13 144.241 103.154 144.844 102.164L143.99 101.644C143.314 102.755 142.529 104.84 141.868 107.124C141.203 109.421 140.646 111.979 140.444 114.061C140.343 115.098 140.328 116.046 140.444 116.793C140.553 117.496 140.808 118.217 141.433 118.503C142.079 118.799 142.815 118.499 143.533 117.954C144.284 117.384 145.192 116.417 146.285 114.993L145.492 114.384ZM144.844 102.164C148.117 96.7888 151.921 93.178 155.184 90.9964C156.816 89.905 158.307 89.1756 159.521 88.7604C160.762 88.3359 161.635 88.2675 162.076 88.3903L162.344 87.4269C161.598 87.2191 160.48 87.3756 159.197 87.8142C157.887 88.2622 156.319 89.0342 154.628 90.1651C151.243 92.428 147.338 96.1454 143.99 101.644L144.844 102.164Z" fill="#000"/>
  <path d="M178.713 66.6293L179.19 66.7781L178.713 66.6293ZM181.102 65.9247C183.517 65.1611 184.992 63.5702 185.729 61.925C186.452 60.3129 186.492 58.5766 185.92 57.5212C185.624 56.9733 185.124 56.5587 184.446 56.5577C183.804 56.5568 183.146 56.93 182.505 57.5895C181.22 58.913 179.737 61.6625 178.236 66.4806L179.19 66.7781C180.682 61.9922 182.109 59.4333 183.223 58.2861C183.782 57.7102 184.196 57.5574 184.444 57.5577C184.655 57.558 184.865 57.6718 185.041 57.9974C185.416 58.6888 185.461 60.0792 184.817 61.516C184.188 62.9196 182.925 64.2996 180.801 64.9712L181.102 65.9247ZM178.236 66.4806C177.154 69.9519 177.408 72.5798 178.938 74.1939C180.454 75.7934 183.046 76.2039 186.172 75.6862C192.452 74.6458 201.468 69.7763 210.52 61.4435L209.842 60.7077C200.858 68.9779 192.016 73.7044 186.008 74.6996C182.99 75.1997 180.831 74.738 179.664 73.506C178.51 72.2886 178.147 70.1258 179.19 66.7781L178.236 66.4806Z" fill="#000"/>
  <path d="M222.631 58.5523C216.16 55.0071 202.212 73.5019 208.246 79.1442C214.28 84.7866 243.041 61.1202 246.802 59.8663C249.811 58.8632 250.041 59.8663 249.78 60.4932C248.552 59.6051 244.843 59.7566 239.828 67.4678C233.558 77.1067 239.828 79.2226 250.485 75.7745C259.011 73.016 269.189 64.9078 273.211 61.1985" stroke="#000"/>
  <path d="M273.85 66.6293L274.327 66.7781L273.85 66.6293ZM276.24 65.9247C278.654 65.1611 280.129 63.5702 280.866 61.925C281.589 60.3129 281.629 58.5766 281.057 57.5212C280.761 56.9733 280.262 56.5587 279.583 56.5577C278.941 56.5568 278.283 56.93 277.643 57.5895C276.357 58.913 274.874 61.6625 273.373 66.4806L274.327 66.7781C275.819 61.9922 277.246 59.4333 278.36 58.2861C278.919 57.7102 279.333 57.5574 279.581 57.5577C279.792 57.558 280.002 57.6718 280.178 57.9974C280.553 58.6888 280.598 60.0792 279.954 61.516C279.325 62.9196 278.062 64.2996 275.938 64.9712L276.24 65.9247ZM273.373 66.4806C272.291 69.9519 272.545 72.5798 274.075 74.1939C275.591 75.7934 278.183 76.2039 281.309 75.6862C287.589 74.6458 296.605 69.7763 305.657 61.4435L304.979 60.7077C295.995 68.9779 287.153 73.7044 281.145 74.6996C278.127 75.1997 275.968 74.738 274.801 73.506C273.647 72.2886 273.284 70.1258 274.327 66.7781L273.373 66.4806Z" fill="#000"/>
</svg>
