<svg width="303" height="127" viewBox="0 0 303 127" fill="none" xmlns="http://www.w3.org/2000/svg">

<style>
    .letter {
    fill: none;
    stroke-width: 6px;
    stroke: black;
    stroke-dasharray: 2000;
    stroke-dashoffset: 2000;
    -webkit-animation: write 2s ease-out forwards;
    animation: write 2s ease-out forwards;
    }

    <defs>
        <style>

            .letter1 {
                animation-delay: 1000ms;
            }

            .letter2 {
                animation-delay: 1200ms;
            }

            .letter3 {
                animation-delay: 1550ms;
            }

            .letter4 {
                animation-delay: 1750ms;
            }

            .letter5 {
                animation-delay: 1850ms;
            }

            .letter6 {
                animation-delay: 1950ms;
            }

            @-webkit-keyframes write {
                0% {
                    stroke-dashoffset: 2000;
                }

                100% {
                    stroke-dashoffset: 0;
                }
            }
        </style>
    </defs>
</style>




<mask id="mask0" mask-type="alpha" maskUnits="userSpaceOnUse" x="0" y="0" width="303" height="127">
<path d="M33.9062 58.2188C34.0625 58.0625 34.2187 58.0156 34.375 58.0781C34.5312 58.1406 34.625 58.25 34.6562 58.4063C34.7187 58.5625 34.6719 58.7031 34.5156 58.8281C31.6719 60.9844 28.6719 62.8594 25.5156 64.4531C22.3594 66.0469 19.1562 67.4688 15.9062 68.7188C15.1875 68.9688 14.4375 69.25 13.6562 69.5625C13.625 69.5625 13.6094 69.5625 13.6094 69.5625C14.2344 70.5 14.6406 71.5 14.8281 72.5625C14.7969 74.9375 14.1719 77.2188 12.9531 79.4063C11.7656 81.5938 10.3437 83.5781 8.68749 85.3594C8.65624 85.3906 8.60936 85.4375 8.54686 85.5C8.01561 86.0313 7.29686 86.6875 6.39061 87.4688C5.45311 88.25 4.53124 88.8594 3.62499 89.2969C2.68749 89.7344 1.95311 89.6719 1.42186 89.1094C0.359362 86.9219 0.374987 83.2813 1.46874 78.1875C2.56249 73.0938 4.23436 67.4844 6.48436 61.3594C8.70311 55.2344 10.9687 49.5313 13.2812 44.25C15.625 38.9688 17.4687 35.0469 18.8125 32.4844C19.0937 32.0156 19.3594 31.5469 19.6094 31.0781C20.2656 29.8281 20.9844 28.625 21.7656 27.4688C22.5469 26.2813 23.5156 25.25 24.6719 24.375C25.2656 23.9375 25.8437 23.875 26.4062 24.1875C26.9687 24.5 27.2187 25 27.1562 25.6875C26.4687 29.125 25.5781 32.4844 24.4844 35.7656C22.2344 41.9844 19.25 47.875 15.5312 53.4375C15.5 53.5 15.4219 53.6094 15.2969 53.7656C14.9531 54.2656 14.3906 55.0781 13.6094 56.2031C12.8594 57.2969 12.0625 58.375 11.2187 59.4375C10.1875 62.1563 9.18749 64.8906 8.21874 67.6406C8.31249 67.6094 8.40624 67.5781 8.49999 67.5469C9.68749 67.2031 10.75 67.2969 11.6875 67.8281C15.2187 67.6719 19.25 66.5469 23.7812 64.4531C28.3125 62.3281 31.6875 60.25 33.9062 58.2188ZM24.1562 30.6563C22.6562 33.1563 21.3281 35.75 20.1719 38.4375C19.6719 39.5 19.1562 40.5625 18.625 41.625C16.4687 46.4375 14.4375 51.2813 12.5312 56.1563C17.375 49.8125 20.9062 42.9063 23.125 35.4375C23.1875 35.1875 23.25 34.9219 23.3125 34.6406C23.7187 33.3281 24 32 24.1562 30.6563ZM9.57811 71.0156L9.53124 70.9688C9.28124 71.0313 9.01561 71.0938 8.73436 71.1563C8.04686 71.0938 7.57811 70.7969 7.32811 70.2656C7.01561 71.1719 6.71874 72.0938 6.43749 73.0313C6.06249 74.2813 5.67186 75.5313 5.26561 76.7813C4.67186 78.5313 4.15624 80.2813 3.71874 82.0313C3.28124 83.8125 3.04686 85.5938 3.01561 87.375C5.04686 86 6.76561 84.2969 8.17186 82.2656C9.57811 80.2344 10.6094 78.0781 11.2656 75.7969C11.4844 75.0156 11.5781 74.25 11.5469 73.5C11.4531 73 11.2031 72.4844 10.7969 71.9531C10.4219 71.4219 10.0156 71.1094 9.57811 71.0156Z" fill="white"/>
<path d="M135.479 33.0469C136.979 43.2656 136.651 53.4375 134.494 63.5625C132.338 73.6563 128.822 83.2188 123.947 92.25C121.072 97.5938 117.744 102.656 113.963 107.438C110.182 112.219 105.807 116.375 100.838 119.906C96.8694 122.75 92.51 124.781 87.76 126C83.01 127.219 78.26 127.125 73.51 125.719C67.8225 123.75 63.4475 120.75 60.385 116.719C57.3225 112.688 55.3069 108.063 54.3381 102.844C53.4006 97.625 53.2444 92.2656 53.8694 86.7656C54.4944 81.2969 55.635 76.125 57.2912 71.25C59.7287 63.1875 63.2756 55.6563 67.9319 48.6563C68.3381 48.0938 68.7444 47.5469 69.1506 47.0156C69.6819 39.9219 71.3069 33 74.0256 26.25C76.7756 19.4688 80.6194 13.5156 85.5569 8.39064C89.4631 4.48439 94.1194 1.92189 99.5256 0.703141C103.276 0.0156413 107.041 0.0312663 110.822 0.750016C114.604 1.43752 118.072 2.90627 121.229 5.15627C125.572 8.50002 128.838 12.6563 131.026 17.625C133.213 22.5938 134.697 27.7344 135.479 33.0469ZM131.213 57.4688C132.213 52.0938 132.588 46.25 132.338 39.9375C132.119 33.5938 131.01 27.5625 129.01 21.8438C127.041 16.125 123.932 11.5156 119.682 8.01564C115.463 4.48439 109.869 2.84377 102.901 3.09377C98.2444 3.43752 94.0569 4.95314 90.3381 7.64064C86.6506 10.2969 83.4631 13.7031 80.7756 17.8594C78.0881 21.9844 75.9162 26.4063 74.26 31.125C72.635 35.8125 71.5412 40.3438 70.9787 44.7188C72.6662 42.75 74.5412 40.9375 76.6037 39.2813C76.9787 39 77.385 38.8906 77.8225 38.9531C78.26 38.9844 78.6194 39.1875 78.9006 39.5625C79.1819 39.9375 79.2912 40.3438 79.2287 40.7813C79.1975 41.2188 78.9944 41.5781 78.6194 41.8594C75.5881 44.3906 72.9162 47.2656 70.6037 50.4844C70.7287 54.0469 71.4475 57.6406 72.76 61.2656C74.1037 64.8594 75.8537 67.9375 78.01 70.5C80.6662 73.6875 84.01 75.6094 88.0412 76.2656C92.0725 76.7031 95.8694 75.9375 99.4319 73.9688C103.026 72 105.635 69.1563 107.26 65.4375C107.635 64.7188 108.135 64.375 108.76 64.4063C109.385 64.4375 109.869 64.7188 110.213 65.25C110.588 65.75 110.572 66.3438 110.166 67.0313C107.572 70.5625 104.307 73.2969 100.369 75.2344C96.4319 77.1719 92.2756 77.9375 87.9006 77.5313C84.6506 77.0938 81.7912 75.8125 79.3225 73.6875C76.885 71.5313 74.9319 69.0313 73.4631 66.1875C71.2131 61.875 69.7912 57.3281 69.1975 52.5469C66.1037 57.2969 63.5725 62.375 61.6037 67.7813C59.6662 73.1875 58.1819 78.5625 57.1506 83.9063C56.3694 88.0625 56.0412 92.3438 56.1662 96.75C56.3225 101.188 57.1819 105.391 58.7444 109.359C60.3069 113.359 62.8381 116.766 66.3381 119.578C70.2444 122.516 74.2131 124.141 78.2444 124.453C82.3069 124.766 86.26 124.063 90.1037 122.344C93.9787 120.625 97.5725 118.188 100.885 115.031C108.76 107.469 115.307 98.6719 120.526 88.6406C125.744 78.6094 129.307 68.2188 131.213 57.4688Z" fill="white"/>
<path d="M161.468 54.6563C161.843 54.0625 162.327 53.75 162.921 53.7188C163.546 53.6563 164.062 53.8281 164.468 54.2344C164.906 54.6094 165.046 55.1406 164.89 55.8281C162.702 65.3281 160.124 74.75 157.156 84.0938C157.656 84.0313 158.077 84.0469 158.421 84.1406C158.796 84.2344 158.999 84.5156 159.031 84.9844C158.968 85.1719 158.859 85.3281 158.702 85.4531C158.546 85.5781 158.374 85.625 158.187 85.5938C157.687 85.5 157.187 85.4688 156.687 85.5C154.812 91.1563 152.562 96.7031 149.937 102.141C147.499 107.109 144.656 111.891 141.406 116.484C141.031 116.984 140.562 117.25 139.999 117.281C139.406 117.344 138.89 117.172 138.452 116.766C137.734 115.953 137.296 114.469 137.14 112.313C136.952 110.188 137.156 108.078 137.749 105.984C138.843 102.109 140.702 98.25 143.327 94.4063C145.921 90.5625 149.077 87.6094 152.796 85.5469C155.077 78.8594 157.062 72.0938 158.749 65.25C157.593 67.0938 156.281 68.8125 154.812 70.4063C152.781 72.5625 150.812 73.4844 148.906 73.1719C146.968 72.8594 146.046 71.1719 146.14 68.1094C146.515 65.7031 147.312 63.4219 148.531 61.2656C149.749 59.1094 151.265 57.1563 153.077 55.4063C154.984 53.7188 156.593 52.75 157.906 52.5C159.218 52.25 160.171 52.3906 160.765 52.9219C161.359 53.4531 161.531 54.0781 161.281 54.7969C161.031 55.4844 160.312 55.9375 159.124 56.1563C157.687 56.4688 156.156 57.5469 154.531 59.3906C152.937 61.2031 151.671 63.2031 150.734 65.3906C149.765 67.5469 149.546 69.2813 150.077 70.5938L149.843 70.5C151.031 71 152.171 70.7188 153.265 69.6563C154.39 68.5938 155.406 67.2344 156.312 65.5781C157.249 63.9219 158.015 62.4375 158.609 61.125C158.827 60.6563 159.031 60.25 159.218 59.9063C159.624 58.9688 160.031 58.0156 160.437 57.0469C160.781 56.2656 161.124 55.4688 161.468 54.6563ZM139.577 112.828C144.921 104.766 149.14 96.2344 152.234 87.2344C148.952 89.2969 146.202 92.0938 143.984 95.625C141.734 99.1875 140.202 102.719 139.39 106.219C139.359 106.25 139.343 106.297 139.343 106.359C139.187 107.328 139.077 108.422 139.015 109.641C138.952 110.859 139.14 111.922 139.577 112.828Z" fill="white"/>
<path d="M207.098 58.125C207.411 58.5 207.364 58.9219 206.957 59.3906C206.582 59.8594 206.129 60.3125 205.598 60.75C205.223 61.0625 204.957 61.3125 204.801 61.5C203.614 62.5625 201.645 63.9688 198.895 65.7188C196.145 67.4688 193.129 69.0938 189.848 70.5938C186.567 72.0938 183.567 73 180.848 73.3125C178.129 73.625 176.223 72.8906 175.129 71.1094C174.098 68.4844 173.879 65.75 174.473 62.9063C175.036 60.0313 176.161 57.4844 177.848 55.2656C178.848 54.0781 180.051 53.4219 181.457 53.2969C182.864 53.1719 183.739 54.0156 184.082 55.8281C184.301 56.7344 184.036 57.7344 183.286 58.8281C182.536 59.8906 181.598 60.875 180.473 61.7813C179.379 62.6875 178.426 63.3125 177.614 63.6563C177.239 65.625 177.129 67.2969 177.286 68.6719C177.536 70.6719 178.723 71.6406 180.848 71.5781C183.004 71.5156 185.504 70.9063 188.348 69.75C191.223 68.5625 193.895 67.2656 196.364 65.8594C198.832 64.4531 200.536 63.3906 201.473 62.6719C203.254 61.4219 204.832 59.9531 206.207 58.2656C206.332 58.1094 206.473 58.0313 206.629 58.0313C206.817 58 206.973 58.0313 207.098 58.125ZM181.176 56.8125C179.77 57.7813 178.754 59.375 178.129 61.5938C178.911 60.875 179.629 60.0781 180.286 59.2031C180.942 58.2969 181.239 57.5 181.176 56.8125Z" fill="white"/>
<path d="M269.369 58.2656C269.525 58.1094 269.681 58.0625 269.837 58.125C270.025 58.1563 270.15 58.25 270.212 58.4063C270.306 58.5625 270.275 58.7344 270.119 58.9219C267.775 61.2344 264.681 63.7031 260.837 66.3281C256.994 68.9219 252.978 71.0781 248.791 72.7969C244.603 74.5156 240.837 75.2188 237.494 74.9063C235.431 74.5938 234.119 73.8125 233.556 72.5625C232.994 71.2813 232.931 69.7813 233.369 68.0625C233.837 66.3438 234.556 64.6719 235.525 63.0469C232.806 65.4219 229.744 67.75 226.337 70.0313C222.931 72.2813 219.494 74.1094 216.025 75.5156C212.556 76.9531 209.384 77.5938 206.509 77.4375C204.291 77.0625 202.994 76.0313 202.619 74.3438C202.244 72.625 202.447 70.6406 203.228 68.3906C204.009 66.1406 204.994 64.0156 206.181 62.0156C207.369 60.0156 208.416 58.5 209.322 57.4688C210.447 56.0938 211.853 54.8594 213.541 53.7656C215.228 52.6406 216.994 52.5313 218.837 53.4375C219.462 53.9688 219.728 54.5469 219.634 55.1719C219.572 55.7969 219.259 56.2813 218.697 56.625C218.166 56.9688 217.541 56.9688 216.822 56.625C216.291 56.625 215.775 56.7969 215.275 57.1406C214.775 57.4844 214.306 57.8594 213.869 58.2656C213.744 58.3594 213.634 58.4531 213.541 58.5469C210.197 61.9219 207.681 65.8281 205.994 70.2656C205.931 70.4219 205.869 70.5938 205.806 70.7813C205.65 71.3125 205.494 71.9375 205.337 72.6563C205.181 73.3438 205.119 73.9844 205.15 74.5781C205.181 75.1406 205.416 75.5313 205.853 75.75C207.978 76.3438 210.15 76.2969 212.369 75.6094C214.587 74.9219 216.666 74.0781 218.603 73.0781C224.916 69.7969 230.744 65.8281 236.087 61.1719C236.837 60.5156 237.556 59.8438 238.244 59.1563C238.4 59 238.541 58.8594 238.666 58.7344C239.791 57.4531 241.166 56.4375 242.791 55.6875C244.416 54.9063 246.056 54.9688 247.712 55.875C248.337 56.375 248.603 56.9531 248.509 57.6094C248.447 58.2344 248.134 58.7188 247.572 59.0625C247.041 59.4063 246.416 59.4063 245.697 59.0625C244.728 58.875 243.65 59.2813 242.462 60.2813C241.306 61.2813 240.244 62.4531 239.275 63.7969C238.306 65.1406 237.634 66.2344 237.259 67.0781C236.978 67.5781 236.697 68.2656 236.416 69.1406C236.134 70.0156 235.994 70.8594 235.994 71.6719C235.994 72.4531 236.306 72.9844 236.931 73.2656C239.212 73.8281 241.494 73.8281 243.775 73.2656C246.087 72.6719 248.322 71.9219 250.478 71.0156C256.384 68.4531 261.775 65.0781 266.65 60.8906C267.65 60.0781 268.556 59.2031 269.369 58.2656Z" fill="white"/>
<path d="M302.202 58.125C302.514 58.5 302.467 58.9219 302.061 59.3906C301.686 59.8594 301.233 60.3125 300.702 60.75C300.327 61.0625 300.061 61.3125 299.905 61.5C298.717 62.5625 296.749 63.9688 293.999 65.7188C291.249 67.4688 288.233 69.0938 284.952 70.5938C281.671 72.0938 278.671 73 275.952 73.3125C273.233 73.625 271.327 72.8906 270.233 71.1094C269.202 68.4844 268.983 65.75 269.577 62.9063C270.139 60.0313 271.264 57.4844 272.952 55.2656C273.952 54.0781 275.155 53.4219 276.561 53.2969C277.967 53.1719 278.842 54.0156 279.186 55.8281C279.405 56.7344 279.139 57.7344 278.389 58.8281C277.639 59.8906 276.702 60.875 275.577 61.7813C274.483 62.6875 273.53 63.3125 272.717 63.6563C272.342 65.625 272.233 67.2969 272.389 68.6719C272.639 70.6719 273.827 71.6406 275.952 71.5781C278.108 71.5156 280.608 70.9063 283.452 69.75C286.327 68.5625 288.999 67.2656 291.467 65.8594C293.936 64.4531 295.639 63.3906 296.577 62.6719C298.358 61.4219 299.936 59.9531 301.311 58.2656C301.436 58.1094 301.577 58.0313 301.733 58.0313C301.921 58 302.077 58.0313 302.202 58.125ZM276.28 56.8125C274.874 57.7813 273.858 59.375 273.233 61.5938C274.014 60.875 274.733 60.0781 275.389 59.2031C276.046 58.2969 276.342 57.5 276.28 56.8125Z" fill="white"/>
</mask>
<g mask="url(#mask0)">
<path class="letter letter1" d="M11.5211 57.9C26.0211 36.2 30.1211 15.8 20.6211 33.4C11.2211 51 -7.07891 100.3 6.72109 85.7C18.8211 72.9 10.6211 68.3 9.12109 69C7.72109 69.7 9.52109 69.8 9.92109 69.7C10.3211 69.6 17.7211 68.1 23.8211 64.9C29.8211 61.7 33.3211 59.1 35.1211 57.8"/>
<path class="letter letter2" d="M110.121 64.7C97.1211 85.8 54.8211 75.5 75.1211 26.9C92.8211 -15.5 134.721 -1.99998 134.721 43.5C134.721 68.7 120.421 101.8 99.5211 118.3C80.8211 133.1 54.6211 125 55.2211 92C55.6211 65.6 71.7211 45.3 79.3211 39.2"/>
<path class="letter letter3" d="M158.721 53.5C138.621 64.4 148.621 85.6 160.121 60.8C171.621 36 151.921 100 143.021 111.7C134.321 123 139.021 103.1 141.521 98.9C148.121 88 156.921 84.2 159.321 84.9" stroke-linecap="round"/>
<path class="letter letter4" d="M177.821 62.5C185.921 60.7 182.821 45.4 176.621 60.6C168.821 79.8 191.621 73.2 207.121 58.1" stroke-miterlimit="10"/>
<path class="letter letter5" d="M219.621 55.6C213.121 52.1 199.221 70.5 205.221 76.2C211.221 81.8 240.021 58.2 243.821 56.9C246.821 55.9 247.021 56.9 246.821 57.5C245.621 56.6 241.921 56.8 236.821 64.5C230.521 74.1 236.821 76.3 247.521 72.8C256.021 70 266.221 61.9 270.221 58.2"/>
<path class="letter letter6" d="M273.121 62.5C281.221 60.7 278.121 45.4 271.921 60.6C264.121 79.8 286.921 73.2 302.421 58.1" stroke-miterlimit="10"/>
</g>
</svg>
