<svg width="8" height="42" viewBox="0 0 8 42" fill="none" xmlns="http://www.w3.org/2000/svg">
<mask maskUnits="userSpaceOnUse" x="0" y="0" width="0" height="0" fill="black">
<rect fill="white" width="0" height="0"/>
</mask>
<path d="M3.64645 41.8536C3.84171 42.0488 4.15829 42.0488 4.35355 41.8536L7.53553 38.6716C7.7308 38.4763 7.7308 38.1597 7.53553 37.9645C7.34027 37.7692 7.02369 37.7692 6.82843 37.9645L4 40.7929L1.17157 37.9645C0.976311 37.7692 0.659728 37.7692 0.464466 37.9645C0.269204 38.1597 0.269204 38.4763 0.464466 38.6716L3.64645 41.8536ZM4.35355 0.146446C4.15829 -0.0488167 3.84171 -0.0488167 3.64645 0.146446L0.464466 3.32843C0.269204 3.52369 0.269204 3.84027 0.464466 4.03553C0.659728 4.2308 0.976311 4.2308 1.17157 4.03553L4 1.20711L6.82843 4.03553C7.02369 4.2308 7.34027 4.2308 7.53553 4.03553C7.7308 3.84027 7.7308 3.52369 7.53553 3.32843L4.35355 0.146446ZM4.5 41.5L4.5 0.5H3.5L3.5 41.5H4.5Z" fill="#681D82" mask="url(#)"/>
</svg>
