<svg width="8" height="130" viewBox="0 0 8 130" fill="none" xmlns="http://www.w3.org/2000/svg">
<mask maskUnits="userSpaceOnUse" x="0" y="0" width="0" height="0" fill="black">
<rect fill="white" width="0" height="0"/>
</mask>
<path d="M3.64645 129.854C3.84171 130.049 4.15829 130.049 4.35355 129.854L7.53553 126.672C7.7308 126.476 7.7308 126.16 7.53553 125.964C7.34027 125.769 7.02369 125.769 6.82843 125.964L4 128.793L1.17157 125.964C0.976311 125.769 0.659728 125.769 0.464466 125.964C0.269204 126.16 0.269204 126.476 0.464466 126.672L3.64645 129.854ZM4.35356 0.146454C4.1583 -0.0488129 3.84171 -0.0488129 3.64645 0.146454L0.464472 3.32843C0.26921 3.52369 0.26921 3.84027 0.464472 4.03554C0.659734 4.2308 0.976316 4.2308 1.17158 4.03554L4.00001 1.20711L6.82843 4.03554C7.02369 4.2308 7.34028 4.2308 7.53554 4.03554C7.7308 3.84027 7.7308 3.52369 7.53554 3.32843L4.35356 0.146454ZM4.5 129.5L4.50001 0.5L3.50001 0.5L3.5 129.5L4.5 129.5Z" fill="#681D82" mask="url(#)"/>
</svg>
