<svg width="49" height="9" viewBox="0 0 49 9" fill="none" xmlns="http://www.w3.org/2000/svg">
<mask maskUnits="userSpaceOnUse" x="0" y="0" width="0" height="0" fill="black">
<rect fill="white" width="0" height="0"/>
</mask>
<path d="M0.646447 4.14645C0.451184 4.34171 0.451184 4.65829 0.646447 4.85355L3.82843 8.03553C4.02369 8.2308 4.34027 8.2308 4.53553 8.03553C4.7308 7.84027 4.7308 7.52369 4.53553 7.32843L1.70711 4.5L4.53553 1.67157C4.7308 1.47631 4.7308 1.15973 4.53553 0.964466C4.34027 0.769204 4.02369 0.769204 3.82843 0.964466L0.646447 4.14645ZM48.3536 4.85355C48.5488 4.65829 48.5488 4.34171 48.3536 4.14645L45.1716 0.964466C44.9763 0.769204 44.6597 0.769204 44.4645 0.964466C44.2692 1.15973 44.2692 1.47631 44.4645 1.67157L47.2929 4.5L44.4645 7.32843C44.2692 7.52369 44.2692 7.84027 44.4645 8.03553C44.6597 8.2308 44.9763 8.2308 45.1716 8.03553L48.3536 4.85355ZM1 5L48 5V4L1 4V5Z" fill="#681D82" mask="url(#)"/>
</svg>
