<svg width="131" height="9" viewBox="0 0 131 9" fill="none" xmlns="http://www.w3.org/2000/svg">
<mask maskUnits="userSpaceOnUse" x="0" y="0" width="0" height="0" fill="black">
<rect fill="white" width="0" height="0"/>
</mask>
<path d="M0.646447 4.14645C0.451185 4.34171 0.451184 4.65829 0.646447 4.85355L3.82843 8.03553C4.02369 8.2308 4.34027 8.2308 4.53553 8.03553C4.7308 7.84027 4.7308 7.52369 4.53553 7.32843L1.70711 4.5L4.53553 1.67157C4.7308 1.47631 4.7308 1.15973 4.53553 0.964466C4.34027 0.769204 4.02369 0.769204 3.82843 0.964466L0.646447 4.14645ZM130.354 4.85356C130.549 4.6583 130.549 4.34172 130.354 4.14646L127.172 0.964477C126.976 0.769215 126.66 0.769215 126.464 0.964477C126.269 1.15974 126.269 1.47632 126.464 1.67158L129.293 4.50001L126.464 7.32844C126.269 7.5237 126.269 7.84028 126.464 8.03554C126.66 8.23081 126.976 8.23081 127.172 8.03554L130.354 4.85356ZM1 5L130 5.00001L130 4.00001L1 4L1 5Z" fill="#681D82" mask="url(#)"/>
</svg>
