<svg width="200" height="200" viewBox="0 0 200 200" fill="none" xmlns="http://www.w3.org/2000/svg">
<path d="M157.695 46.6797H42.3046C35.5282 46.6797 29.9999 52.202 29.9999 58.9844V141.016C29.9999 147.775 35.5036 153.32 42.3046 153.32H157.695C164.455 153.32 170 147.817 170 141.016V58.9844C170 52.225 164.496 46.6797 157.695 46.6797ZM155.996 54.8828L100.261 110.618L44.0434 54.8828H155.996ZM38.203 139.317V60.6439L77.709 99.8111L38.203 139.317ZM44.0034 145.117L83.5343 105.586L97.3859 119.319C98.9893 120.909 101.577 120.904 103.174 119.306L116.68 105.8L155.996 145.117H44.0034ZM161.797 139.317L122.48 100L161.797 60.683V139.317Z" fill="white"/>
</svg>
