<svg width="24" height="24" viewBox="0 0 24 24" fill="none" xmlns="http://www.w3.org/2000/svg">
<rect width="24" height="24" fill="#D1583D"/>
<mask id="mask0_1291_7055" style="mask-type:alpha" maskUnits="userSpaceOnUse" x="0" y="0" width="24" height="24">
<rect width="24" height="24" fill="#D1583D"/>
</mask>
<g mask="url(#mask0_1291_7055)">
<path d="M29 12C29 14.9841 28.2145 17.9157 26.7224 20.5L12 12H29Z" fill="#64C768"/>
<path d="M26.7224 20.5C25.2304 23.0843 23.0843 25.2304 20.5 26.7224L12 12L26.7224 20.5Z" fill="#0088CC"/>
<path d="M12 29C9.01588 29 6.08433 28.2145 3.5 26.7224L12 12L12 29Z" fill="#64C768"/>
<path d="M3.5 26.7224C0.915674 25.2304 -1.23037 23.0843 -2.72243 20.5L12 12L3.5 26.7224Z" fill="#0088CC"/>
<path d="M12 -5C14.9841 -5 17.9157 -4.21449 20.5 -2.72243L12 12L12 -5Z" fill="#64C768"/>
<path d="M20.5 -2.72243C23.0843 -1.23037 25.2304 0.915672 26.7224 3.5L12 12L20.5 -2.72243Z" fill="#0088CC"/>
<path d="M-5 12C-5 9.01588 -4.21449 6.08433 -2.72243 3.5L12 12L-5 12Z" fill="#64C768"/>
<path d="M-2.72243 3.5C-1.23037 0.915675 0.91567 -1.23037 3.49999 -2.72243L12 12L-2.72243 3.5Z" fill="#0088CC"/>
</g>
</svg>
