<svg width="200" height="200" viewBox="0 0 200 200" fill="none" xmlns="http://www.w3.org/2000/svg">
<path d="M163.253 64.4682L163.213 64.3102C160.018 51.3947 145.615 37.5357 132.388 34.6524L132.239 34.6217C110.844 30.5403 89.1518 30.5403 67.762 34.6217L67.6084 34.6524C54.3856 37.5357 39.9824 51.3947 36.7831 64.3102L36.748 64.4682C32.7983 82.5052 32.7983 100.797 36.748 118.834L36.7831 118.992C39.8459 131.356 53.1766 144.578 65.91 148.215V162.632C65.91 167.85 72.269 170.413 75.8852 166.647L90.4925 151.463C93.6606 151.641 96.8304 151.739 100 151.739C110.77 151.739 121.544 150.721 132.239 148.681L132.388 148.65C145.615 145.767 160.018 131.908 163.213 118.992L163.253 118.834C167.202 100.797 167.202 82.5052 163.253 64.4682ZM151.693 116.218C149.56 124.644 138.624 135.12 129.935 137.055C118.559 139.218 107.093 140.143 95.6394 139.825C95.4116 139.819 95.1926 139.907 95.0337 140.071C93.4082 141.739 84.3682 151.019 84.3682 151.019L73.0238 162.662C72.1944 163.527 70.7374 162.939 70.7374 161.745V137.862C70.7374 137.467 70.4556 137.132 70.0681 137.056C70.0659 137.055 70.0637 137.055 70.0616 137.054C61.3722 135.119 50.4403 124.644 48.3031 116.218C44.7484 99.9141 44.7484 83.3869 48.3031 67.0834C50.4403 58.6574 61.3722 48.1819 70.0616 46.2465C89.9285 42.468 110.072 42.468 129.935 46.2465C138.628 48.1819 149.56 58.6574 151.693 67.0834C155.252 83.3873 155.252 99.9146 151.693 116.218Z" fill="#681D82"/>
<path d="M118.902 127.243C117.566 126.837 116.293 126.565 115.111 126.074C102.86 120.991 91.5847 114.434 82.6536 104.382C77.5747 98.6656 73.5995 92.2123 70.2392 85.3828C68.6457 82.144 67.3028 78.7785 65.934 75.4348C64.6859 72.3857 66.5243 69.2356 68.4601 66.9382C70.2765 64.7821 72.6139 63.132 75.1452 61.9159C77.1209 60.9667 79.0699 61.5139 80.5128 63.1886C83.6322 66.8091 86.4975 70.6149 88.8177 74.8117C90.2444 77.393 89.853 80.5484 87.2672 82.3051C86.6388 82.7321 86.0661 83.2333 85.4807 83.7156C84.9672 84.1382 84.484 84.5652 84.1321 85.1375C83.4887 86.1846 83.458 87.4195 83.8723 88.5579C87.061 97.321 92.4356 104.135 101.256 107.805C102.667 108.392 104.085 109.076 105.711 108.887C108.434 108.568 109.315 105.582 111.223 104.021C113.089 102.496 115.472 102.476 117.481 103.747C119.491 105.019 121.439 106.384 123.375 107.764C125.276 109.118 127.168 110.443 128.921 111.987C130.607 113.472 131.187 115.419 130.238 117.434C128.5 121.124 125.972 124.194 122.324 126.153C121.294 126.706 120.064 126.885 118.902 127.243C120.064 126.885 117.566 126.837 118.902 127.243Z" fill="#681D82"/>
<path d="M100.034 57.6967C116.058 58.1457 129.22 68.7805 132.041 84.6231C132.521 87.3225 132.692 90.0825 132.906 92.8223C132.996 93.9747 132.343 95.0697 131.1 95.0846C129.815 95.0999 129.237 94.0252 129.154 92.8732C128.989 90.5929 128.874 88.3025 128.56 86.0411C126.901 74.1038 117.382 64.2278 105.5 62.1085C103.713 61.7895 101.883 61.7057 100.071 61.5157C98.9264 61.3954 97.4268 61.3261 97.1732 59.9029C96.9603 58.7096 97.9675 57.7595 99.1037 57.6985C99.4126 57.6814 99.7233 57.6954 100.034 57.6967C99.7233 57.6954 116.058 58.1457 100.034 57.6967Z" fill="#681D82"/>
<path d="M124.387 89.2662C124.36 89.4663 124.346 89.9367 124.229 90.38C123.804 91.9888 121.365 92.1903 120.803 90.5665C120.637 90.0846 120.612 89.5365 120.611 89.0178C120.605 85.6237 119.867 82.2331 118.156 79.28C116.396 76.2449 113.708 73.6934 110.556 72.1495C108.649 71.216 106.587 70.6359 104.498 70.2901C103.585 70.1391 102.662 70.0474 101.744 69.9197C100.632 69.7652 100.038 69.0564 100.091 67.9606C100.14 66.9337 100.891 66.1951 102.01 66.2583C105.687 66.4672 109.239 67.262 112.509 68.9932C119.158 72.5142 122.955 78.0718 124.064 85.4929C124.114 85.829 124.195 86.1621 124.22 86.4996C124.283 87.333 124.323 88.1673 124.387 89.2662C124.323 88.1673 124.36 89.4663 124.387 89.2662Z" fill="#681D82"/>
<path d="M114.419 88.8782C113.079 88.9024 112.361 88.1603 112.223 86.931C112.127 86.0739 112.051 85.2054 111.846 84.3716C111.443 82.7294 110.571 81.2075 109.189 80.2012C108.537 79.7259 107.798 79.3796 107.024 79.1563C106.04 78.8723 105.019 78.9504 104.038 78.7099C102.972 78.4488 102.383 77.586 102.55 76.5863C102.703 75.6766 103.588 74.9665 104.582 75.0385C110.795 75.487 115.235 78.699 115.869 86.0129C115.914 86.529 115.966 87.0745 115.852 87.5682C115.656 88.4135 115.03 88.837 114.419 88.8782C115.03 88.837 113.079 88.9024 114.419 88.8782Z" fill="#681D82"/>
</svg>
