<svg xmlns="http://www.w3.org/2000/svg" viewBox="0 0 147.68 191.74"><defs><style>.cls-1{fill:#e8505b;}.cls-2{opacity:0.6;}.cls-3{fill:#fff;}.cls-4{fill:#263238;}.cls-5{opacity:0.3;}.cls-6{fill:#455a64;}.cls-7{fill:#ffbe9d;}.cls-8{fill:#eb996e;}.cls-9{fill:#fafafa;}</style></defs><g id="Layer_2" data-name="Layer 2"><g id="Character"><path class="cls-1" d="M120.32,171.78l11.82,4.14L132,187.29c-5.66,1.59-6.45,4.45-6.45,4.45l11.83-.27,10.29-20.92-8.15-5.33-15.21-6.65"/><g class="cls-2"><polygon class="cls-3" points="147.68 170.55 137.38 191.47 125.56 191.74 126.85 189.94 136.46 189.19 145.94 169.42 147.68 170.55"/></g><path class="cls-4" d="M132,182.08c.09.12.76-.28,1.68-.28s1.59.37,1.68.25-.57-.78-1.69-.77S131.86,182,132,182.08Z"/><path class="cls-4" d="M132.1,179.26c.12.08.63-.63,1.57-.83s1.7.21,1.77.08-.1-.25-.44-.42a2.21,2.21,0,0,0-2.69.6C132.08,179,132,179.23,132.1,179.26Z"/><path class="cls-4" d="M131.94,175.65c.13.06.52-.63,1.33-.94s1.57-.05,1.62-.18-.12-.23-.45-.34a2,2,0,0,0-1.35,0,2,2,0,0,0-1,.86C131.88,175.4,131.88,175.62,131.94,175.65Z"/><path class="cls-4" d="M131.07,175.64c.14,0,.05-.78.41-1.58s.93-1.26.86-1.39-.92.19-1.34,1.18S130.94,175.7,131.07,175.64Z"/><path class="cls-4" d="M129.67,174.31a5.33,5.33,0,0,0,.28-1.59c.05-.57.1-1.15.16-1.73a3.77,3.77,0,0,0,0-1.11.92.92,0,0,0-.42-.58.73.73,0,0,0-.8,0,2.11,2.11,0,0,0-.67,1,3.78,3.78,0,0,0-.22,1.07,3.93,3.93,0,0,0,.32,1.79c.42,1,1,1.31,1,1.26a12.68,12.68,0,0,1-.69-1.39,4.14,4.14,0,0,1-.18-1.63,3.58,3.58,0,0,1,.22-.93,1.8,1.8,0,0,1,.48-.79.23.23,0,0,1,.25,0,.49.49,0,0,1,.19.28,4.11,4.11,0,0,1,0,.94c0,.59,0,1.16,0,1.74A5.16,5.16,0,0,0,129.67,174.31Z"/><path class="cls-4" d="M129.48,174.82s-.31-.55-1.22-.84a2.94,2.94,0,0,0-3.35,1.19.54.54,0,0,0,0,.46.73.73,0,0,0,.31.26,1.78,1.78,0,0,0,.55.11,6.28,6.28,0,0,0,1,0,5.29,5.29,0,0,0,1.56-.4c.85-.38,1.24-.81,1.2-.85s-.51.24-1.33.5a5.93,5.93,0,0,1-1.47.27,6.64,6.64,0,0,1-.88,0,1.27,1.27,0,0,1-.39-.08c-.11-.06-.08,0-.08-.08a1.22,1.22,0,0,1,.24-.28l.34-.28a3.27,3.27,0,0,1,.76-.36,2.84,2.84,0,0,1,1.43-.08A11.81,11.81,0,0,1,129.48,174.82Z"/><g class="cls-2"><path class="cls-3" d="M138.23,170.4a1.41,1.41,0,1,0,1.38-1.43A1.4,1.4,0,0,0,138.23,170.4Z"/></g><path class="cls-1" d="M59.67,167l.16,15.49s-15.68,5.36-15.93,8.23l30,.76.74-24.13Z"/><g class="cls-2"><path class="cls-3" d="M69.15,181.44a1.23,1.23,0,0,1,.82,1.42,1.18,1.18,0,0,1-1.41.82,1.29,1.29,0,0,1-.85-1.51,1.24,1.24,0,0,1,1.55-.69"/></g><g class="cls-2"><path class="cls-3" d="M73.93,191.5l0-2.43-28.79.17s-1.35.55-1.22,1.5Z"/></g><path class="cls-4" d="M59.35,182.34c0,.15.73.23,1.44.72s1.08,1.12,1.22,1.07-.06-.91-.93-1.49S59.32,182.21,59.35,182.34Z"/><path class="cls-4" d="M56.17,183.56c0,.15.59.41,1.07,1s.61,1.3.76,1.29.26-.83-.36-1.6S56.17,183.42,56.17,183.56Z"/><path class="cls-4" d="M54.28,187.29c.13,0,.36-.69,0-1.51s-1-1.15-1.1-1,.35.56.63,1.24S54.14,187.27,54.28,187.29Z"/><path class="cls-4" d="M59.71,178.81c0,.13.73-.05,1.56,0s1.47.35,1.55.23-.53-.66-1.51-.74S59.64,178.69,59.71,178.81Z"/><g class="cls-5"><polygon points="59.71 170.09 59.73 172.85 74.5 173.09 74.58 170.61 59.71 170.09"/></g><path class="cls-4" d="M59.73,175.68a2.72,2.72,0,0,0,1.51,0,6.74,6.74,0,0,0,1.58-.45,7.89,7.89,0,0,0,.88-.43,2.15,2.15,0,0,0,.46-.35.63.63,0,0,0,.09-.77.81.81,0,0,0-.64-.36,1.86,1.86,0,0,0-.56.07,5.28,5.28,0,0,0-.95.29,5.51,5.51,0,0,0-1.41.88c-.71.63-1,1.17-.91,1.2s.41-.4,1.14-.92a6.14,6.14,0,0,1,1.36-.72,5.52,5.52,0,0,1,.87-.24c.32-.08.59-.07.67.07s0,.08,0,.17a1.76,1.76,0,0,1-.34.25,8.37,8.37,0,0,1-2.28,1A13.85,13.85,0,0,0,59.73,175.68Z"/><path class="cls-4" d="M59.92,175.9a2.43,2.43,0,0,0,.43-1.44,5,5,0,0,0-.16-1.66,6.24,6.24,0,0,0-.36-.92,1.26,1.26,0,0,0-.94-.78.69.69,0,0,0-.64.4,1.91,1.91,0,0,0-.17.55,3.39,3.39,0,0,0,.58,2.58c.56.8,1.17,1,1.18.94s-.45-.37-.88-1.13a3.49,3.49,0,0,1-.44-1.43,3.23,3.23,0,0,1,0-.87c.06-.31.18-.57.3-.53s.4.25.51.5a5.35,5.35,0,0,1,.36.83,5.58,5.58,0,0,1,.25,1.51C60,175.33,59.84,175.88,59.92,175.9Z"/><polygon class="cls-4" points="129.49 159.13 94.91 146.27 131.26 141.17 133.1 123.45 65.11 129.39 55.5 143.21 58.03 160.56 124.27 177.4 129.49 159.13"/><path class="cls-4" d="M56.16,171.53l-3.31-63.3a17.8,17.8,0,0,1,8.88-14.89h0a17.79,17.79,0,0,1,14.55-1.48l44.11,14.71,24.21,6.22s4.12,10.17,1.7,18.08c-2.37,7.74-10.85,12.88-18.31,10.67-9.27-2.75-51.81-21-51.81-21V172Z"/><path class="cls-6" d="M127.35,141.71a.84.84,0,0,1-.27-.09l-.75-.29-2.9-1.16-10.61-4.32L77.88,121.43l-1.78-.74.28-.19c0,14.32,0,27.2-.06,36.52,0,4.63,0,8.38-.06,11,0,1.28,0,2.28,0,3,0,.33,0,.58,0,.78a1.33,1.33,0,0,1,0,.26,1.33,1.33,0,0,1,0-.26l0-.78c0-.7,0-1.7,0-3,0-2.62,0-6.37-.06-11,0-9.32,0-22.2-.07-36.52v-.31l.29.12,1.78.74,34.89,14.53L123.5,140l2.86,1.23.74.32A1.24,1.24,0,0,1,127.35,141.71Z"/><path class="cls-6" d="M86.6,141.78a11.65,11.65,0,0,1,4.54,1.6,11.86,11.86,0,0,1,3.76,3c-.09.1-1.66-1.37-4-2.63S86.57,141.9,86.6,141.78Z"/><path class="cls-6" d="M72.34,111.94a19.85,19.85,0,0,1,2.33,4.28,20.64,20.64,0,0,1,1.65,4.59c-.11,0-.92-2-2-4.43S72.24,112,72.34,111.94Z"/><polygon class="cls-7" points="72.44 84.04 64.64 82.58 56.44 90.94 57.95 96.27 67.51 92.75 72.44 84.04"/><path class="cls-7" d="M.36,65l8.88-2,14.28,2.24L23,74.34s-4.43.64-6,.12A5,5,0,0,0,14,74.39s.87,1.8-.64,2.09-4,.91-4.4-1.21a1.62,1.62,0,0,1-1.67-1.22s-1.17.42-1.68-1.61-.23-5.07,3.79-6c.21-.05.3-.54-.09-.52L3,67.07S-1.24,67.23.36,65Z"/><path class="cls-8" d="M7.91,71.32A5.71,5.71,0,0,1,9.43,71a12.18,12.18,0,0,1,1.68-.14,1.33,1.33,0,0,1,1,.47,1.13,1.13,0,0,1,.06,1.21,2.61,2.61,0,0,1-1.81,1.11,13.83,13.83,0,0,1-1.64.36,4.5,4.5,0,0,1-1.54,0,10.89,10.89,0,0,1,1.49-.32c.46-.1,1-.24,1.59-.43a4.49,4.49,0,0,0,.89-.32,1.44,1.44,0,0,0,.68-.63.74.74,0,0,0,0-.8,1,1,0,0,0-.73-.35c-.58,0-1.17,0-1.63.06A6.71,6.71,0,0,1,7.91,71.32Z"/><path class="cls-8" d="M9.44,69.36c0,.1-.45.33-.79.86s-.38,1.06-.49,1.06-.25-.63.18-1.27S9.43,69.25,9.44,69.36Z"/><path class="cls-8" d="M11.87,72.6s.09,0,.24,0,.3.29.42.48a1.14,1.14,0,0,1-.77,1.78,13.6,13.6,0,0,1-1.95.43c-.51.05-.83,0-.83,0a3,3,0,0,1,.79-.22c.48-.11,1.14-.33,1.88-.53a.93.93,0,0,0,.7-.53,1,1,0,0,0,0-.74c-.12-.26-.16-.42-.27-.49S11.86,72.63,11.87,72.6Z"/><path class="cls-8" d="M12.47,74.15s.1-.18.38-.22a1.56,1.56,0,0,1,1,.27,1.17,1.17,0,0,1,.51.93c0,.27,0,.42-.08.42s-.1-.14-.18-.36a1.21,1.21,0,0,0-.44-.66,2.15,2.15,0,0,0-.79-.33C12.64,74.17,12.49,74.2,12.47,74.15Z"/><path class="cls-7" d="M16.88,67.08l-4,1.59L9.1,71.33s0,.91,2.13.58A10,10,0,0,0,15,70.44s2.8,1.76,5.27,1.36"/><path class="cls-8" d="M20.25,71.8s-.13,0-.39.09a5.06,5.06,0,0,1-1.14,0,9.75,9.75,0,0,1-3.82-1.32h.18a9.43,9.43,0,0,1-4.72,1.59A2.21,2.21,0,0,1,9.53,72a.87.87,0,0,1-.62-.71v-.1L9,71.17l3.8-2.63h0l2.94-1.09a5.2,5.2,0,0,1,1.12-.35,5.57,5.57,0,0,1-1,.51l-2.9,1.22,0,0L9.2,71.48l.08-.15a.54.54,0,0,0,.38.35,2,2,0,0,0,.71.11,9.43,9.43,0,0,0,4.52-1.49l.09-.06.09.06a10.47,10.47,0,0,0,3.67,1.41C19.69,71.86,20.24,71.74,20.25,71.8Z"/><path class="cls-8" d="M11.07,66.88c0,.1-.47.1-.94-.19s-.68-.68-.6-.75.39.18.8.42S11.09,66.77,11.07,66.88Z"/><path class="cls-1" d="M22.75,76.72l33.86,4.91a13.36,13.36,0,0,0,10.15-.85L96.92,65.31l-9-19.91h0a24.35,24.35,0,0,0-3.4,1.44L59.68,64.72l-36-1.27Z"/><polygon class="cls-7" points="143.93 112.64 141.77 108.86 118.68 103.08 121.4 107.77 143.93 112.64"/><path class="cls-1" d="M87.89,45.4c0,.81-3.39,25.86-3.39,31s9.8,10.67,9.8,10.67L105,109.84h38.22L130.19,85.3l-5.91-19.65c-2.24-7.45-2-11.29-7.55-16.75L106,41.71Z"/><path class="cls-1" d="M99,65.19l6.42,26.93L73,83l-5.52,9.75,42.13,19.19a11.84,11.84,0,0,0,14.6-4h0A11.8,11.8,0,0,0,126,98.23l-9.43-36.86A9,9,0,0,0,105,55.06h0A9,9,0,0,0,99,65.19Z"/><path class="cls-4" d="M94.9,88.33a9.08,9.08,0,0,0-1-1.44c-.24-.11-.59-.29-1-.54A28.46,28.46,0,0,1,89.36,84a14.27,14.27,0,0,1-4.18-4.74c-1-2.25-1-5-.59-7.7s1-5.27,1.28-7.61.61-4.46.74-6.25.16-3.23.16-4.23a12.56,12.56,0,0,1,0-1.56,2.23,2.23,0,0,1,.06.4,11.45,11.45,0,0,1,.09,1.16,37.81,37.81,0,0,1,0,4.25c-.09,1.8-.31,3.93-.65,6.28S85.38,68.91,85,71.6s-.45,5.36.52,7.49a14.47,14.47,0,0,0,4,4.68A33.28,33.28,0,0,0,93,86.21,8.61,8.61,0,0,1,94.9,88.33Z"/><path class="cls-4" d="M107.77,43.51a3.7,3.7,0,0,1-.58.65c-.39.4-1,1-1.71,1.66-1.48,1.37-3.56,3.21-6,5.13s-4.65,3.56-6.31,4.69c-.83.57-1.51,1-2,1.32a3.29,3.29,0,0,1-.77.42,4,4,0,0,1,.67-.56c.53-.38,1.16-.86,1.91-1.41,1.62-1.2,3.83-2.87,6.22-4.78s4.5-3.71,6-5l1.8-1.56A4.24,4.24,0,0,1,107.77,43.51Z"/><path class="cls-4" d="M99,65.19a3.75,3.75,0,0,1,.16.51q.13.55.39,1.5c.34,1.35.81,3.25,1.4,5.62,1.17,4.83,2.79,11.55,4.66,19.26l.08.33-.33-.1L97.1,90,73,83.14l.17-.07c-1.72,3-3.11,5.4-4.1,7.1L67.93,92.1l-.3.49c-.07.11-.11.16-.12.16s0-.06.08-.18l.27-.52c.26-.47.61-1.13,1.06-2l4-7.16.06-.1.11,0L97.21,89.6l8.25,2.33-.25.24c-1.81-7.73-3.39-14.45-4.52-19.29-.54-2.38-1-4.29-1.28-5.65-.14-.63-.25-1.14-.33-1.51A3.57,3.57,0,0,1,99,65.19Z"/><path class="cls-4" d="M116.73,63.51a2.29,2.29,0,0,1,.16.46c.1.35.22.8.37,1.35.32,1.22.77,2.9,1.31,5,1.07,4.25,2.53,10,4.15,16.42.79,3.21,1.57,6.26,2.22,9a21.28,21.28,0,0,1,.62,7.61,10.62,10.62,0,0,1-1.81,4.8,5.61,5.61,0,0,1-1.29,1.38,17.55,17.55,0,0,0,1.16-1.47,11,11,0,0,0,1.65-4.75,21.29,21.29,0,0,0-.7-7.48c-.69-2.79-1.45-5.84-2.25-9-1.57-6.39-3-12.19-4-16.44-.49-2.07-.89-3.76-1.18-5l-.3-1.36A2.15,2.15,0,0,1,116.73,63.51Z"/><g class="cls-5"><path d="M122.61,109.84c4.74.44,7.49-2.27,8-6a13.42,13.42,0,0,0-1-6c-2.91-8.52-5.85-17.11-10.46-24.84,1.74,7.74,4,15.16,5.71,22.9a24.42,24.42,0,0,1,.73,6.59,11.86,11.86,0,0,1-2.92,7.34"/></g><path class="cls-9" d="M83.73,71.06A11,11,0,0,1,81.82,69a31.53,31.53,0,0,1-3.56-5.89,31,31,0,0,1-2.16-6.53,10.65,10.65,0,0,1-.36-2.82c.08,0,.27,1.05.72,2.74a39.45,39.45,0,0,0,2.28,6.39,38.86,38.86,0,0,0,3.38,5.89A24.91,24.91,0,0,1,83.73,71.06Z"/><path class="cls-9" d="M74.45,76.55a12.9,12.9,0,0,1-1.52-2.17c-.87-1.38-2-3.31-3.21-5.5s-2.2-4.21-2.88-5.69a12.6,12.6,0,0,1-1-2.45A13.48,13.48,0,0,1,67.17,63c.85,1.6,1.87,3.5,3,5.61s2.21,4,3.08,5.57A13.26,13.26,0,0,1,74.45,76.55Z"/><path class="cls-9" d="M61.69,81.53a63.7,63.7,0,0,1-1.56-8,60.59,60.59,0,0,1-1.05-8.08,64.67,64.67,0,0,1,1.56,8A64.84,64.84,0,0,1,61.69,81.53Z"/><path class="cls-9" d="M50.33,80.77a9.59,9.59,0,0,1-.27-2.29c-.08-1.42-.13-3.38-.08-5.54s.19-4.13.35-5.54a9.33,9.33,0,0,1,.37-2.27,11.26,11.26,0,0,1,0,2.3c0,1.41-.14,3.36-.19,5.52s-.06,4.11-.07,5.52A11.55,11.55,0,0,1,50.33,80.77Z"/><path class="cls-9" d="M39,64.22a8.25,8.25,0,0,1,.29,2.13c.09,1.32.16,3.15.12,5.16s-.16,3.85-.31,5.17a7.91,7.91,0,0,1-.36,2.11c-.15,0,.08-3.27.15-7.28S38.8,64.23,39,64.22Z"/><path class="cls-9" d="M29.62,65.42a36.81,36.81,0,0,1-.29,6.1,34.81,34.81,0,0,1-.81,6.06,36.79,36.79,0,0,1,.29-6.1A34.81,34.81,0,0,1,29.62,65.42Z"/><path class="cls-9" d="M85.91,56.17a39.09,39.09,0,0,1-1.77-3.51c-1-1.91-2-3.34-1.93-3.44a9.32,9.32,0,0,1,2.39,3.19A9.43,9.43,0,0,1,85.91,56.17Z"/><path class="cls-9" d="M103.51,83.39a2.83,2.83,0,0,1-.79.09,18.58,18.58,0,0,1-2.14,0,25.49,25.49,0,0,1-13.14-4.92,16.68,16.68,0,0,1-1.65-1.37c-.37-.35-.56-.56-.54-.59s.91.66,2.4,1.66a29.79,29.79,0,0,0,13,4.85C102.39,83.28,103.51,83.3,103.51,83.39Z"/><path class="cls-9" d="M99.86,70.62a7.81,7.81,0,0,1-2.09-.23,36.3,36.3,0,0,1-4.88-1.3,35.23,35.23,0,0,1-4.66-2A7,7,0,0,1,86.45,66c.07-.14,2.9,1.34,6.61,2.6S99.89,70.46,99.86,70.62Z"/><path class="cls-9" d="M97.74,61.43A12.11,12.11,0,0,1,88,57.54a33.55,33.55,0,0,0,4.61,2.57A33.74,33.74,0,0,0,97.74,61.43Z"/><path class="cls-9" d="M112.71,54.9c0,.08-.83-.45-2.25-.85a8.92,8.92,0,0,0-10,3.73c-.81,1.23-1,2.15-1.14,2.12a4.94,4.94,0,0,1,.83-2.31,8.7,8.7,0,0,1,10.42-3.89A5.1,5.1,0,0,1,112.71,54.9Z"/><path class="cls-9" d="M114.47,67.17a5.71,5.71,0,0,1-1.7,1,21.5,21.5,0,0,1-4.48,1.4,21.83,21.83,0,0,1-4.67.43,6.07,6.07,0,0,1-1.94-.22c0-.17,3,0,6.51-.72S114.4,67,114.47,67.17Z"/><path class="cls-9" d="M119.6,82.59a49.68,49.68,0,0,1-7,.94,49,49,0,0,1-7.07.43,48.47,48.47,0,0,1,7-.95A46.55,46.55,0,0,1,119.6,82.59Z"/><path class="cls-9" d="M124.11,103.93a2.26,2.26,0,0,1-.8-.15,19.23,19.23,0,0,1-2.1-.71,35.55,35.55,0,0,1-6.44-3.42,69.8,69.8,0,0,1-5.83-4.36,17.36,17.36,0,0,1-2.24-2A18.11,18.11,0,0,1,109.17,95c1.49,1.11,3.53,2.66,5.89,4.21a44.68,44.68,0,0,0,6.3,3.52C123,103.49,124.13,103.85,124.11,103.93Z"/><path class="cls-9" d="M99.87,107.19a7.25,7.25,0,0,1-.16-2.27,24.51,24.51,0,0,1,.71-5.45,25,25,0,0,1,1.86-5.16,7.46,7.46,0,0,1,1.19-2,60.74,60.74,0,0,0-2.55,7.23A56.71,56.71,0,0,0,99.87,107.19Z"/><path class="cls-9" d="M87.68,100.65a13.12,13.12,0,0,1,.63-6.18A13.26,13.26,0,0,1,91.25,89a45.72,45.72,0,0,0-2.44,5.63A44.15,44.15,0,0,0,87.68,100.65Z"/><path class="cls-9" d="M80.88,84.7a34.15,34.15,0,0,0-3.73,5.37A34.87,34.87,0,0,0,75,96.25a5.38,5.38,0,0,1,.15-2,16.51,16.51,0,0,1,1.53-4.46A16.85,16.85,0,0,1,79.39,86,5.36,5.36,0,0,1,80.88,84.7Z"/><path class="cls-9" d="M125.8,70.73a7,7,0,0,1-6.35,2.52c0-.16,1.56-.2,3.31-.91S125.69,70.61,125.8,70.73Z"/><path class="cls-9" d="M121.21,56.69a4.83,4.83,0,0,1-1.87,2.48,5,5,0,0,1-2.8,1.35c-.05-.15,1.2-.69,2.47-1.75S121.08,56.61,121.21,56.69Z"/><path class="cls-9" d="M104.89,47.35a5,5,0,0,1,2,2.27,4.93,4.93,0,0,1,.83,2.91c-.15,0-.5-1.25-1.28-2.66S104.78,47.46,104.89,47.35Z"/><path class="cls-9" d="M129.15,83.93a8.47,8.47,0,0,1-6.52,1.69c0-.15,1.52-.2,3.31-.67S129.08,83.8,129.15,83.93Z"/><path class="cls-9" d="M136.14,96.24a28.78,28.78,0,0,1-5.44.72,27.78,27.78,0,0,1-5.48.2,29.79,29.79,0,0,1,5.44-.72A29.76,29.76,0,0,1,136.14,96.24Z"/><path class="cls-9" d="M141,106.14a61.26,61.26,0,0,1-8.05.06,63.14,63.14,0,0,1-8-.46,63.34,63.34,0,0,1,8.05-.06A63.33,63.33,0,0,1,141,106.14Z"/><path class="cls-4" d="M105.61,6.9c.66,3.39,5.53,4.74,6,8.16.2,1.47-.5,2.93-.45,4.41.07,2,1.45,3.66,2.16,5.52,1.46,3.84-.19,8.39-3.27,11.11S102.76,39.9,98.65,40"/><path class="cls-4" d="M78,10.4c.42,1.81-.53,3.64-1.53,5.2s-2.13,3.21-2.1,5.07c0,3.29,3.66,5.78,3.52,9.07-.08,1.77-1.27,3.36-1.24,5.12a6,6,0,0,0,2.48,4.3c1.31,1.09,2.57.7,3.76,1.92a14,14,0,0,0,4.85,3.11c3.84,1.38,7.64-2.09,9.26-2.86"/><path class="cls-4" d="M106.6,8.76c-.21-1.67-1.95-2.71-3.59-3.08s-3.39-.32-4.92-1A22.83,22.83,0,0,1,94.52,2,10.35,10.35,0,0,0,78.07,9.4c-.22,2.45.63,5.18,2.74,6.46,2.45,1.48,5.59.57,8.27-.43s5.73-2.06,8.31-.8a11.92,11.92,0,0,1,3.68,3.57,7.38,7.38,0,0,0,4.1,3c1.7.3,3.74-1,3.53-2.72"/><path class="cls-7" d="M107.19,44.16l-4-32.38a2.79,2.79,0,0,0-2.92-2.43L84.89,7.91c-4.8.24-7,6.54-6.59,11.33.48,5.32,1.29,11.79,2.53,15.62,2.48,7.71,8.69,7.77,8.69,7.77S90.68,54,91.13,56.82"/><path class="cls-4" d="M80.4,25.15a1,1,0,0,0,1.13.87A1,1,0,0,0,82.44,25a1,1,0,0,0-1.14-.87A1,1,0,0,0,80.4,25.15Z"/><path class="cls-4" d="M80.11,23.16c.15.11.82-.58,1.92-.74s2,.25,2.07.1-.12-.29-.51-.49a2.78,2.78,0,0,0-1.68-.24,2.75,2.75,0,0,0-1.5.75C80.11,22.85,80,23.11,80.11,23.16Z"/><path class="cls-4" d="M91.38,23.55a1,1,0,0,0,1.14.87,1,1,0,0,0,.9-1.08,1,1,0,0,0-1.13-.87A1,1,0,0,0,91.38,23.55Z"/><path class="cls-4" d="M90.86,21.69c.14.12.82-.57,1.91-.74s2,.26,2.08.1-.12-.28-.51-.48a2.78,2.78,0,0,0-1.68-.25,2.69,2.69,0,0,0-1.5.76C90.86,21.39,90.79,21.64,90.86,21.69Z"/><path class="cls-4" d="M88.16,30.4a6.75,6.75,0,0,0-1.82,0c-.28,0-.56,0-.63-.18a1.42,1.42,0,0,1,.05-.85c.16-.72.33-1.47.5-2.25a36.75,36.75,0,0,0,1-5.84A38.44,38.44,0,0,0,85.79,27c-.16.79-.31,1.54-.46,2.26a1.64,1.64,0,0,0,0,1.11.71.71,0,0,0,.52.34,1.5,1.5,0,0,0,.48,0A7.37,7.37,0,0,0,88.16,30.4Z"/><path class="cls-8" d="M89.52,42.63a19.39,19.39,0,0,0,10.06-4.34,10.81,10.81,0,0,1-9.84,6.46Z"/><path class="cls-8" d="M89,33a2,2,0,0,1,1.65-1,1.79,1.79,0,0,1,1.34.47,1.16,1.16,0,0,1,.29,1.29,1.35,1.35,0,0,1-1.38.58,4.18,4.18,0,0,1-1.52-.62,1.07,1.07,0,0,1-.36-.27A.37.37,0,0,1,89,33"/><path class="cls-4" d="M91.49,30.65c-.18,0,0,1.2-.88,2.2s-2.17,1.06-2.15,1.23.32.19.85.12a3,3,0,0,0,1.8-1,2.56,2.56,0,0,0,.66-1.83C91.74,30.9,91.57,30.63,91.49,30.65Z"/><path class="cls-4" d="M89.88,18.72c.16.28,1.22,0,2.53-.07s2.39.14,2.52-.15-.17-.39-.63-.62a4.16,4.16,0,0,0-1.94-.35,4.05,4.05,0,0,0-1.91.53C90,18.32,89.81,18.59,89.88,18.72Z"/><path class="cls-4" d="M80,19.94c.23.22.94-.15,1.84-.31s1.69-.09,1.83-.38-.1-.36-.47-.55a2.67,2.67,0,0,0-1.57-.17,2.62,2.62,0,0,0-1.39.73C80,19.56,79.92,19.83,80,19.94Z"/><path class="cls-4" d="M107.63,36c-2.1.78-2.47-.29-4.33-1.54a7.23,7.23,0,0,1-3.14-5.67c-.06-2,.68-4.12-.29-5.85-1.27-2.29-4.79-2.5-6.07-4.78-.75-1.32-.54-3-1.35-4.33a5.34,5.34,0,0,0-3.65-2,13.73,13.73,0,0,1-4.14-1.07c-1.25-.69-2.2-2.21-1.68-3.54A75.84,75.84,0,0,1,100.9,8.69a6.82,6.82,0,0,1,3.76,1.67A7.11,7.11,0,0,1,106,14.48l2.37,21.43"/><path class="cls-4" d="M110.05,19.13a6.13,6.13,0,0,1,11.14-3.91,8.69,8.69,0,0,1,.83,7.26c-.79,2.88-2.9,5.73-5.87,6.07-2.8.31-5.42-1.78-6.64-4.31s-1.34-5.44-1.45-8.25"/><path class="cls-6" d="M113.31,29.7a1.34,1.34,0,0,0,.34-.52A4.08,4.08,0,0,0,114,27.5a7.85,7.85,0,0,0-.47-2.48c-.31-.9-.77-1.83-1.16-2.83a7.32,7.32,0,0,1-.64-2.89c0-.91.32-1.72.39-2.44a3,3,0,0,0-.22-1.7c-.18-.37-.38-.5-.39-.49s.13.18.27.55a3.27,3.27,0,0,1,.1,1.6,20.28,20.28,0,0,0-.47,2.47,7.46,7.46,0,0,0,.63,3c.4,1,.87,1.94,1.19,2.81a8.08,8.08,0,0,1,.52,2.38A5.15,5.15,0,0,1,113.31,29.7Z"/><path class="cls-6" d="M111.92,20.2a4.09,4.09,0,0,0,1.4,1,7,7,0,0,0,7.83-1.09,4,4,0,0,0,1.07-1.34s-.43.5-1.23,1.15A7.36,7.36,0,0,1,113.42,21C112.47,20.56,112,20.15,111.92,20.2Z"/><path class="cls-6" d="M112.51,21.37a3.57,3.57,0,0,0,.86,1.14,8.76,8.76,0,0,0,6.27,2.54,3.62,3.62,0,0,0,1.41-.22,13.71,13.71,0,0,0-1.41,0,10,10,0,0,1-6.1-2.47C112.9,21.76,112.56,21.34,112.51,21.37Z"/><path class="cls-6" d="M112.24,32.58s0,0,.07-.11a2.91,2.91,0,0,0,.17-.35,4.2,4.2,0,0,0,.3-1.47,4.91,4.91,0,0,0-.49-2.31,4.55,4.55,0,0,0-2.23-2.18,11.09,11.09,0,0,1-3.28-1.71,2.44,2.44,0,0,1-.72-1.79,10.77,10.77,0,0,1,.37-2.15,6,6,0,0,0-.85-4.7,5.2,5.2,0,0,0-1.92-1.74,6.39,6.39,0,0,0-2.58-.62c-.88-.06-1.76,0-2.59-.15a5,5,0,0,1-2.27-.82A3.53,3.53,0,0,1,95,10.55a17.75,17.75,0,0,0-.73-2.24,8,8,0,0,0-2.72-3.39,6.28,6.28,0,0,0-3.62-1.14,5.08,5.08,0,0,0-3,.94,4.92,4.92,0,0,0-1.52,1.81A4.05,4.05,0,0,0,83,8a2.29,2.29,0,0,0,0,.52,5.35,5.35,0,0,1,.53-1.9A4.78,4.78,0,0,1,85,4.89,4.91,4.91,0,0,1,87.91,4a6.09,6.09,0,0,1,3.45,1.12A7.79,7.79,0,0,1,94,8.44a17.86,17.86,0,0,1,.71,2.21A3.92,3.92,0,0,0,96,12.76a5.33,5.33,0,0,0,2.44.88c.87.12,1.74.1,2.61.16a6,6,0,0,1,2.44.58A4.82,4.82,0,0,1,105.29,16a5.67,5.67,0,0,1,.82,4.44,11.27,11.27,0,0,0-.36,2.23,2.74,2.74,0,0,0,.83,2A10.88,10.88,0,0,0,110,26.38a4.33,4.33,0,0,1,2.16,2.05,4.89,4.89,0,0,1,.54,2.22A5.26,5.26,0,0,1,112.24,32.58Z"/><path class="cls-6" d="M108.23,10.61a.79.79,0,0,0,0-.38,1.67,1.67,0,0,0-.43-1,2.7,2.7,0,0,0-1.49-.89,4.22,4.22,0,0,0-2.28.28c-.8.29-1.61.76-2.52,1.09a3.56,3.56,0,0,1-2.93,0,6.46,6.46,0,0,1-2.14-2.57,11.75,11.75,0,0,0-2.34-3,11,11,0,0,0-6.58-2.92,6.32,6.32,0,0,0-3.15.58,5,5,0,0,0-2.07,1.86,3.58,3.58,0,0,0-.54,2.23,3.61,3.61,0,0,0,.52,1.65,2.86,2.86,0,0,0,.74.81,1,1,0,0,0,.33.19,4.09,4.09,0,0,1-1-1.07A3.65,3.65,0,0,1,82,5.91a3.52,3.52,0,0,1,.56-2.09,4.79,4.79,0,0,1,2-1.73,6.14,6.14,0,0,1,3-.52,10.85,10.85,0,0,1,6.37,2.86,12,12,0,0,1,2.28,2.88A6.58,6.58,0,0,0,98.47,10a3.13,3.13,0,0,0,1.65.34,5.71,5.71,0,0,0,1.53-.36c.94-.35,1.73-.83,2.51-1.12a4.15,4.15,0,0,1,2.15-.33,2.63,2.63,0,0,1,1.43.78,1.74,1.74,0,0,1,.46.93C108.24,10.48,108.21,10.61,108.23,10.61Z"/></g></g></svg>