<svg xmlns="http://www.w3.org/2000/svg" viewBox="0 0 247.55 311.73"><defs><style>.cls-1{fill:#e8505b;}.cls-2{fill:#263238;}.cls-3{opacity:0.3;}.cls-4{fill:#fafafa;}.cls-5{fill:#b78876;}.cls-6{fill:#aa6550;}.cls-7{opacity:0.2;}</style></defs><g id="Layer_2" data-name="Layer 2"><g id="Character"><path class="cls-1" d="M225.37,153.74,191.9,186.33l-30.84,58.85-34.68,66.55-42.62-20L37.71,268.18,67.17,211.9l18.31-63c-12.94,8.58-36.95,20.27-65.7,14.17C-11.36,156.45,3.59,39,3.59,39l34.22-.88,3.41,82.81L79.9,103.85,80,104c2.33-1,4.37-2,5.45-2.55,21.39-11.67,35.43-13.08,58.38-4.89h0l33.11,11c8.51,4,39.88,19.45,48.47,46.19"/><path class="cls-2" d="M108.23,94.09s-.78.44-2.08,1.37a23.17,23.17,0,0,0-4.79,4.71A34,34,0,0,0,96.64,109a119.81,119.81,0,0,0-3.53,11.79c-2.29,8.42-4.36,16-5.89,21.63-.76,2.71-1.38,4.93-1.84,6.53-.21.73-.39,1.32-.52,1.77a2.71,2.71,0,0,1-.22.61,2.52,2.52,0,0,1,.12-.63c.11-.47.25-1.06.43-1.8.41-1.62,1-3.85,1.68-6.58,1.48-5.6,3.5-13.23,5.74-21.67a114.7,114.7,0,0,1,3.58-11.82,33.41,33.41,0,0,1,4.88-8.84,21.61,21.61,0,0,1,5-4.66,14.52,14.52,0,0,1,1.6-.94A4.32,4.32,0,0,1,108.23,94.09Z"/><g class="cls-3"><path d="M95.76,110.68C86.19,136.59,69,151.07,44.61,164.05a89.73,89.73,0,0,0,40.18-14.72"/></g><g class="cls-3"><path d="M126.23,92.24Q132.32,189.62,138.4,287l-12,24.74Z"/></g><path class="cls-4" d="M163.93,159.59c-.14.06-1.37-3-3.07-6.69s-3.24-6.62-3.1-6.69A8.6,8.6,0,0,1,159,148c.66,1.16,1.53,2.8,2.38,4.66s1.54,3.57,2,4.83A8.25,8.25,0,0,1,163.93,159.59Z"/><path class="cls-4" d="M191.17,145.9a55.89,55.89,0,0,1-6.5,4.36,58.65,58.65,0,0,1-6.78,3.92,61.53,61.53,0,0,1,6.5-4.36A58.65,58.65,0,0,1,191.17,145.9Z"/><path class="cls-4" d="M179.35,136a27.39,27.39,0,0,1-.54-5.31,28.46,28.46,0,0,1,0-5.35,26.53,26.53,0,0,1,.54,5.32A28.33,28.33,0,0,1,179.35,136Z"/><path class="cls-4" d="M206.54,134.14a31.23,31.23,0,0,1-4.9-2.72,31.06,31.06,0,0,1-4.64-3.17,31.05,31.05,0,0,1,4.91,2.72A30.62,30.62,0,0,1,206.54,134.14Z"/><path class="cls-4" d="M165,188.08a53.57,53.57,0,0,1,2.7-6.92,54.4,54.4,0,0,1,3.18-6.71,54.2,54.2,0,0,1-2.7,6.92A53.56,53.56,0,0,1,165,188.08Z"/><path class="cls-4" d="M152.86,200.34a23.76,23.76,0,0,1-2.44-4.3,23.81,23.81,0,0,1-2-4.54,23.76,23.76,0,0,1,2.44,4.3A23.81,23.81,0,0,1,152.86,200.34Z"/><path class="cls-4" d="M163,216.84a16.77,16.77,0,0,1-5.14,1.31,16.64,16.64,0,0,1-5.31.16c0-.15,2.36-.26,5.23-.67S163,216.69,163,216.84Z"/><path class="cls-4" d="M176,198.79a26.06,26.06,0,0,1,1.77-4.85,25.17,25.17,0,0,1,2.26-4.65,25.71,25.71,0,0,1-1.78,4.85A24.8,24.8,0,0,1,176,198.79Z"/><path class="cls-4" d="M144.39,236.93c-.13.08-1.6-2-3.62-4.28s-3.82-4.08-3.71-4.19a27.29,27.29,0,0,1,7.33,8.47Z"/><path class="cls-4" d="M138.66,195.92a31.37,31.37,0,0,1-2.61,5,31.46,31.46,0,0,1-3.07,4.76,32,32,0,0,1,2.61-5A31.27,31.27,0,0,1,138.66,195.92Z"/><path class="cls-4" d="M142.74,181.8a32.53,32.53,0,0,1-5.59-1.18,31.47,31.47,0,0,1-5.46-1.68,31.42,31.42,0,0,1,5.59,1.18A30.81,30.81,0,0,1,142.74,181.8Z"/><path class="cls-4" d="M142.5,152.82a34.21,34.21,0,0,1,3,4.08,33.69,33.69,0,0,1,2.78,4.2,30.7,30.7,0,0,1-5.74-8.28Z"/><path class="cls-4" d="M133.29,151.4a23.13,23.13,0,0,1-3.46,3.36,23,23,0,0,1-3.8,3,21.7,21.7,0,0,1,3.46-3.35A22.51,22.51,0,0,1,133.29,151.4Z"/><path class="cls-4" d="M140.56,136.23a23.24,23.24,0,0,1-4.62-4.45,23.23,23.23,0,0,1-3.66-5.28c.13-.08,1.77,2.26,4.06,4.94S140.67,136.12,140.56,136.23Z"/><path class="cls-4" d="M166.13,131.56a33.09,33.09,0,0,1-5.6,2,33.34,33.34,0,0,1-5.76,1.48,35.57,35.57,0,0,1,5.61-2A33.76,33.76,0,0,1,166.13,131.56Z"/><path class="cls-4" d="M130.13,107.2c-.16,0-.09-2.29-.44-5.07s-1-5-.82-5a13.84,13.84,0,0,1,1.34,5A13.73,13.73,0,0,1,130.13,107.2Z"/><path class="cls-4" d="M107.37,179.71a18.93,18.93,0,0,1-2.35,1.74c-1.48,1-3.5,2.49-5.66,4.19s-4.06,3.31-5.42,4.49A20.27,20.27,0,0,1,91.69,192a13.82,13.82,0,0,1,2-2.15A69.45,69.45,0,0,1,99,185.23c2.18-1.71,4.25-3.12,5.78-4.09A15.53,15.53,0,0,1,107.37,179.71Z"/><path class="cls-4" d="M106.06,171.69c-.13.07-1.82-2.54-4.14-5.59s-4.39-5.37-4.28-5.48A7,7,0,0,1,99.15,162a48.81,48.81,0,0,1,3.19,3.77c1.16,1.54,2.13,3,2.78,4.08A7.38,7.38,0,0,1,106.06,171.69Z"/><path class="cls-4" d="M112.15,140.08a29.89,29.89,0,0,1-4.77,2.93,29.6,29.6,0,0,1-5,2.48,30.59,30.59,0,0,1,4.78-2.93A29.32,29.32,0,0,1,112.15,140.08Z"/><path class="cls-4" d="M106.12,126.28a7.6,7.6,0,0,1-1.71-1.35,36.65,36.65,0,0,1-3.62-3.82,37.53,37.53,0,0,1-3-4.3,7.88,7.88,0,0,1-1-1.94c.14-.08,1.84,2.76,4.44,5.91S106.23,126.16,106.12,126.28Z"/><path class="cls-4" d="M116.5,126a22.16,22.16,0,0,1,1.84-4.37,21.92,21.92,0,0,1,2.31-4.15,21.45,21.45,0,0,1-1.84,4.37A21.29,21.29,0,0,1,116.5,126Z"/><path class="cls-4" d="M113.73,110.2c-.16,0,0-3.11-.58-6.86s-1.69-6.65-1.54-6.71a6.65,6.65,0,0,1,.85,1.86,26.2,26.2,0,0,1,1.21,4.77,26.64,26.64,0,0,1,.3,4.91A6.25,6.25,0,0,1,113.73,110.2Z"/><path class="cls-4" d="M116.29,189.89a21.44,21.44,0,0,1,0-2.93c.06-1.8.12-4.29,0-7s-.25-5.23-.4-7a18.79,18.79,0,0,1-.18-2.92,15,15,0,0,1,.55,2.88,67.62,67.62,0,0,1,.55,7.06,64.26,64.26,0,0,1-.2,7.07A13.77,13.77,0,0,1,116.29,189.89Z"/><path class="cls-4" d="M114.77,214.74a42.84,42.84,0,0,0-4.44-3.57,43.46,43.46,0,0,0-5.1-2.52,14.6,14.6,0,0,1,9.54,6.09Z"/><path class="cls-4" d="M127.29,230.14a60.24,60.24,0,0,1-6.87,3.85,57.86,57.86,0,0,1-7.11,3.38,61.18,61.18,0,0,1,6.87-3.84A58.92,58.92,0,0,1,127.29,230.14Z"/><path class="cls-4" d="M92.07,237A62.79,62.79,0,0,1,87,230.54a64.47,64.47,0,0,1-4.64-6.75,65.09,65.09,0,0,1,5.06,6.44A66.28,66.28,0,0,1,92.07,237Z"/><path class="cls-4" d="M81.19,208.53a7.64,7.64,0,0,1-.22-2.05c-.06-1.27-.07-3,0-5s.27-3.69.44-4.95a7.74,7.74,0,0,1,.41-2c.15,0-.15,3.14-.33,7S81.34,208.53,81.19,208.53Z"/><path class="cls-4" d="M69.47,257.08a53.48,53.48,0,0,1-5.84-4.52,51.46,51.46,0,0,1-5.51-4.92A53.07,53.07,0,0,1,64,252.16,52.62,52.62,0,0,1,69.47,257.08Z"/><path class="cls-4" d="M76.51,255.59a57.31,57.31,0,0,1-.45-7.84,60.1,60.1,0,0,1,.08-7.85,60.42,60.42,0,0,1,.44,7.84A61.28,61.28,0,0,1,76.51,255.59Z"/><path class="cls-4" d="M90.41,285.7c0,.08-1.25-.41-3.26-1.06a46.76,46.76,0,0,0-16.22-2.21c-2.11.08-3.41.23-3.42.14a3.21,3.21,0,0,1,.9-.21c.58-.11,1.44-.21,2.5-.3a39.25,39.25,0,0,1,16.36,2.24,25.1,25.1,0,0,1,2.33,1A3.18,3.18,0,0,1,90.41,285.7Z"/><path class="cls-4" d="M101.86,291.2a11.28,11.28,0,0,1,2.25,1.55,54.61,54.61,0,0,1,4.94,4.39,55.81,55.81,0,0,1,4.39,4.94,11.89,11.89,0,0,1,1.56,2.26,18.56,18.56,0,0,1-1.84-2c-1.11-1.27-2.66-3-4.47-4.81s-3.54-3.36-4.81-4.47A18.56,18.56,0,0,1,101.86,291.2Z"/><path class="cls-4" d="M106.85,239.1a38,38,0,0,1-2.59-5.83,39.52,39.52,0,0,1-2.11-6,40.47,40.47,0,0,1,2.59,5.83A39.94,39.94,0,0,1,106.85,239.1Z"/><path class="cls-4" d="M66.68,137.75a7.77,7.77,0,0,1-1.53,1.67,33.14,33.14,0,0,1-4.29,3.38,32.56,32.56,0,0,1-4.77,2.66,8.09,8.09,0,0,1-2.13.77c-.06-.15,3.11-1.51,6.62-3.86S66.57,137.63,66.68,137.75Z"/><path class="cls-4" d="M69.23,127.15a19.57,19.57,0,0,1,0-4.46,18.48,18.48,0,0,1,.47-4.44,19.93,19.93,0,0,1,0,4.46A18.77,18.77,0,0,1,69.23,127.15Z"/><path class="cls-4" d="M49.3,136.05A29.58,29.58,0,0,1,44.11,134a30.52,30.52,0,0,1-5-2.57,30.92,30.92,0,0,1,5.19,2.09A30.52,30.52,0,0,1,49.3,136.05Z"/><path class="cls-4" d="M84.89,122.49a30.09,30.09,0,0,1,.16-5.53,29,29,0,0,1,.69-5.49,29.61,29.61,0,0,1-.17,5.53A28.75,28.75,0,0,1,84.89,122.49Z"/><path class="cls-4" d="M38.7,157.25a18.92,18.92,0,0,1-5.71-2.5,18.34,18.34,0,0,1-4.88-3.86c.1-.12,2.22,1.67,5.15,3.42S38.76,157.1,38.7,157.25Z"/><path class="cls-4" d="M23.87,136.9a42.2,42.2,0,0,1-4.26,5,43,43,0,0,1-4.64,4.7,41.49,41.49,0,0,1,4.25-5.05A41.53,41.53,0,0,1,23.87,136.9Z"/><path class="cls-4" d="M22.6,118.67a14.65,14.65,0,0,1-4.67-2.61,15.13,15.13,0,0,1-3.81-3.74c.11-.11,1.79,1.58,4.13,3.32S22.67,118.54,22.6,118.67Z"/><path class="cls-4" d="M13.27,122.49a13,13,0,0,1-2.13,2.92A13,13,0,0,1,8.61,128a12.63,12.63,0,0,1,2.13-2.92A12.69,12.69,0,0,1,13.27,122.49Z"/><path class="cls-4" d="M33.28,88.65a40.94,40.94,0,0,1-3.91,5.18,40.54,40.54,0,0,1-4.31,4.86A41.42,41.42,0,0,1,29,93.5,40.88,40.88,0,0,1,33.28,88.65Z"/><path class="cls-4" d="M16.12,92.5A37,37,0,0,1,11.86,88,37.06,37.06,0,0,1,8,83.23a35.88,35.88,0,0,1,4.25,4.46A37.64,37.64,0,0,1,16.12,92.5Z"/><path class="cls-4" d="M24.7,70.78a29.2,29.2,0,0,1-3-4.74,29.46,29.46,0,0,1-2.53-5,31.05,31.05,0,0,1,3,4.75A31.06,31.06,0,0,1,24.7,70.78Z"/><path class="cls-4" d="M24.27,56.77c-.12-.1,1.37-2,2.56-4.69s1.63-5.06,1.79-5a12.17,12.17,0,0,1-1.31,5.25A12.26,12.26,0,0,1,24.27,56.77Z"/><path class="cls-4" d="M7.76,55.94A11.63,11.63,0,0,1,9,49.82a14.76,14.76,0,0,1,2.44-3.72,4.69,4.69,0,0,1,1.39-1.21A28.47,28.47,0,0,0,9.46,50,28.65,28.65,0,0,0,7.76,55.94Z"/><path class="cls-2" d="M151.94,32.15a63.51,63.51,0,0,1-.15-12.48,21.29,21.29,0,0,1,4.6-11.43c2.73-3.16,6.93-5.19,11.06-4.66,2.56.33,5,1.59,7.55,1.52,3-.09,5.57-1.93,8.28-3.16A21.69,21.69,0,0,1,196.92.51a13,13,0,0,1,6.45,3.26,7.22,7.22,0,0,1,2.09,6.68,34.35,34.35,0,0,1,8.95.79,11.63,11.63,0,0,1,7.2,5c1.49,2.61,1.38,6.24-.75,8.35A5.76,5.76,0,0,1,227.22,29a7.42,7.42,0,0,1-3,7.44,13.87,13.87,0,0,1-9.35,1.88c-2.78-.53-6-1.31-8.23-3"/><path class="cls-5" d="M149.77,126.35h0A21.58,21.58,0,0,0,176,111c1.69-6.41,3.07-11.78,3.07-11.78s16.71,2.87,22.24-13,15-53.21,15-53.21h0a58.23,58.23,0,0,0-57.8-11.65l-3,1L134.33,99.73A21.58,21.58,0,0,0,149.77,126.35Z"/><path class="cls-6" d="M179.17,99a39,39,0,0,1-18.73-12.83s1.06,13.07,17.38,17Z"/><path class="cls-5" d="M152,39.51c-.23-.21-9.83-6.89-13.13,4.09s8.4,12,8.52,11.71S152,39.51,152,39.51Z"/><path class="cls-6" d="M145.28,50.14s-.24.08-.6.13a2,2,0,0,1-1.44-.4c-1-.77-1.46-2.91-.91-4.9a6.55,6.55,0,0,1,1.35-2.58,2.32,2.32,0,0,1,1.88-1,1,1,0,0,1,1,.86c.06.35-.08.55,0,.59s.3-.12.34-.6a1.26,1.26,0,0,0-.22-.81,1.51,1.51,0,0,0-1-.6,2.78,2.78,0,0,0-2.5,1.1,6.82,6.82,0,0,0-1.59,2.86c-.59,2.23-.08,4.64,1.37,5.58a2.13,2.13,0,0,0,1.83.23C145.18,50.4,145.31,50.18,145.28,50.14Z"/><path class="cls-2" d="M202.85,55.9a2.39,2.39,0,0,1-2.95,1.55,2.29,2.29,0,0,1-1.65-2.83,2.4,2.4,0,0,1,2.95-1.56A2.3,2.3,0,0,1,202.85,55.9Z"/><path class="cls-2" d="M205.82,54.36c-.38.2-1.67-1.64-4.12-2.46s-4.64-.19-4.8-.58c-.09-.17.38-.61,1.35-.92a6.52,6.52,0,0,1,4,.1,6.28,6.28,0,0,1,3.15,2.33C205.93,53.66,206,54.28,205.82,54.36Z"/><path class="cls-2" d="M178.86,47.84a2.4,2.4,0,0,1-3,1.56,2.29,2.29,0,0,1-1.65-2.83,2.39,2.39,0,0,1,3-1.56A2.29,2.29,0,0,1,178.86,47.84Z"/><path class="cls-2" d="M181.67,46.76c-.38.21-1.67-1.64-4.11-2.46s-4.64-.19-4.81-.58c-.08-.17.38-.61,1.35-.91a6.59,6.59,0,0,1,4,.09,6.36,6.36,0,0,1,3.16,2.33C181.78,46.06,181.86,46.68,181.67,46.76Z"/><path class="cls-2" d="M184.46,67.84c0-.14,1.64.1,4.2.61.65.15,1.28.22,1.52-.17a3.3,3.3,0,0,0,.21-2c-.08-1.71-.16-3.5-.25-5.37-.29-7.61-.28-13.79,0-13.8s.79,6.16,1.08,13.77c.06,1.87.11,3.66.16,5.37a3.73,3.73,0,0,1-.5,2.55,1.63,1.63,0,0,1-1.33.57,4.06,4.06,0,0,1-1.1-.21C186,68.48,184.42,68,184.46,67.84Z"/><path class="cls-2" d="M176.71,67.12c.4.11-.48,2.76,1.15,5.4s4.56,3.3,4.45,3.67c0,.18-.8.31-2-.06a7,7,0,0,1-3.77-2.92,6.1,6.1,0,0,1-.8-4.47C176,67.6,176.53,67,176.71,67.12Z"/><path class="cls-2" d="M206.36,49.77c-.61.41-2.1-.73-4.11-1.44s-3.86-.88-4.06-1.59c-.08-.34.38-.81,1.3-1.08a6,6,0,0,1,3.66.22,6.08,6.08,0,0,1,2.93,2.22C206.6,48.91,206.64,49.56,206.36,49.77Z"/><path class="cls-2" d="M181.46,36.88c-.37.2-1-.13-1.72-.56a19.22,19.22,0,0,0-2.87-1.41,18.34,18.34,0,0,0-3.11-.82c-.85-.17-1.51-.3-1.66-.7s.33-1,1.41-1.4a6.43,6.43,0,0,1,4.4.11,6.49,6.49,0,0,1,3.4,2.79C181.86,35.91,181.81,36.69,181.46,36.88Z"/><path class="cls-2" d="M215.48,38.17a39.33,39.33,0,0,1-22.78-9c-7.18-5.88-16.17-10-18.62-8.84s-4.78,9.4-13.36,10c0,0-3.06,16-9.28,14s3.34-25.77,3.34-25.77L172,14.6l17.68.65,15.87,3.6,13.73,7.89Z"/><path class="cls-5" d="M128.55,282.71l11.64-5.6-6.4-18.92-14.06-3.25c-1.31-.3-2.77-.65-4.4-1.1a17.54,17.54,0,0,1-5.32-2.51,26.51,26.51,0,0,1-5.58-4.73c-1.33-1.81-4.15-1.13-4.15.88s3.55,7.08,9.85,10.67-4.84,5.32-8.89,6-16.45,3.47-17.19,4.88c-1.08,2.06,1,3.64,5,2.85s16.28-2.35,16.61-.21l0,.06a8.78,8.78,0,0,0,.53,10.2c2.25,2.83,5.65,6.38,8.14,5.84C119,286.78,128.55,282.71,128.55,282.71Z"/><path class="cls-1" d="M127.84,249.42l10.91,36.89,84.7-25.74a34,34,0,0,0,22.39-43.09l-20.77-64.63L180,164.05l24.76,59.78Z"/><path class="cls-2" d="M225.37,259.92l-.41.15-1.22.39L219,261.93l-17.78,5.44-61.66,18.71-.23.06-.08-.22c-3.77-11.28-7.43-23.68-11.66-36.42l-.08-.24.24-.09,2.13-.7,74.77-24.83-.13.27c-6-14.5-10.85-26.38-14.25-34.66l-3.9-9.55c-.43-1.09-.77-1.93-1-2.51s-.33-.86-.33-.86.14.28.39.84l1.06,2.48,4,9.51c3.45,8.26,8.39,20.12,14.43,34.6l.08.2-.21.07L130.05,249l-2.13.71.16-.33c4.24,12.75,7.88,25.15,11.64,36.42l-.31-.16,61.72-18.52L219,261.77l4.76-1.39,1.23-.35Z"/><path class="cls-2" d="M220.38,234.6c-.08,0-.64-.93-1.78-2.34a23,23,0,0,0-11.54-7.66c-1.74-.5-2.86-.64-2.85-.73a2.26,2.26,0,0,1,.8,0,15,15,0,0,1,2.14.36,20.73,20.73,0,0,1,6.56,2.86A20.5,20.5,0,0,1,218.9,232a15.62,15.62,0,0,1,1.16,1.84A2.23,2.23,0,0,1,220.38,234.6Z"/><path class="cls-4" d="M199.85,167.19a28.38,28.38,0,0,1-.26-5.47,28.38,28.38,0,0,1,.26-5.47,29.37,29.37,0,0,1,.26,5.47A29.37,29.37,0,0,1,199.85,167.19Z"/><path class="cls-4" d="M216.86,168.06a29.21,29.21,0,0,1-1.84-5.24,29.46,29.46,0,0,1-1.34-5.39,29.58,29.58,0,0,1,1.84,5.24A29.46,29.46,0,0,1,216.86,168.06Z"/><path class="cls-4" d="M206.31,183.41a14.11,14.11,0,0,1-5.15-.76,14.33,14.33,0,0,1-4.75-2.14c.07-.14,2.17.85,4.9,1.64S206.32,183.26,206.31,183.41Z"/><path class="cls-4" d="M225.55,191.86a25.6,25.6,0,0,1,.64-5.22,26.83,26.83,0,0,1,1.15-5.14,27.39,27.39,0,0,1-.64,5.23A27.27,27.27,0,0,1,225.55,191.86Z"/><path class="cls-4" d="M218.66,205.63a28.38,28.38,0,0,1-2.48-4.8,28.63,28.63,0,0,1-2-5,28,28,0,0,1,2.49,4.8A27.76,27.76,0,0,1,218.66,205.63Z"/><path class="cls-4" d="M215.84,217.69a25.76,25.76,0,0,1-4.74-2,26.89,26.89,0,0,1-4.52-2.47,25.37,25.37,0,0,1,4.75,2A25,25,0,0,1,215.84,217.69Z"/><path class="cls-4" d="M237.48,214.48a38.27,38.27,0,0,1-1.9,4.59,39.71,39.71,0,0,1-2,4.54,17.17,17.17,0,0,1,1.52-4.74A17.57,17.57,0,0,1,237.48,214.48Z"/><path class="cls-4" d="M231.46,243.53a31.87,31.87,0,0,1-.81-5.59,29.4,29.4,0,0,1-.29-5.64,31.87,31.87,0,0,1,.81,5.59A29.39,29.39,0,0,1,231.46,243.53Z"/><path class="cls-4" d="M216.19,252.7a25.25,25.25,0,0,1-4-3.3,25.9,25.9,0,0,1-3.62-3.68,25.78,25.78,0,0,1,4,3.3A26.59,26.59,0,0,1,216.19,252.7Z"/><path class="cls-4" d="M189.79,255.33a30.65,30.65,0,0,1-3.06,4.62,29.52,29.52,0,0,1-3.49,4.3,30,30,0,0,1,3.07-4.61A29.55,29.55,0,0,1,189.79,255.33Z"/><path class="cls-4" d="M198.16,243a18.35,18.35,0,0,1-4-3.56,17.46,17.46,0,0,1-3.24-4.3c.12-.09,1.61,1.79,3.62,4S198.26,242.84,198.16,243Z"/><path class="cls-4" d="M178.24,245.77a7.84,7.84,0,0,1-4,.49,8,8,0,0,1-3.88-1.06c.05-.15,1.75.39,3.91.54S178.21,245.62,178.24,245.77Z"/><path class="cls-4" d="M165.64,267.65a18.69,18.69,0,0,1-1-4.3,18.15,18.15,0,0,1-.48-4.39,37.66,37.66,0,0,1,1.49,8.69Z"/><path class="cls-4" d="M150.76,275.19a32.29,32.29,0,0,1-5-2.87A32.42,32.42,0,0,1,141,269a32.37,32.37,0,0,1,5,2.88A32.85,32.85,0,0,1,150.76,275.19Z"/><path class="cls-4" d="M156.07,248.57c.11.1-1.34,1.82-3,4.06s-2.8,4.15-2.93,4.08a16.34,16.34,0,0,1,2.51-4.39A16,16,0,0,1,156.07,248.57Z"/><path class="cls-4" d="M144.57,253.62a18.84,18.84,0,0,1-5.62-2.81,18.84,18.84,0,0,1,5.62,2.81Z"/><g class="cls-7"><path d="M204,222.32c4.52.46,9.05.93,13.56,1.5a16.71,16.71,0,0,1,4.6,1,5.85,5.85,0,0,1,3.28,3.21,3.59,3.59,0,0,1-1.25,4.19,4.15,4.15,0,0,1-4.1-.18,21.43,21.43,0,0,1-3.38-2.65,18.86,18.86,0,0,0-6.94-3.63,11.79,11.79,0,0,1-3.32-1.16,2.88,2.88,0,0,1-1.44-3"/></g></g></g></svg>