<svg width="20" height="20" viewBox="0 0 20 20" fill="none" xmlns="http://www.w3.org/2000/svg">
<path fill-rule="evenodd" clip-rule="evenodd" d="M16.0252 5.91735C16.0849 5.89719 16.1644 5.93751 16.244 6.0484C16.244 6.0484 16.244 6.0484 19.8432 9.59678C20.052 9.80847 20.052 10.1311 19.8432 10.2923C19.8432 10.2923 19.8432 10.2923 16.244 13.9012C16.1644 14.002 16.0849 14.0323 16.0252 14.002C15.9656 13.9718 15.9258 13.871 15.9258 13.7399V6.1492C15.9258 6.01815 15.9656 5.93751 16.0252 5.91735Z" fill="#ED1C24"/>
<path fill-rule="evenodd" clip-rule="evenodd" d="M9.87163 0H10.1301L10.3688 0.100806C10.3688 0.100806 10.3688 0.100806 14.0774 3.82056C14.2365 4.03226 14.1769 4.18346 13.9183 4.18346C13.9183 4.18346 13.9183 4.18346 12.3772 4.18346C12.1187 4.18346 11.9 4.40524 11.9 4.66734C11.9 4.66734 11.9 4.66734 11.9 7.42943C11.9 7.69153 11.6912 7.90322 11.373 7.90322C11.373 7.90322 11.373 7.90322 8.6785 7.90322C8.41004 7.90322 8.20125 7.69153 8.20125 7.42943C8.20125 7.42943 8.20125 7.42943 8.20125 4.66734C8.20125 4.40524 7.99245 4.18346 7.72399 4.18346H6.08343C5.81498 4.18346 5.76526 4.03226 5.92435 3.82056C5.92435 3.82056 5.92435 3.82056 9.63301 0.100806L9.87163 0Z" fill="#ED1C24"/>
<path fill-rule="evenodd" clip-rule="evenodd" d="M4.07406 5.8367C4.13371 5.87703 4.17349 5.96775 4.17349 6.0988V13.8407C4.17349 13.9819 4.13371 14.0625 4.07406 14.0827C4.00446 14.1129 3.91497 14.0827 3.8056 14.002C3.8056 14.002 3.8056 14.002 0.156599 10.2923C-0.0521996 10.1311 -0.0521996 9.80848 0.156599 9.59678C0.156599 9.59678 0.156599 9.59678 3.8056 5.93751C3.91497 5.8367 4.00446 5.80646 4.07406 5.8367Z" fill="#ED1C24"/>
<path fill-rule="evenodd" clip-rule="evenodd" d="M8.67791 11.9355C8.67791 11.9355 8.67791 11.9355 11.3724 11.9355C11.6906 11.9355 11.9093 12.1472 11.9093 12.4194C11.9093 12.4194 11.9093 12.4194 11.9093 15.3327C11.9093 15.6552 12.1181 15.8669 12.3766 15.8669H13.8084C14.0768 15.8669 14.1763 16.0181 13.9675 16.1794C13.9675 16.1794 13.9675 16.1794 10.3682 19.8387C10.2588 19.9496 10.1296 20 10.0003 20C9.87104 20 9.73185 19.9496 9.63242 19.8387C9.63242 19.8387 9.63242 19.8387 6.03313 16.1794C5.81439 16.0181 5.92376 15.8669 6.18227 15.8669C6.18227 15.8669 6.18227 15.8669 7.7234 15.8669C7.99186 15.8669 8.20066 15.6552 8.20066 15.3327C8.20066 15.3327 8.20066 15.3327 8.20066 12.4194C8.20066 12.1472 8.40946 11.9355 8.67791 11.9355Z" fill="#ED1C24"/>
</svg>
