<svg width="16" height="16" viewBox="0 0 16 16" fill="none" xmlns="http://www.w3.org/2000/svg">
<path d="M8.80001 11.2H7.2V12.8H8.80001V11.2Z" fill="black"/>
<path d="M7.99998 0C3.58173 0 0 3.58173 0 7.99998C0 12.4182 3.58173 16 7.99998 16C12.4182 16 16 12.4182 16 7.99998C16 3.58173 12.4183 0 7.99998 0ZM7.99998 14.552C4.38142 14.552 1.44799 11.6185 1.44799 7.99998C1.44799 4.38142 4.38142 1.44799 7.99998 1.44799C11.6167 1.45237 14.5476 4.38322 14.552 7.99998C14.552 11.6186 11.6186 14.552 7.99998 14.552Z" fill="black"/>
<path d="M11.112 5.64C10.7004 3.92126 8.97354 2.86159 7.2548 3.27311C5.80981 3.61909 4.79308 4.91419 4.79998 6.40001H6.39999C6.4751 5.51636 7.25233 4.8609 8.13597 4.93601C9.01962 5.01112 9.67509 5.78835 9.59997 6.672C9.43655 7.46715 8.72322 8.02833 7.91199 7.99998C7.51876 7.99998 7.19998 8.31877 7.19998 8.712V10.4H8.79999V9.48798C10.492 9.05167 11.5212 7.33878 11.112 5.64Z" fill="black"/>
</svg>
