<svg width="24" height="24" viewBox="0 0 24 24" fill="none" xmlns="http://www.w3.org/2000/svg">
<path d="M8.36362 4V4.72728V5.45453V9.33334H13.697V5.45453V4.72728V4H8.36362Z" fill="#681D82"/>
<path d="M21.7687 18.315L20.7137 17.4875C20.7337 17.3275 20.7487 17.165 20.7487 17C20.7487 16.835 20.7337 16.6725 20.7137 16.5125L21.7712 15.685C21.8662 15.61 21.8937 15.475 21.8312 15.365L20.8312 13.6325C20.7687 13.525 20.6387 13.48 20.5262 13.525L19.2812 14.0275C19.0237 13.83 18.7412 13.6625 18.4363 13.535L18.2488 12.21C18.2262 12.0925 18.1237 12 17.9988 12H15.9988C15.8738 12 15.7713 12.0925 15.7513 12.21L15.5638 13.535C15.2588 13.6625 14.9763 13.8275 14.7188 14.0275L13.4738 13.525C13.3613 13.4825 13.2313 13.525 13.1688 13.6325L12.1688 15.365C12.1062 15.4725 12.1338 15.6075 12.2288 15.685L13.2837 16.5125C13.2638 16.6725 13.2488 16.835 13.2488 17C13.2488 17.165 13.2638 17.3275 13.2837 17.4875L12.2288 18.315C12.1338 18.39 12.1062 18.525 12.1688 18.635L13.1688 20.3675C13.2313 20.475 13.3613 20.52 13.4738 20.475L14.7187 19.9725C14.9763 20.17 15.2587 20.3375 15.5637 20.465L15.7512 21.79C15.7712 21.9075 15.8737 22 15.9987 22H17.9987C18.1237 22 18.2262 21.9075 18.2462 21.79L18.4337 20.465C18.7387 20.3375 19.0212 20.1725 19.2787 19.9725L20.5237 20.475C20.6362 20.5175 20.7662 20.475 20.8287 20.3675L21.8287 18.635C21.8912 18.5275 21.8637 18.3925 21.7687 18.315ZM16.9987 18.75C16.0312 18.75 15.2487 17.9675 15.2487 17C15.2487 16.0325 16.0312 15.25 16.9987 15.25C17.9662 15.25 18.7487 16.0325 18.7487 17C18.7487 17.9675 17.9662 18.75 16.9987 18.75Z" fill="#681D82"/>
<path fill-rule="evenodd" clip-rule="evenodd" d="M19.8543 8.18259L16.932 4.29063C16.7946 4.10769 16.5792 4 16.3504 4H15.1515V4.72728V5.45456V10.0606C15.1515 10.4622 14.8259 10.7879 14.4242 10.7879H7.63637C7.23472 10.7879 6.90909 10.4622 6.90909 10.0606V5.45453V4.72728V4H4.72728C4.32563 4 4 4.32569 4 4.72728V19.2727C4 19.6743 4.32563 20 4.72728 20H6.90909V19.2727V18.5454V17.8182V14.9091C6.90909 14.5074 7.23472 14.1818 7.63637 14.1818H11.6971L12.3042 13.13C12.6206 12.5856 13.2731 12.3802 13.8271 12.5895L13.8376 12.5935L14.6006 12.9014C14.6161 12.8923 14.6317 12.8832 14.6473 12.8742L14.7631 12.056L14.7654 12.0423C14.8638 11.4642 15.3661 11 15.9988 11H17.9988C18.6351 11 19.1242 11.465 19.2309 12.0217L19.2355 12.0457L19.3529 12.8752L19.3985 12.9018L20 12.659V8.61928C20 8.46181 19.9488 8.3085 19.8543 8.18259ZM14.6506 20H12.9567L12.1688 18.635C12.1525 18.6063 12.1423 18.576 12.1379 18.5455H15.6364V19.2727V20H14.755C14.7429 19.9909 14.7308 19.9817 14.7188 19.9725L14.6506 20ZM20 13.7374L19.2813 14.0275C19.0238 13.83 18.7413 13.6625 18.4363 13.535L18.2488 12.21C18.2262 12.0925 18.1238 12 17.9988 12H15.9988C15.8738 12 15.7713 12.0925 15.7513 12.21L15.5638 13.535C15.2588 13.6625 14.9763 13.8275 14.7188 14.0275L13.4738 13.525C13.3613 13.4825 13.2313 13.525 13.1688 13.6325L12.8517 14.1818H16.3637C17.2207 14.1818 17.1693 14.3081 17.1093 14.4555C17.0253 14.6617 16.9245 14.9091 19.2727 14.9091C19.6744 14.9091 20 14.5834 20 14.1818V13.7374ZM11.1437 15.6364H8.36362V17.0909H12.1691L12.2489 17.0283L12.2488 17L12.2489 16.9717L11.6041 16.4659L11.5967 16.4599C11.3416 16.2518 11.1821 15.9538 11.1437 15.6364ZM13.2502 17.0909C13.2493 17.0607 13.2488 17.0304 13.2488 17C13.2488 16.835 13.2638 16.6725 13.2838 16.5125L12.2288 15.685C12.2111 15.6706 12.1958 15.6542 12.183 15.6364H15.6363V15.9008C15.3939 16.2011 15.2488 16.5834 15.2488 17C15.2488 17.0305 15.2495 17.0608 15.2511 17.0909H13.2502ZM11.1358 18.5455H8.36362V19.2727V20H11.802L11.2993 19.1291C11.1951 18.9456 11.1415 18.7452 11.1358 18.5455Z" fill="#681D82"/>
</svg>
