<svg width="24" height="24" viewBox="0 0 24 24" fill="none" xmlns="http://www.w3.org/2000/svg">
<g clip-path="url(#clip0)">
<path d="M12 8.72731C10.1945 8.72731 8.72729 10.1946 8.72729 12C8.72729 13.8055 10.1945 15.2728 12 15.2728C13.8055 15.2728 15.2727 13.8055 15.2727 12C15.2727 10.1946 13.8054 8.72731 12 8.72731Z" fill="black"/>
<path d="M12 3.81821C6.54546 3.81821 1.88729 7.2109 0 12C1.88729 16.7891 6.54546 20.1819 12 20.1819C17.46 20.1819 22.1128 16.7891 24.0001 12C22.1128 7.2109 17.46 3.81821 12 3.81821ZM12 17.4545C8.98911 17.4545 6.54546 15.0109 6.54546 12C6.54546 8.98907 8.98911 6.54546 12 6.54546C15.0109 6.54546 17.4546 8.98912 17.4546 12C17.4546 15.0109 15.0109 17.4545 12 17.4545Z" fill="black"/>
</g>
<defs>
<clipPath id="clip0">
<rect width="24" height="24" fill="white"/>
</clipPath>
</defs>
</svg>
