<svg width="229" height="438" viewBox="0 0 229 438" fill="none" xmlns="http://www.w3.org/2000/svg">
<g clip-path="url(#clip0_1598_9445)">
<g filter="url(#filter0_d_1598_9445)">
<path d="M50.8083 92.1497C50.3487 88.0047 50.2984 83.8245 50.6583 79.6697C51.0315 75.4896 52.6319 71.513 55.2583 68.2397C57.9883 65.0797 62.1883 63.0497 66.3183 63.5797C67.3797 63.7165 68.4205 64.0132 69.457 64.3087C70.9205 64.7259 72.3755 65.1407 73.8683 65.0997C76.0972 65.0328 78.0887 64 80.0766 62.969C80.7643 62.6124 81.4518 62.2558 82.1483 61.9397C86.4206 60.0003 91.2066 59.4985 95.7883 60.5097C98.2032 60.9649 100.44 62.0952 102.238 63.7697C103.124 64.6146 103.781 65.671 104.147 66.8395C104.512 68.0081 104.575 69.2504 104.328 70.4497C107.333 70.32 110.342 70.5857 113.278 71.2397C116.239 71.9035 118.822 73.6977 120.478 76.2397C121.968 78.8497 121.858 82.4797 119.728 84.5897C121.147 84.4037 122.584 84.7522 123.759 85.5674C124.935 86.3826 125.765 87.6061 126.088 88.9997C126.354 90.3969 126.212 91.841 125.68 93.1601C125.149 94.4791 124.249 95.6175 123.088 96.4397C120.312 98.1393 117.028 98.8081 113.81 98.3305C110.986 109.219 104.422 134.041 100.178 146.22C94.6482 162.09 77.9382 159.22 77.9382 159.22C77.9382 159.22 77.0251 162.773 75.7748 167.549L75.8083 167.56C84.3183 171.56 115.688 187.01 124.278 213.75L124.243 213.741C128.589 223.467 133.541 233.201 138.505 242.958C146.074 257.835 153.671 272.767 159.193 287.812C160.751 292.057 161.447 296.57 161.239 301.088C161.031 305.605 159.925 310.035 157.984 314.119C156.043 318.204 153.307 321.86 149.936 324.874L83.8697 383.797L58.4795 354.896L117.548 299.376L90.2984 247.227L59.9283 305.18L25.2483 371.73L-17.3717 351.73L-63.4217 328.18L-33.9617 271.9L-15.6517 208.9C-28.5917 217.48 -52.6017 229.17 -81.3517 223.07C-112.492 216.45 -97.5417 99.0001 -97.5417 99.0001L-63.3217 98.1201L-59.9117 180.93L-21.2317 163.85L-21.1317 164C-18.8017 163 -16.7617 162 -15.6817 161.45C3.13084 151.186 16.258 148.859 34.7617 154.019L45.3592 115.306C42.6605 114.985 34.9872 112.753 37.7382 103.6C40.421 94.6738 47.2675 97.4191 49.8583 98.8712L51.6844 92.2005L50.8083 92.1497Z" fill="#681D82"/>
</g>
</g>
<g clip-path="url(#clip1_1598_9445)">
<path d="M124.238 213.74L90.7683 246.33L59.9283 305.18L25.2483 371.73L-17.3717 351.73L-63.4217 328.18L-33.9617 271.9L-15.6517 208.9C-28.5917 217.48 -52.6017 229.17 -81.3517 223.07C-112.492 216.45 -97.5417 99.0001 -97.5417 99.0001L-63.3217 98.1201L-59.9117 180.93L-21.2317 163.85L-21.1317 164C-18.8017 163 -16.7617 162 -15.6817 161.45C5.70828 149.78 19.7483 148.37 42.6983 156.56L75.8083 167.56C84.3183 171.56 115.688 187.01 124.278 213.75" fill="#681D82"/>
<g opacity="0.3">
<path opacity="0.3" d="M25.0981 152.24C29.1581 217.16 33.2148 282.08 37.2681 347L25.2681 371.74L25.0981 152.24Z" fill="black"/>
</g>
<path d="M62.798 219.59C62.658 219.65 61.428 216.59 59.728 212.9C58.028 209.21 56.488 206.28 56.628 206.21C57.1155 206.752 57.5322 207.353 57.868 208C58.528 209.16 59.398 210.8 60.248 212.66C61.098 214.52 61.788 216.23 62.248 217.49C62.523 218.163 62.708 218.869 62.798 219.59V219.59Z" fill="#FAFAFA"/>
<path d="M41.6346 318.38C41.7746 318.44 43.0046 315.38 44.7046 311.69C46.4046 308 47.9446 305.07 47.8046 305C47.3171 305.542 46.9004 306.143 46.5646 306.79C45.9046 307.95 45.0346 309.59 44.1846 311.45C43.3346 313.31 42.6446 315.02 42.1846 316.28C41.9096 316.953 41.7247 317.659 41.6346 318.38V318.38Z" fill="#FAFAFA"/>
<path d="M90.0378 205.9C87.9757 207.504 85.8037 208.961 83.5378 210.26C81.3677 211.717 79.1026 213.026 76.7578 214.18C78.8298 212.591 81.0008 211.134 83.2578 209.82C85.4279 208.364 87.693 207.055 90.0378 205.9V205.9Z" fill="#FAFAFA"/>
<path d="M78.2182 196C77.8658 194.252 77.6849 192.473 77.6782 190.69C77.5102 188.91 77.5102 187.119 77.6782 185.34C78.037 187.09 78.2179 188.873 78.2182 190.66C78.3864 192.436 78.3864 194.224 78.2182 196V196Z" fill="#FAFAFA"/>
<path d="M105.408 194.14C103.697 193.382 102.057 192.472 100.508 191.42C98.8689 190.506 97.3159 189.445 95.8682 188.25C97.5836 189.007 99.227 189.917 100.778 190.97C102.415 191.883 103.965 192.944 105.408 194.14V194.14Z" fill="#FAFAFA"/>
<path d="M63.8682 248.08C64.607 245.714 65.5091 243.402 66.5682 241.16C67.4741 238.854 68.5366 236.612 69.7482 234.45C69.0075 236.816 68.1053 239.128 67.0482 241.37C66.1447 243.678 65.0821 245.92 63.8682 248.08V248.08Z" fill="#FAFAFA"/>
<path d="M51.7281 260.34C50.7674 258.995 49.9497 257.554 49.2881 256.04C48.4652 254.6 47.7948 253.079 47.2881 251.5C48.2487 252.845 49.0665 254.286 49.7281 255.8C50.551 257.24 51.2213 258.761 51.7281 260.34V260.34Z" fill="#FAFAFA"/>
<path d="M61.868 276.84C60.235 277.547 58.4999 277.989 56.728 278.15C54.978 278.487 53.1851 278.541 51.418 278.31C51.418 278.16 53.778 278.05 56.648 277.64C59.518 277.23 61.868 276.69 61.868 276.84Z" fill="#FAFAFA"/>
<path d="M74.8682 258.79C75.2962 257.119 75.8891 255.494 76.6382 253.94C77.2299 252.317 77.9872 250.758 78.8982 249.29C78.4692 250.962 77.8728 252.587 77.1182 254.14C76.5321 255.764 75.778 257.323 74.8682 258.79Z" fill="#FAFAFA"/>
<path d="M43.2581 296.93C43.1281 297.01 41.6581 294.93 39.6381 292.65C37.6181 290.37 35.8181 288.57 35.9281 288.46C38.9308 290.746 41.4267 293.63 43.2581 296.93V296.93Z" fill="#FAFAFA"/>
<path d="M37.5282 255.92C36.8101 257.662 35.9365 259.335 34.9182 260.92C34.04 262.596 33.0125 264.189 31.8481 265.68C32.5693 263.94 33.4427 262.267 34.4581 260.68C35.3354 259.004 36.3629 257.41 37.5282 255.92V255.92Z" fill="#FAFAFA"/>
<path d="M41.6081 241.8C39.7138 241.572 37.8432 241.177 36.0181 240.62C34.1509 240.227 32.3234 239.665 30.5581 238.94C32.4534 239.163 34.3245 239.558 36.1481 240.12C38.0162 240.51 39.8441 241.073 41.6081 241.8V241.8Z" fill="#FAFAFA"/>
<path d="M41.3682 212.82C42.4676 214.104 43.4703 215.468 44.3682 216.9C45.3983 218.229 46.3276 219.633 47.1482 221.1C44.7919 218.675 42.8525 215.878 41.4082 212.82H41.3682Z" fill="#FAFAFA"/>
<path d="M32.1584 211.4C31.1253 212.638 29.9657 213.764 28.6984 214.76C27.5408 215.891 26.2671 216.897 24.8984 217.76C25.9239 216.519 27.0844 215.395 28.3584 214.41C29.5131 213.273 30.7871 212.264 32.1584 211.4V211.4Z" fill="#FAFAFA"/>
<path d="M39.4284 196.23C37.6901 194.967 36.1353 193.47 34.8084 191.78C33.3498 190.198 32.118 188.421 31.1484 186.5C31.2784 186.42 32.9184 188.76 35.2084 191.44C37.4984 194.12 39.5384 196.12 39.4284 196.23Z" fill="#FAFAFA"/>
<path d="M64.9982 191.56C63.1953 192.393 61.3211 193.062 59.3982 193.56C57.5261 194.224 55.5984 194.719 53.6382 195.04C55.449 194.217 57.3256 193.548 59.2482 193.04C61.1177 192.378 63.0418 191.883 64.9982 191.56V191.56Z" fill="#FAFAFA"/>
<path d="M28.9979 167.2C28.8379 167.2 28.9079 164.91 28.5579 162.13C28.2079 159.35 27.5579 157.13 27.7379 157.13C28.4951 158.697 28.9497 160.394 29.0779 162.13C29.3663 163.81 29.3392 165.53 28.9979 167.2V167.2Z" fill="#FAFAFA"/>
<path d="M26.1582 290.14C23.9547 291.571 21.6597 292.858 19.2882 293.99C16.9977 295.276 14.6222 296.406 12.1782 297.37C14.3834 295.944 16.6782 294.661 19.0482 293.53C21.34 292.242 23.7153 291.11 26.1582 290.14V290.14Z" fill="#FAFAFA"/>
<path d="M50.8083 92.1497C50.3487 88.0047 50.2984 83.8245 50.6583 79.6697C51.0315 75.4896 52.6319 71.513 55.2583 68.2397C57.9883 65.0797 62.1883 63.0497 66.3183 63.5797C68.8783 63.9097 71.3183 65.1697 73.8683 65.0997C76.8683 65.0097 79.4383 63.1697 82.1483 61.9397C86.4206 60.0003 91.2066 59.4985 95.7883 60.5097C98.2032 60.9649 100.44 62.0952 102.238 63.7697C103.124 64.6146 103.781 65.671 104.147 66.8395C104.512 68.0081 104.575 69.2504 104.328 70.4497C107.333 70.32 110.342 70.5857 113.278 71.2397C116.239 71.9035 118.822 73.6977 120.478 76.2397C121.968 78.8497 121.858 82.4797 119.728 84.5897C121.147 84.4037 122.584 84.7522 123.759 85.5674C124.935 86.3826 125.765 87.6061 126.088 88.9997C126.354 90.3969 126.212 91.841 125.68 93.1601C125.149 94.4791 124.249 95.6175 123.088 96.4397C120.292 98.1519 116.979 98.8179 113.738 98.3197C110.958 97.7897 107.738 97.0097 105.508 95.3197" fill="#263238"/>
<path d="M48.6382 186.35C54.151 187.768 60.0008 186.951 64.9136 184.076C69.8264 181.201 73.4043 176.501 74.8682 171C76.5582 164.59 77.9382 159.22 77.9382 159.22C77.9382 159.22 94.6482 162.09 100.178 146.22C105.708 130.35 115.178 93.0102 115.178 93.0102C107.453 86.0997 98.0226 81.3766 87.8618 79.3286C77.7009 77.2806 67.1775 77.9819 57.3782 81.3602L54.3782 82.3602L33.1982 159.73C32.4392 162.492 32.2376 165.378 32.6052 168.218C32.9729 171.059 33.9024 173.798 35.3395 176.276C36.7767 178.754 38.6927 180.921 40.9759 182.65C43.2591 184.38 45.8639 185.638 48.6382 186.35V186.35Z" fill="#F1C9BA"/>
<path d="M78.0381 159C70.6606 156.675 64.141 152.209 59.3081 146.17C59.3081 146.17 60.3681 159.24 76.6881 163.17L78.0381 159Z" fill="#DAA188"/>
<path d="M50.8682 99.5101C50.6382 99.3001 41.0382 92.6201 37.7382 103.6C34.4382 114.58 46.1382 115.6 46.2582 115.31C46.3782 115.02 50.8682 99.5101 50.8682 99.5101Z" fill="#F1C9BA"/>
<path d="M44.1483 110.14C44.1483 110.14 43.9083 110.22 43.5483 110.27C43.0346 110.328 42.5186 110.184 42.1083 109.87C41.1083 109.1 40.6483 106.96 41.1983 104.97C41.449 104.02 41.9104 103.138 42.5483 102.39C42.759 102.085 43.0397 101.836 43.3668 101.662C43.6939 101.488 44.0579 101.394 44.4283 101.39C44.6709 101.388 44.9062 101.474 45.0902 101.632C45.2742 101.79 45.3943 102.01 45.4283 102.25C45.4883 102.6 45.3483 102.8 45.4283 102.84C45.5083 102.88 45.7283 102.72 45.7683 102.24C45.7897 101.953 45.712 101.667 45.5483 101.43C45.4297 101.269 45.2802 101.133 45.1086 101.03C44.9369 100.927 44.7464 100.859 44.5483 100.83C44.0721 100.783 43.5919 100.859 43.1539 101.052C42.7159 101.245 42.3351 101.547 42.0483 101.93C41.294 102.74 40.7483 103.722 40.4583 104.79C39.8683 107.02 40.3783 109.43 41.8283 110.37C42.0966 110.543 42.4004 110.654 42.7171 110.693C43.0339 110.733 43.3555 110.701 43.6583 110.6C44.0483 110.4 44.1783 110.18 44.1483 110.14Z" fill="#DAA188"/>
<path d="M101.718 115.9C101.525 116.491 101.109 116.984 100.558 117.274C100.007 117.563 99.3648 117.626 98.7681 117.45C98.4721 117.376 98.1939 117.243 97.9499 117.059C97.7059 116.876 97.5011 116.646 97.3473 116.382C97.1936 116.119 97.0941 115.827 97.0548 115.524C97.0154 115.222 97.0369 114.914 97.1181 114.62C97.3114 114.028 97.7271 113.534 98.2776 113.243C98.828 112.952 99.4701 112.886 100.068 113.06C100.364 113.135 100.643 113.269 100.887 113.453C101.131 113.638 101.336 113.869 101.489 114.133C101.643 114.398 101.742 114.69 101.782 114.994C101.821 115.297 101.799 115.605 101.718 115.9V115.9Z" fill="#263238"/>
<path d="M104.688 114.36C104.308 114.56 103.018 112.72 100.568 111.9C98.1182 111.08 95.9282 111.71 95.7682 111.32C95.6782 111.15 96.1482 110.71 97.1182 110.4C98.4291 110.014 99.8283 110.049 101.118 110.5C102.39 110.921 103.494 111.738 104.268 112.83C104.798 113.66 104.868 114.28 104.688 114.36Z" fill="#263238"/>
<path d="M77.728 107.84C77.535 108.443 77.1114 108.945 76.5494 109.238C75.9875 109.53 75.3328 109.588 74.728 109.4C74.432 109.325 74.1539 109.193 73.9099 109.009C73.6659 108.826 73.461 108.596 73.3073 108.332C73.1536 108.068 73.0541 107.777 73.0147 107.474C72.9754 107.171 72.9969 106.864 73.078 106.57C73.1725 106.27 73.325 105.992 73.5269 105.752C73.7288 105.511 73.9762 105.313 74.2548 105.168C74.5334 105.023 74.8378 104.935 75.1506 104.907C75.4635 104.88 75.7786 104.915 76.078 105.01C76.3741 105.084 76.6522 105.217 76.8962 105.4C77.1402 105.583 77.3451 105.814 77.4988 106.077C77.6525 106.341 77.752 106.633 77.7913 106.935C77.8307 107.238 77.8092 107.545 77.728 107.84V107.84Z" fill="#263238"/>
<path d="M80.5383 106.76C80.1583 106.97 78.8683 105.12 76.4283 104.3C73.9883 103.48 71.7883 104.11 71.6183 103.72C71.5383 103.55 71.9983 103.11 72.9683 102.81C74.2787 102.424 75.6765 102.456 76.9683 102.9C78.241 103.324 79.347 104.139 80.1283 105.23C80.6483 106.06 80.7283 106.68 80.5383 106.76Z" fill="#263238"/>
<path d="M83.3279 127.84C83.3279 127.7 84.9679 127.94 87.5279 128.45C88.1779 128.6 88.8079 128.67 89.0479 128.28C89.3242 127.652 89.3977 126.953 89.2579 126.28C89.1779 124.57 89.0979 122.78 89.0079 120.91C88.7179 113.3 88.7279 107.12 89.0079 107.11C89.2879 107.1 89.7979 113.27 90.0879 120.88C90.1479 122.75 90.1979 124.54 90.2479 126.25C90.3923 127.133 90.2148 128.038 89.7479 128.8C89.585 128.991 89.3803 129.142 89.1496 129.241C88.9189 129.34 88.6685 129.384 88.4179 129.37C88.0433 129.352 87.6731 129.281 87.3179 129.16C84.8679 128.48 83.2879 128 83.3279 127.84Z" fill="#263238"/>
<path d="M75.5783 127.12C75.9783 127.23 75.0983 129.88 76.7283 132.52C78.3583 135.16 81.2883 135.82 81.1783 136.19C81.1783 136.37 80.3783 136.5 79.1783 136.13C77.6186 135.627 76.2845 134.594 75.4083 133.21C74.5763 131.878 74.2898 130.277 74.6083 128.74C74.8683 127.6 75.3983 127 75.5783 127.12Z" fill="#263238"/>
<path d="M105.228 109.77C104.618 110.18 103.128 109.04 101.118 108.33C99.1082 107.62 97.2582 107.45 97.0582 106.74C96.9782 106.4 97.4382 105.93 98.3582 105.66C99.5713 105.35 100.851 105.426 102.018 105.88C103.201 106.3 104.224 107.075 104.948 108.1C105.468 108.91 105.508 109.56 105.228 109.77Z" fill="#263238"/>
<path d="M80.3282 96.8805C79.9582 97.0805 79.3282 96.7505 78.6082 96.3205C77.6924 95.7716 76.7324 95.2999 75.7382 94.9105C74.7276 94.5466 73.6869 94.2722 72.6282 94.0905C71.7782 93.9205 71.1182 93.7905 70.9682 93.3905C70.8182 92.9905 71.2982 92.3905 72.3782 91.9905C73.8122 91.5084 75.3702 91.5474 76.7782 92.1005C78.2018 92.6064 79.4042 93.5931 80.1782 94.8905C80.7282 95.9105 80.6782 96.6905 80.3282 96.8805Z" fill="#263238"/>
<path d="M114.348 98.1696C105.99 97.6708 98.0097 94.5178 91.5678 89.1696C84.3878 83.2896 75.3979 79.1696 72.9479 80.3296C70.4979 81.4896 68.1679 89.7296 59.5879 90.3296C59.5879 90.3296 56.5279 106.33 50.3079 104.33C44.0879 102.33 53.6479 78.5596 53.6479 78.5596L70.8679 74.5996L88.5478 75.2496L104.418 78.8496L118.148 86.7396L114.348 98.1696Z" fill="#263238"/>
</g>
<g filter="url(#filter1_d_1598_9445)">
<path d="M67.0719 382.204L75.9591 372.83L63.2485 357.423L48.9519 359.387C47.6209 359.572 46.1319 359.764 44.4484 359.923C42.4818 360.103 40.499 359.95 38.5835 359.47C36.1829 358.98 33.8616 358.16 31.6861 357.033C29.7993 355.815 27.4056 357.453 28.1204 359.332C28.8353 361.21 33.9564 364.686 41.1213 365.801C48.2862 366.916 38.4898 372.494 34.9465 374.57C31.4032 376.646 20.8062 383.664 20.6161 385.245C20.3394 387.555 22.8453 388.292 26.3028 386.131C29.7603 383.97 40.6825 378.144 41.7521 380.027L41.7734 380.083C41.4002 381.876 41.597 383.741 42.3363 385.416C43.0757 387.092 44.3205 388.494 45.8965 389.427C49.0059 391.272 53.4462 393.381 55.5813 391.99C59.5939 389.404 67.0719 382.204 67.0719 382.204Z" fill="#F1C9BA"/>
</g>
<path d="M58.4795 354.896L83.8697 383.797L149.936 324.874C153.307 321.86 156.043 318.204 157.984 314.119C159.925 310.035 161.031 305.605 161.239 301.088C161.447 296.57 160.751 292.057 159.193 287.812C150.02 262.818 135.12 238.137 124.135 213.5L89.1348 245L117.548 299.376L58.4795 354.896Z" fill="#681D82"/>
<path d="M151.405 323.478L151.096 323.786L150.153 324.653L146.468 327.977L132.615 340.379L84.5082 383.248L84.3247 383.399L84.1597 383.233C76.0022 374.578 67.4742 364.861 58.2862 355.074L58.1128 354.89L58.2928 354.707L59.9321 353.178L117.368 299.25L117.363 299.55C106.635 277.5 97.1348 261 90.6348 248C101.635 267.5 111.135 286.5 117.663 299.246L117.82 299.393L117.659 299.545L60.3089 353.588L58.6739 355.126L58.6805 354.76C67.8818 364.551 76.3916 374.277 84.5359 382.927L84.1874 382.912L132.428 340.19L146.401 327.832L150.137 324.572L151.107 323.737L151.405 323.478Z" fill="#263238"/>
<path d="M91.495 233.051C90.4963 231.518 89.6481 229.892 88.9624 228.196C88.1136 226.575 87.4235 224.876 86.9018 223.122C87.8954 224.658 88.7433 226.284 89.4344 227.977C90.2778 229.601 90.9677 231.299 91.495 233.051V233.051Z" fill="#FAFAFA"/>
<path d="M120.984 221.648C119.57 220.446 118.275 219.112 117.114 217.665C115.82 216.334 114.656 214.885 113.635 213.335C115.047 214.539 116.343 215.872 117.505 217.318C118.798 218.649 119.963 220.098 120.984 221.648V221.648Z" fill="#FAFAFA"/>
<path d="M110.843 231.644C109.284 232.44 107.591 232.94 105.85 233.117C104.131 233.452 102.365 233.47 100.64 233.169C100.645 233.012 102.967 233.029 105.776 232.6C108.586 232.171 110.789 231.504 110.843 231.644Z" fill="#FAFAFA"/>
<path d="M123.984 247.154C123.277 245.545 122.737 243.867 122.374 242.148C121.834 240.473 121.461 238.748 121.259 237C121.958 238.616 122.498 240.296 122.874 242.015C123.409 243.689 123.781 245.41 123.984 247.154V247.154Z" fill="#FAFAFA"/>
<path d="M117.815 261.894C116.291 260.928 114.863 259.817 113.549 258.579C112.131 257.472 110.82 256.234 109.635 254.881C111.163 255.844 112.595 256.953 113.91 258.192C115.329 259.297 116.637 260.537 117.815 261.894V261.894Z" fill="#FAFAFA"/>
<path d="M125.916 283.057C124.212 283.287 122.49 283.345 120.774 283.232C119.054 283.282 117.333 283.167 115.635 282.888C117.341 282.653 119.067 282.593 120.786 282.709C122.503 282.648 124.222 282.765 125.916 283.057V283.057Z" fill="#FAFAFA"/>
<path d="M137.174 267C137.349 268.648 137.417 270.306 137.377 271.964C137.511 273.613 137.541 275.27 137.468 276.924C137.026 275.315 136.82 273.651 136.857 271.984C136.725 270.316 136.832 268.638 137.174 267V267Z" fill="#FAFAFA"/>
<path d="M150.052 306.045C148.886 304.562 147.855 302.978 146.969 301.312C145.934 299.735 145.053 298.061 144.338 296.315C145.504 297.799 146.535 299.383 147.42 301.048C148.456 302.626 149.337 304.299 150.052 306.045V306.045Z" fill="#FAFAFA"/>
<path d="M140.043 320.779C138.33 320.514 136.649 320.073 135.027 319.464C133.36 319.019 131.742 318.41 130.196 317.643C131.908 317.912 133.589 318.353 135.212 318.959C136.878 319.408 138.495 320.017 140.043 320.779V320.779Z" fill="#FAFAFA"/>
<path d="M117.186 334.251C117.073 336.098 116.793 337.932 116.349 339.728C116.064 341.557 115.608 343.354 114.987 345.096C115.101 343.25 115.386 341.418 115.838 339.623C116.118 337.794 116.57 335.995 117.186 334.251V334.251Z" fill="#FAFAFA"/>
<path d="M119.606 319.546C117.831 319.282 116.104 318.759 114.481 317.994C112.777 317.397 111.176 316.539 109.735 315.452C109.806 315.32 111.948 316.4 114.7 317.562C117.452 318.724 119.63 319.358 119.606 319.546Z" fill="#FAFAFA"/>
<path d="M102.69 330.423C101.753 331.417 100.572 332.15 99.265 332.547C98.0213 333.104 96.6559 333.333 95.2985 333.214C95.2809 333.057 97.0506 332.833 99.074 332.063C101.097 331.292 102.599 330.3 102.69 330.423Z" fill="#FAFAFA"/>
<path d="M100.44 355.571C99.4017 354.522 98.491 353.353 97.7275 352.089C96.8167 350.925 96.0515 349.655 95.4487 348.306C97.3942 350.522 99.0726 352.959 100.449 355.567L100.44 355.571Z" fill="#FAFAFA"/>
<path d="M90.101 368.662C88.1755 368.665 86.2535 368.496 84.3581 368.157C82.4269 367.99 80.5146 367.65 78.644 367.142C80.5713 367.142 82.4946 367.314 84.3912 367.657C86.3204 367.823 88.2311 368.159 90.101 368.662V368.662Z" fill="#FAFAFA"/>
<path d="M83.7443 342.273C83.8862 342.318 83.2923 344.487 82.7262 347.217C82.16 349.947 81.9273 352.159 81.7799 352.15C81.6625 350.459 81.8093 348.759 82.2148 347.112C82.4639 345.428 82.9803 343.794 83.7443 342.273V342.273Z" fill="#FAFAFA"/>
<path d="M75.4269 351.684C73.3375 351.972 71.2145 351.908 69.1465 351.493C71.2359 351.205 73.3589 351.269 75.4269 351.684V351.684Z" fill="#FAFAFA"/>
<g opacity="0.2">
<path opacity="0.2" d="M116.224 298.324C120.519 296.844 124.828 295.369 129.16 293.993C130.636 293.436 132.183 293.092 133.755 292.969C134.542 292.92 135.331 293.031 136.074 293.295C136.818 293.559 137.5 293.971 138.08 294.505C138.646 295.057 139.014 295.78 139.127 296.563C139.24 297.345 139.091 298.143 138.705 298.833C138.261 299.399 137.678 299.841 137.012 300.114C136.347 300.387 135.621 300.483 134.908 300.391C133.485 300.203 132.084 299.873 130.728 299.405C128.175 298.732 125.51 298.602 122.905 299.024C121.762 299.312 120.582 299.427 119.405 299.365C118.81 299.321 118.244 299.094 117.784 298.714C117.325 298.335 116.994 297.822 116.838 297.247" fill="black"/>
</g>
<path d="M136.246 302.593C136.174 302.626 135.275 302.017 133.648 301.216C129.41 299.124 124.63 298.388 119.958 299.109C118.169 299.386 117.094 299.729 117.065 299.643C117.285 299.489 117.531 299.375 117.791 299.307C118.474 299.066 119.174 298.875 119.885 298.735C122.242 298.268 124.663 298.215 127.039 298.577C129.413 298.934 131.705 299.705 133.811 300.854C134.446 301.206 135.056 301.601 135.637 302.037C135.873 302.183 136.079 302.371 136.246 302.593Z" fill="#263238"/>
<defs>
<filter id="filter0_d_1598_9445" x="-121.129" y="44" width="302.404" height="363.797" filterUnits="userSpaceOnUse" color-interpolation-filters="sRGB">
<feFlood flood-opacity="0" result="BackgroundImageFix"/>
<feColorMatrix in="SourceAlpha" type="matrix" values="0 0 0 0 0 0 0 0 0 0 0 0 0 0 0 0 0 0 127 0" result="hardAlpha"/>
<feOffset dy="4"/>
<feGaussianBlur stdDeviation="10"/>
<feComposite in2="hardAlpha" operator="out"/>
<feColorMatrix type="matrix" values="0 0 0 0 1 0 0 0 0 1 0 0 0 0 1 0 0 0 0.3 0"/>
<feBlend mode="normal" in2="BackgroundImageFix" result="effect1_dropShadow_1598_9445"/>
<feBlend mode="normal" in="SourceGraphic" in2="effect1_dropShadow_1598_9445" result="shape"/>
</filter>
<filter id="filter1_d_1598_9445" x="0.595215" y="340.614" width="95.3638" height="75.8269" filterUnits="userSpaceOnUse" color-interpolation-filters="sRGB">
<feFlood flood-opacity="0" result="BackgroundImageFix"/>
<feColorMatrix in="SourceAlpha" type="matrix" values="0 0 0 0 0 0 0 0 0 0 0 0 0 0 0 0 0 0 127 0" result="hardAlpha"/>
<feOffset dy="4"/>
<feGaussianBlur stdDeviation="10"/>
<feComposite in2="hardAlpha" operator="out"/>
<feColorMatrix type="matrix" values="0 0 0 0 1 0 0 0 0 1 0 0 0 0 1 0 0 0 0.3 0"/>
<feBlend mode="normal" in2="BackgroundImageFix" result="effect1_dropShadow_1598_9445"/>
<feBlend mode="normal" in="SourceGraphic" in2="effect1_dropShadow_1598_9445" result="shape"/>
</filter>
<clipPath id="clip0_1598_9445">
<rect width="203" height="438" fill="white" transform="translate(26)"/>
</clipPath>
<clipPath id="clip1_1598_9445">
<rect width="100" height="312" fill="white" transform="translate(25.8682 60)"/>
</clipPath>
</defs>
</svg>
