<svg width="198" height="102" viewBox="0 0 198 102" fill="none" xmlns="http://www.w3.org/2000/svg">
<path d="M144 49V74L124 83.9999V59" stroke="#BFBAC4"/>
<path d="M124 84L104 74L74 89L54 79V54" stroke="#BFBAC4"/>
<path d="M74 64V89" stroke="#BFBAC4"/>
<path d="M74 64L54 54L104 29L144 49L124 59L104 49L74 64Z" stroke="#BFBAC4"/>
<path d="M109 31.5L59 56.5V36.5L109 11.5V31.5Z" fill="#817D87"/>
<path d="M54 53.9999L59 56.5V36.4999L54 33.9999V53.9999Z" fill="black"/>
<path d="M104 9L109 11.5L59 36.5L54 34L104 9Z" fill="#BFBAC4"/>
</svg>
