<svg width="165" height="127" viewBox="0 0 165 127" fill="none" xmlns="http://www.w3.org/2000/svg">
<g opacity="0.3">
<path opacity="0.3" d="M161.724 94.98C161.724 94.98 159.983 95.0221 159.104 95.016C156.093 94.98 150.673 94.98 150.673 94.98L146.783 102.139C147.68 104.027 148.849 106.142 150.902 106.557C151.936 106.695 152.987 106.565 153.955 106.179C156.393 105.429 158.672 104.241 160.682 102.674C161.933 101.787 162.866 100.523 163.344 99.0675C163.723 97.5767 163.109 95.6292 161.724 94.98Z" fill="#681D82"/>
</g>
<g opacity="0.3">
<path opacity="0.3" d="M23.938 102.698C23.0286 100.468 21.5833 96.4647 19.6803 94.98C19.6803 94.98 7.53375 95.1904 7.47353 94.98L13.1162 115.153C14.953 116.59 15.8382 118.573 16.4224 120.449C17.0065 122.324 17.4883 124.338 18.8312 125.75C20.1742 127.163 22.8359 127.554 24.0102 125.997C25.3231 124.236 23.8898 121.789 23.8476 119.595C23.8055 117.401 25.1966 115.46 25.7627 113.344C26.7322 109.791 25.3231 106.094 23.938 102.698Z" fill="#681D82"/>
</g>
<path d="M64.3189 35.8156C63.2371 33.7918 62.1424 31.7089 61.8691 29.4411C61.5957 27.1732 62.3233 24.5968 64.2028 23.3888C65.9535 22.2742 68.2449 22.5376 70.129 21.6861C72.4327 20.6351 73.7696 18.0856 74.638 15.6262C75.5065 13.1668 76.1414 10.5224 77.7844 8.52466C78.8949 7.23803 80.3752 6.32377 82.0243 5.90609C83.6735 5.48841 85.4114 5.58755 87.0021 6.19004C89.0099 4.54397 91.4348 3.48454 94.0085 3.12902C97.2332 2.75892 100.937 2.70894 103.388 4.82977C105.288 6.48139 106.598 8.69684 108.85 9.78155C111.961 11.3124 115.599 9.48496 119.06 9.32372C119.766 9.29116 120.603 9.40082 120.958 10.0135C121.063 10.2999 121.105 10.6052 121.083 10.9092C121.06 11.2133 120.974 11.5091 120.828 11.7771L118.626 17.554C119.384 17.8193 120.192 17.9095 120.99 17.8179C121.788 17.7264 122.555 17.4553 123.233 17.0253C123.371 20.7019 122.212 24.3102 119.958 27.2213C120.509 26.7406 121.496 27.1053 121.84 27.7678C122.139 28.4634 122.194 29.2395 121.996 29.9704C121.584 32.2483 120.686 34.4113 119.364 36.3131C118.042 38.2149 116.326 39.8111 114.332 40.9939C112.339 42.1766 110.114 42.9184 107.808 43.1689C105.503 43.4194 103.17 43.1729 100.968 42.446L82.0943 45.4653C81.8945 46.2204 81.5153 46.9162 80.9888 47.4937C80.4623 48.0713 79.804 48.5137 79.0698 48.7833C76.8113 47.3847 76.3857 46.532 76.3857 46.532C75.1589 47.6167 76.1469 47.0374 75.1589 47.6167C72.8862 48.9364 69.299 47.8959 68.5511 45.3497C68.3193 44.2922 67.7868 43.3239 67.0175 42.5609C66.1975 41.8624 65.0954 41.6622 64.1096 41.261C62.5256 40.6116 61.1973 39.4639 60.3263 37.9922C61.1064 37.9244 61.8639 37.696 62.551 37.3214C63.2382 36.9467 63.8401 36.434 64.3189 35.8156V35.8156Z" fill="#263238"/>
<path d="M110.33 23.256C109.769 18.6814 107.503 14.4852 103.983 11.503C100.463 8.52083 95.9462 6.97144 91.333 7.16336L90.3862 7.20547C80.1618 8.22162 75.3158 17.4605 76.621 27.6331L80.5123 74.7264L103.999 73.7067L103.128 58.3534C103.128 58.3534 112.913 56.4196 112.628 46.5776C112.494 41.8372 111.413 32.0806 110.33 23.256Z" fill="#F1C9BA"/>
<path d="M106.285 31.1928C106.304 31.5582 106.179 31.9164 105.936 32.1908C105.694 32.4651 105.353 32.6338 104.988 32.6608C104.81 32.6829 104.629 32.6691 104.456 32.6203C104.284 32.5716 104.123 32.4887 103.983 32.3768C103.842 32.2648 103.726 32.126 103.641 31.9685C103.556 31.811 103.503 31.638 103.485 31.4597C103.465 31.0934 103.59 30.7338 103.832 30.4582C104.075 30.1825 104.416 30.0129 104.783 29.9857C104.961 29.9636 105.142 29.9775 105.315 30.0266C105.488 30.0757 105.65 30.159 105.79 30.2716C105.93 30.3842 106.046 30.5237 106.131 30.682C106.217 30.8402 106.269 31.014 106.285 31.1928V31.1928Z" fill="#263238"/>
<path d="M107.81 27.327C107.644 27.5155 106.535 26.7776 105.033 26.841C103.53 26.9045 102.441 27.7072 102.269 27.5273C102.181 27.4527 102.348 27.1128 102.785 26.7481C103.422 26.2652 104.193 25.9926 104.993 25.9683C105.779 25.9307 106.556 26.147 107.21 26.5851C107.721 26.9197 107.879 27.2404 107.81 27.327Z" fill="#263238"/>
<path d="M99.2636 40.6451C99.254 40.5615 100.189 40.3635 101.705 40.1048C102.094 40.0601 102.452 39.9585 102.506 39.6921C102.525 39.2926 102.42 38.897 102.206 38.5588C101.801 37.6372 101.379 36.6772 100.94 35.6787C99.181 31.5605 97.8864 28.1634 98.0544 28.0957C98.2224 28.028 99.7825 31.31 101.542 35.4282C101.966 36.4444 102.372 37.4063 102.759 38.3138C103.02 38.77 103.114 39.3027 103.024 39.8203C102.973 39.9591 102.891 40.0845 102.784 40.1869C102.677 40.2893 102.548 40.3661 102.407 40.4114C102.196 40.4811 101.976 40.5206 101.754 40.5288C100.225 40.68 99.2733 40.7287 99.2636 40.6451Z" fill="#263238"/>
<path d="M107.855 23.667C107.552 24.0286 106.251 23.7362 104.718 23.7971C103.186 23.8581 101.895 24.1756 101.576 23.831C101.442 23.6649 101.625 23.3111 102.179 22.9571C102.944 22.5109 103.813 22.2715 104.699 22.2625C105.58 22.225 106.455 22.4187 107.237 22.8243C107.796 23.1474 107.993 23.4939 107.855 23.667Z" fill="#263238"/>
<path d="M78.4105 34.8518C78.2394 34.7867 71.5448 33.1348 72.0573 39.8467C72.5698 46.5585 79.197 44.6785 79.1975 44.4727C79.1981 44.267 78.4105 34.8518 78.4105 34.8518Z" fill="#F1C9BA"/>
<path d="M77.5443 42.0668C77.5443 42.0668 77.4336 42.1582 77.2458 42.2644C76.9777 42.4065 76.6657 42.4423 76.3723 42.3647C75.6446 42.1517 74.9628 41.0743 74.8418 39.866C74.7795 39.2913 74.8494 38.7101 75.0461 38.1665C75.0947 37.9521 75.1942 37.7525 75.3363 37.5845C75.4783 37.4166 75.6588 37.2852 75.8624 37.2015C75.9945 37.1585 76.1374 37.1625 76.2669 37.2127C76.3965 37.2629 76.5046 37.3562 76.573 37.4769C76.6788 37.6584 76.6461 37.7953 76.6834 37.8031C76.7206 37.8109 76.8205 37.6784 76.7463 37.4026C76.6942 37.2403 76.5907 37.0993 76.4515 37.0008C76.254 36.8785 76.017 36.8364 75.7893 36.8831C75.515 36.9573 75.2648 37.1017 75.0636 37.302C74.8623 37.5023 74.7169 37.7517 74.6419 38.0253C74.3971 38.627 74.3057 39.2799 74.3758 39.9255C74.5306 41.2691 75.2775 42.4903 76.2992 42.7301C76.4844 42.7672 76.6755 42.7631 76.859 42.718C77.0424 42.6729 77.2136 42.5879 77.3603 42.4691C77.5449 42.2301 77.5696 42.076 77.5443 42.0668Z" fill="#DAA188"/>
<path d="M74.3906 19.8478C74.6785 17.8477 75.3499 15.9217 76.368 14.1753C79.3125 8.89999 87.0474 5.74325 91.6309 5.59234C96.2144 5.44142 101.308 8.29364 105.738 9.49749C108.635 10.2784 111.027 12.5753 110.194 14.6615C111.907 15.1241 113.685 15.3024 115.456 15.1891C115.456 15.1891 115.905 17.6667 114.593 18.4889L110.555 21.8446C104.822 23.2771 93.945 18.735 91.763 17.1581C89.7448 15.6965 87.5575 14.4828 85.2485 13.5433C87.6617 18.1794 81.496 17.804 81.8802 19.6659C84.5151 26.2793 79.2236 29.44 79.2236 29.44L79.7739 35.4275C80.0763 36.9478 79.5537 38.1998 78.0105 38.274C78.0105 38.274 76.0845 36.1837 75.5894 34.3588C74.6242 30.821 74.1087 23.5045 74.3906 19.8478Z" fill="#263238"/>
<path d="M103.206 58.3445C98.6313 58.5382 94.0974 57.4139 90.1455 55.1058C90.1455 55.1058 93.474 62.0572 103.254 60.7593L103.206 58.3445Z" fill="#DAA188"/>
<path d="M92.111 31.912C92.1282 32.2776 92.0026 32.6355 91.7606 32.9105C91.5186 33.1854 91.1792 33.3559 90.8138 33.386C90.6354 33.4073 90.4545 33.3928 90.2818 33.3434C90.109 33.294 89.9479 33.2106 89.8079 33.0981C89.6679 32.9857 89.5518 32.8465 89.4665 32.6886C89.3811 32.5308 89.3282 32.3575 89.3109 32.179C89.2906 31.8126 89.4152 31.453 89.6577 31.1774C89.9003 30.9018 90.2415 30.7321 90.6081 30.705C90.7866 30.6828 90.9678 30.6967 91.1409 30.7458C91.314 30.7949 91.4754 30.8782 91.6156 30.9908C91.7558 31.1034 91.8719 31.243 91.957 31.4012C92.0421 31.5595 92.0945 31.7332 92.111 31.912Z" fill="#263238"/>
<path d="M93.317 28.2278C93.1529 28.4342 91.889 27.829 90.2692 28.0814C88.6495 28.3339 87.5445 29.2655 87.3563 29.1055C87.2576 29.0382 87.4046 28.6825 87.8645 28.2546C88.5191 27.6972 89.3176 27.3351 90.1688 27.2096C91.0034 27.0734 91.8596 27.1856 92.6307 27.5321C93.1805 27.832 93.3971 28.1339 93.317 28.2278Z" fill="#263238"/>
<path d="M92.9013 23.5138C92.8045 23.9364 91.2762 23.9303 89.5434 24.3591C87.8107 24.7879 86.4372 25.4416 86.1559 25.1048C86.0276 24.938 86.2289 24.5277 86.7571 24.0617C87.467 23.4857 88.299 23.0787 89.19 22.8716C90.0809 22.6645 91.0075 22.6627 91.8992 22.8665C92.6028 23.0277 92.9683 23.3065 92.9013 23.5138Z" fill="#263238"/>
<path d="M66.0197 41.4775C66.157 41.4512 66.2887 41.4013 66.4089 41.33C66.7591 41.1216 67.0507 40.8279 67.2562 40.4764C67.5832 39.9207 67.7512 39.2861 67.7419 38.6418C67.711 37.8052 67.5808 36.9752 67.3541 36.1692C67.0704 35.218 66.9985 34.2165 67.1433 33.2346C67.255 32.7056 67.5168 32.2198 67.8974 31.8351C68.3175 31.4311 68.7862 31.0806 69.2927 30.7916C69.8457 30.4791 70.368 30.1152 70.8527 29.7049C71.3643 29.2519 71.734 28.6611 71.9175 28.0035C72.3161 26.675 72.0979 25.2539 72.2436 23.8879C72.3007 23.2171 72.4982 22.5657 72.8235 21.9759C73.1599 21.4218 73.6884 21.0102 74.3087 20.8192C74.8905 20.6072 75.5698 20.5051 76.1955 20.3062C76.8357 20.131 77.3963 19.742 77.784 19.2042C78.1066 18.6757 78.3015 18.0795 78.3533 17.4628C78.4322 16.885 78.452 16.32 78.5058 15.7874C78.5569 15.2767 78.67 14.7741 78.8426 14.2906C79.0163 13.8494 79.2405 13.4298 79.5108 13.04C80.3514 11.8585 81.5729 11.0007 82.971 10.6099C83.4885 10.4906 84.0157 10.418 84.5463 10.3928C84.0091 10.3236 83.4637 10.3574 82.9393 10.4925C81.4865 10.8459 80.2077 11.7049 79.3327 12.9153C79.0426 13.3147 78.8034 13.7486 78.6208 14.2071C78.4318 14.7079 78.3067 15.2305 78.2483 15.7625C78.1839 16.3084 78.1634 16.8674 78.0832 17.4333C78.0298 18.0056 77.8468 18.5584 77.548 19.0497C77.1915 19.5299 76.6817 19.8744 76.1026 20.0264C75.5181 20.2145 74.8561 20.3086 74.2092 20.5341C73.5123 20.7424 72.9173 21.2009 72.5389 21.821C72.1846 22.4492 71.9713 23.1467 71.9136 23.8653C71.7628 25.2924 71.971 26.6783 71.5993 27.925C71.4346 28.531 71.0973 29.0762 70.6284 29.4947C70.1572 29.8945 69.6504 30.2504 69.1142 30.5579C68.5889 30.862 68.1039 31.2307 67.6706 31.6554C67.2637 32.0798 66.9863 32.6111 66.8711 33.1872C66.7221 34.2058 66.8045 35.2447 67.1122 36.2272C67.3506 37.016 67.4952 37.83 67.5431 38.6525C67.5675 39.2677 67.4287 39.8785 67.1409 40.4231C66.8891 40.8846 66.4963 41.254 66.0197 41.4775V41.4775Z" fill="#681D82"/>
<path d="M117.119 11.5252C117.02 11.5932 116.927 11.6707 116.843 11.7566L116.074 12.4498C115.132 13.2696 114.09 13.9684 112.974 14.5301C111.328 15.3726 109.443 15.6274 107.632 15.2522C106.577 15.0154 105.614 14.4786 104.859 13.7068C104.078 12.8433 103.376 11.9113 102.762 10.9221C102.118 9.9065 101.284 9.02438 100.305 8.32402C99.3755 7.69647 98.3371 7.24728 97.2427 6.99944C95.3864 6.57208 93.4502 6.63784 91.6272 7.19014C90.4143 7.54967 89.2512 8.05921 88.1649 8.70689C87.7794 8.9387 87.4922 9.12899 87.3018 9.2658C87.1974 9.32565 87.1019 9.39974 87.018 9.48594C87.1298 9.44394 87.2354 9.38704 87.3319 9.31679L88.2199 8.81555C89.3198 8.21272 90.4855 7.73788 91.6939 7.40032C93.4637 6.88872 95.3347 6.8343 97.1313 7.24216C98.187 7.49113 99.1886 7.92975 100.087 8.5366C101.035 9.21641 101.842 10.0731 102.463 11.0593C103.086 12.0739 103.805 13.0267 104.609 13.9049C105.418 14.7085 106.444 15.2594 107.562 15.4901C109.436 15.8711 111.385 15.5854 113.07 14.6824C114.193 14.1038 115.231 13.3739 116.154 12.5133C116.483 12.2093 116.697 11.9669 116.887 11.8241C116.979 11.7362 117.057 11.6355 117.119 11.5252V11.5252Z" fill="#681D82"/>
<path d="M120.666 20.1094C120.625 20.0718 120.211 20.5247 119.438 21.1278C118.434 21.9202 117.309 22.5459 116.105 22.9806C114.898 23.3957 113.632 23.6165 112.355 23.6348C111.374 23.6385 110.769 23.5446 110.757 23.6004C110.889 23.664 111.031 23.7049 111.177 23.7216C111.564 23.7973 111.956 23.8413 112.35 23.8532C113.663 23.9037 114.973 23.7062 116.211 23.2709C117.449 22.8429 118.593 22.1816 119.581 21.323C119.889 21.0608 120.175 20.7731 120.434 20.4628C120.598 20.2504 120.686 20.1253 120.666 20.1094Z" fill="#681D82"/>
<path d="M115.656 26.3416C115.61 26.2621 114.641 26.7909 113.326 27.1656C112.011 27.5404 110.952 27.6075 110.927 27.7012C112.606 27.8501 114.28 27.3666 115.62 26.3457L115.656 26.3416Z" fill="#681D82"/>
<path d="M94.5347 43.2236C94.7698 43.1392 95.2558 44.746 96.9739 45.4789C98.6921 46.2117 100.363 45.5216 100.438 45.7415C100.5 45.8299 100.151 46.1708 99.4322 46.4045C98.4903 46.6978 97.4751 46.6519 96.5635 46.2749C95.692 45.9087 94.9956 45.2212 94.6192 44.3555C94.3517 43.7053 94.4045 43.227 94.5347 43.2236Z" fill="#263238"/>
<path d="M79.6666 65.1893L60.3357 70.5091L39.4751 85.5367L45.0395 95.0341L143.387 95.2025C143.387 95.2025 139.773 82.0864 138.623 78.059C136.847 71.9818 134.438 70.2446 132.24 68.0446C131.217 67.1325 130.024 66.4318 128.729 65.9828C124.838 65.1352 106.838 61.0958 103.334 61.174C103.334 61.174 99.2927 69.5113 90.8256 69.4271C82.3585 69.343 79.6666 65.1893 79.6666 65.1893Z" fill="#681D82"/>
<path d="M119.527 80.6018C119.587 80.6018 119.768 79.8083 120.34 78.6242C121.106 77.0864 122.112 75.6803 123.321 74.4585C124.545 73.2452 125.851 72.1166 127.229 71.0803C127.819 70.6688 128.377 70.2126 128.897 69.7158C128.263 70.0501 127.659 70.4382 127.091 70.876C125.655 71.8644 124.313 72.981 123.08 74.2121C121.841 75.4554 120.839 76.9139 120.123 78.516C119.912 79.0032 119.745 79.5081 119.623 80.0247C119.556 80.2096 119.523 80.4052 119.527 80.6018Z" fill="#263238"/>
<path d="M60.8174 91.0248C60.9037 90.3491 60.9259 89.6669 60.8836 88.987C60.8836 87.7247 60.8054 85.9815 60.6548 84.064C60.5042 82.1465 60.3115 80.4153 60.1309 79.171C60.0726 78.4912 59.9475 77.8187 59.7575 77.1633C59.7457 77.8428 59.788 78.5222 59.884 79.1951C59.9984 80.5596 60.1429 82.2366 60.2995 84.0941C60.4561 85.9515 60.5404 87.6286 60.6307 88.9931C60.6392 89.6742 60.7016 90.3535 60.8174 91.0248V91.0248Z" fill="#263238"/>
<g opacity="0.3">
<path opacity="0.3" d="M54.9941 93.5195C56.5839 93.0506 58.2038 92.4495 59.3842 91.2834C60.5645 90.1173 61.1908 88.2779 60.4922 86.7571C61.6643 89.2404 63.5304 91.3326 65.8659 92.7819C68.2015 94.2312 70.9069 94.9758 73.6566 94.9261L50.3269 95.2146C51.8085 94.4638 53.3756 93.8946 54.9941 93.5195Z" fill="black"/>
</g>
<path d="M165 95.1725C165 95.1725 162.639 91.9626 161.471 91.3555C160.303 90.7483 158.707 90.7544 158.002 91.3975L157.298 92.0287C157.298 92.0287 153.624 90.3817 151.878 91.65C151.878 91.65 148.385 90.003 146.717 91.8844C146.717 91.8844 144.025 90.1412 142.887 91.668C141.749 93.1948 141.863 95.7676 142.417 97.078C142.971 98.3884 143.995 102.921 144.826 103.005C144.826 103.005 146.97 103.233 147.235 102.073C147.5 100.913 147.638 100.354 147.638 100.354C147.638 100.354 148.463 104.454 149.445 104.658C150.426 104.862 152.317 104.748 152.378 102.951C152.378 102.951 153.293 104.309 154.184 103.913C155.076 103.516 156.19 102.867 156.087 101.755C155.985 100.643 155.973 99.5305 155.973 99.5305C155.973 99.5305 156.467 101.147 157.274 100.799C158.081 100.45 158.9 100.522 159.357 99.1458C159.815 97.7692 160.941 95.1544 160.941 95.1544L165 95.1725Z" fill="#F1C9BA"/>
<path d="M156.057 99.4584C156.105 99.4584 155.895 99.0136 155.702 98.2982C155.452 97.3728 155.413 96.403 155.588 95.4605C155.763 94.518 156.148 93.6267 156.714 92.8522C156.979 92.5466 157.228 92.2276 157.46 91.8965C157.084 92.0844 156.76 92.3608 156.515 92.702C155.863 93.4761 155.423 94.4058 155.238 95.4004C155.053 96.395 155.13 97.4203 155.461 98.3764C155.566 98.7811 155.771 99.1531 156.057 99.4584V99.4584Z" fill="#DAA188"/>
<path d="M151.649 91.6741C151.415 92.1856 151.257 92.7282 151.179 93.285C150.925 94.6196 150.842 95.981 150.932 97.3365C151.027 98.6906 151.292 100.027 151.721 101.316C151.871 101.859 152.1 102.378 152.402 102.855C152.516 102.819 151.486 100.45 151.288 97.3124C151.089 94.1747 151.751 91.6921 151.649 91.6741Z" fill="#DAA188"/>
<path d="M146.633 91.9204C146.371 93.3518 146.353 94.8169 146.578 96.2544C146.686 97.7048 147.036 99.127 147.614 100.462C147.717 100.432 147.199 98.5686 146.934 96.2123C146.669 93.856 146.735 91.9204 146.633 91.9204Z" fill="#DAA188"/>
<path d="M132.186 92.8581C132.274 92.6723 132.404 92.5089 132.564 92.3799C132.725 92.2508 132.912 92.1595 133.113 92.1127C133.582 92.0118 134.068 92.0241 134.531 92.1485C134.994 92.2729 135.42 92.5059 135.775 92.828C136.541 93.5265 137.197 94.3372 137.72 95.2325H132.517C132.565 94.3909 131.878 93.6035 132.186 92.8581Z" fill="#F1C9BA"/>
<path d="M0.325433 96.573C0.483824 94.9844 1.00612 93.4533 1.85194 92.0984C2.69776 90.7434 3.84445 89.6007 5.20334 88.7587V88.7587C6.28315 88.1217 7.48926 87.7276 8.73743 87.6041C9.9856 87.4805 11.2457 87.6304 12.4299 88.0433L22.4687 91.5297C23.0107 92.1309 39.5775 85.7351 39.5775 85.7351L45.16 95.2145L13.4958 95.1724C15.2364 97.1547 17.0818 99.0429 19.0241 100.829L21.174 107.958L20.9632 114.408C19.825 114.931 18.1268 112.941 18.1268 112.941L17.1331 114.744L17.4643 116.5C17.4643 116.5 20.3911 123.593 20.2887 125.168C20.2896 125.288 20.2662 125.407 20.2199 125.518C20.1737 125.629 20.1056 125.729 20.0196 125.813C19.9336 125.898 19.8316 125.964 19.7195 126.007C19.6075 126.051 19.4877 126.072 19.3673 126.069C18.9469 126.093 18.529 125.991 18.1666 125.777C17.8043 125.563 17.5137 125.246 17.3319 124.867L13.1706 116.8C13.1706 116.8 9.94876 116.013 8.82262 114.955C7.69649 113.897 5.96815 111.841 5.96815 111.841L3.92063 111.553C3.6763 111.582 3.42895 111.531 3.21604 111.408C2.67677 111.143 2.20797 110.754 1.84794 110.274C1.48791 109.793 1.24685 109.234 1.14444 108.643L0.108638 103.233C-0.132247 102.043 0.0664829 99.1818 0.325433 96.573Z" fill="#F1C9BA"/>
<path d="M9.75594 110.621C9.9922 111.801 10.4345 112.93 11.0627 113.957C11.5918 115.041 12.3073 116.023 13.1765 116.86C13.2548 116.8 12.2973 115.52 11.3699 113.801C10.4425 112.081 9.84627 110.591 9.75594 110.621Z" fill="#DAA188"/>
<path d="M4.9262 110.026C4.82383 110.074 5.1972 110.909 5.84759 111.781C6.19054 112.35 6.63557 112.851 7.1604 113.26C6.90048 112.653 6.54915 112.089 6.11858 111.589C5.76154 111.038 5.36292 110.516 4.9262 110.026V110.026Z" fill="#DAA188"/>
<path d="M18.0965 118.129C17.9471 117.463 17.7581 116.806 17.5305 116.163C17.1631 114.961 16.6874 113.272 16.2237 111.402C15.9888 110.465 15.778 109.599 15.6214 108.757C15.4339 108.054 15.3607 107.326 15.4046 106.599C15.4749 105.936 15.7411 105.308 16.1695 104.796C16.1695 104.796 15.9767 104.88 15.7479 105.163C15.4271 105.575 15.2195 106.064 15.1457 106.581C15.0631 107.334 15.1141 108.095 15.2963 108.83C15.4588 109.653 15.6636 110.555 15.8985 111.492C16.3682 113.374 16.8801 115.051 17.3076 116.247C17.5052 116.9 17.7696 117.53 18.0965 118.129Z" fill="#DAA188"/>
<path d="M15.9227 106.148C15.8805 106.185 16.2238 106.569 16.6213 107.285C17.1361 108.209 17.4423 109.235 17.5185 110.29C17.5091 110.895 17.5596 111.499 17.6691 112.093C17.7905 112.592 18.054 113.045 18.4279 113.398C18.7367 113.738 19.1229 114 19.554 114.161C19.5901 114.113 19.1445 113.831 18.6025 113.229C18.2976 112.89 18.0897 112.475 18.0003 112.027C17.9126 111.446 17.8743 110.859 17.8859 110.272C17.8116 109.166 17.4573 108.097 16.8561 107.164C16.6234 106.761 16.3048 106.415 15.9227 106.148V106.148Z" fill="#DAA188"/>
<path d="M13.562 95.2626C13.6222 95.1845 12.4479 94.2107 11.2615 92.7621C10.0752 91.3134 9.31638 89.979 9.214 90.0631C9.30426 90.3844 9.4423 90.6904 9.62351 90.9708C10.0209 91.6787 10.4825 92.3487 11.0026 92.9724C11.6916 93.9009 12.5623 94.68 13.562 95.2626V95.2626Z" fill="#DAA188"/>
<g opacity="0.3">
<path opacity="0.3" d="M117.732 95.1725L118.124 86.1199L111.752 95.1605L117.732 95.1725Z" fill="black"/>
</g>
<path d="M117.733 95.1725C117.672 93.384 117.718 91.5936 117.871 89.8106C117.918 88.0221 118.069 86.2379 118.323 84.4668C118.383 86.2552 118.337 88.0457 118.184 89.8286C118.137 91.6171 117.986 93.4014 117.733 95.1725V95.1725Z" fill="#263238"/>
</svg>
