<svg width="281" height="242" viewBox="0 0 281 242" fill="none" xmlns="http://www.w3.org/2000/svg">
<g clip-path="url(#clip0_1614_10266)">
<path d="M192.323 113.948L159.695 103.501L120.643 103.353C120.643 103.353 90.508 112.736 86.8463 114.673L85.1632 195.759L83.8784 242L190.312 241.429V185.427L192.323 113.948Z" fill="#681D82"/>
<path d="M86.8463 114.673C78.6611 121.996 72.3259 131.146 68.3579 141.379C64.0153 152.833 54.1479 178.25 54.1479 178.25L85.0668 189.198L92.0562 139.91L86.8463 114.673Z" fill="#681D82"/>
<path d="M188.539 112.736C188.539 112.736 196.588 113.416 204.483 126.051C210.047 134.959 223.608 173.966 223.608 173.966L187.922 186.414L179.308 179.789L188.539 112.736Z" fill="#681D82"/>
<path d="M85.1631 134.728C85.2595 134.728 85.3301 148.389 85.3301 165.243C85.3301 182.098 85.2595 195.759 85.1631 195.759C85.0668 195.759 84.9961 182.098 84.9961 165.243C84.9961 148.389 85.0732 134.728 85.1631 134.728Z" fill="#263238"/>
<path d="M170.43 172.439C170.385 172.491 170.336 172.539 170.282 172.58L169.813 172.978L168.001 174.485L161.327 180.007C155.699 184.676 147.965 191.167 139.53 198.465C131.095 205.764 123.553 212.498 118.125 217.417L111.701 223.228L109.954 224.799L109.491 225.203L109.331 225.338C109.331 225.338 109.369 225.28 109.472 225.177C109.575 225.075 109.722 224.927 109.909 224.754L111.618 223.132C113.101 221.727 115.266 219.713 117.964 217.244C123.354 212.293 130.87 205.539 139.305 198.234C147.74 190.929 155.513 184.465 161.179 179.84C164.012 177.532 166.318 175.672 167.918 174.402L169.768 172.946L170.256 172.574C170.307 172.521 170.365 172.476 170.43 172.439V172.439Z" fill="#263238"/>
<g opacity="0.3">
<path opacity="0.3" d="M138.669 199.19L116.551 218.661C135.599 210.048 151.883 196.939 162.445 178.93L138.669 199.19Z" fill="black"/>
</g>
<g opacity="0.3">
<path opacity="0.3" d="M190.292 185.427C195.072 175.749 195.181 156.778 190.35 146.304C190.639 158.067 190.614 173.677 190.292 185.427Z" fill="black"/>
</g>
<path d="M190.286 136.954C190.383 136.954 190.46 160.344 190.46 189.191C190.46 218.039 190.383 241.429 190.286 241.429C190.19 241.429 190.151 218.059 190.151 189.198C190.151 160.337 190.196 136.954 190.286 136.954Z" fill="#263238"/>
<path d="M182.442 56.0154C184.023 52.5521 185.654 48.9605 185.86 45.1573C186.065 41.3541 184.614 37.1597 181.363 35.3511C178.344 33.6836 174.573 34.3506 171.354 33.1256C167.391 31.6121 164.93 27.5331 163.266 23.5375C161.603 19.5419 164.082 18.1502 161.153 15.014C157.299 10.8516 154.69 10.2039 149.59 12.5833C146.024 9.93449 133.53 5.00893 129.906 4.81653C124.523 4.52792 118.343 4.81653 114.527 8.59407C111.54 11.5186 109.6 15.2769 105.971 17.3549C100.979 20.2089 94.7477 17.5473 88.9982 17.6243C87.8226 17.6243 86.4286 17.9129 85.9404 18.9711C85.5036 19.8818 85.9404 20.9593 86.3387 21.8764C87.752 24.9976 89.1631 28.1189 90.5721 31.2401C89.3434 31.7651 88.0115 32.0055 86.6764 31.9433C85.3413 31.8811 84.0377 31.5179 82.8633 30.8809C82.9982 36.9881 85.2736 42.8547 89.2937 47.4598C88.2852 46.7158 86.7241 47.4213 86.2038 48.5501C85.6834 49.6788 85.8697 51.0129 86.2038 52.225C87.1258 55.9577 88.8393 59.4494 91.2286 62.4644C93.6179 65.4793 96.6274 67.9474 100.054 69.7019C103.48 71.4564 107.244 72.4564 111.091 72.6345C114.937 72.8126 118.777 72.1646 122.352 70.7343L153.99 73.832C154.398 75.0581 155.094 76.1687 156.021 77.0704C156.948 77.9721 158.078 78.6387 159.316 79.0141C162.926 76.4487 163.53 75.0121 163.53 75.0121C165.675 76.686 163.98 75.8266 165.675 76.686C169.562 78.6421 175.427 76.5513 176.41 72.1966C176.821 70.3752 177.367 68.6371 178.626 67.4185C179.885 66.2 181.71 65.7254 183.309 64.9686C185.865 63.7388 187.95 61.7129 189.252 59.1965C187.959 59.1615 186.687 58.861 185.515 58.3137C184.344 57.7664 183.298 56.984 182.442 56.0154Z" fill="#263238"/>
<path d="M134.191 9.93445L132.598 10.0178C124.874 10.404 117.578 13.6782 112.161 19.1896C106.744 24.701 103.603 32.0458 103.362 39.7636C102.913 54.6685 102.611 71.1512 103.105 79.1103C104.146 95.5865 120.784 97.3182 120.784 97.3182C120.784 97.4849 120.733 99.9605 120.643 103.34C120.571 105.924 121.018 108.497 121.959 110.905C122.899 113.314 124.314 115.51 126.119 117.363C127.924 119.216 130.083 120.69 132.468 121.696C134.853 122.703 137.416 123.222 140.005 123.222V123.222C145.092 123.223 149.975 121.225 153.599 117.661C157.224 114.097 159.298 109.252 159.374 104.174L160.311 41.9634C160.928 24.756 151.421 10.0755 134.191 9.93445Z" fill="#F1C9BA"/>
<path d="M120.771 97.3311C120.771 97.3311 131.211 97.4145 141.971 89.9043C141.971 89.9043 137.333 102.205 120.771 101.551V97.3311Z" fill="#DAA188"/>
<path d="M131.365 47.1519C131.686 47.4918 133.62 46.0039 136.382 45.9911C139.144 45.9783 141.174 47.3764 141.47 47.0301C141.618 46.8761 141.29 46.2605 140.403 45.6063C139.215 44.761 137.79 44.3121 136.331 44.3236C134.888 44.3296 133.486 44.8021 132.335 45.6704C131.493 46.3759 131.211 46.998 131.365 47.1519Z" fill="#263238"/>
<path d="M133.832 52.2827C133.855 52.8634 134.104 53.4121 134.527 53.8121C134.949 54.2121 135.511 54.432 136.093 54.4248C136.377 54.4325 136.661 54.3834 136.926 54.2803C137.192 54.1772 137.434 54.0223 137.638 53.8245C137.843 53.6268 138.006 53.3903 138.118 53.1288C138.23 52.8674 138.288 52.5862 138.29 52.3019C138.266 51.7212 138.017 51.1725 137.595 50.7725C137.173 50.3725 136.611 50.1527 136.029 50.1598C135.744 50.1522 135.461 50.2013 135.195 50.3044C134.93 50.4074 134.688 50.5624 134.483 50.7601C134.278 50.9578 134.115 51.1944 134.003 51.4558C133.892 51.7173 133.833 51.9984 133.832 52.2827V52.2827Z" fill="#263238"/>
<path d="M124.022 66.1552C124.022 66.0076 122.435 65.8152 119.866 65.6228C119.223 65.5844 118.581 65.4882 118.459 65.052C118.337 64.6159 118.523 63.8848 118.799 63.128C119.326 61.5332 119.881 59.8593 120.463 58.1062C122.769 50.9552 124.407 45.0933 124.118 45.0035C123.829 44.9137 121.722 50.6345 119.416 57.7791C118.863 59.545 118.335 61.2275 117.829 62.8266C117.624 63.5769 117.245 64.4299 117.624 65.392C117.73 65.6143 117.885 65.8098 118.077 65.9642C118.27 66.1185 118.495 66.2276 118.735 66.2834C119.1 66.3589 119.473 66.3912 119.846 66.3796C122.422 66.3668 124.022 66.2963 124.022 66.1552Z" fill="#263238"/>
<path d="M132.001 36.3324C132.258 36.9738 134.474 36.5376 137.14 36.73C139.806 36.9224 141.945 37.5574 142.28 36.9802C142.421 36.698 142.023 36.1272 141.136 35.5628C139.966 34.8633 138.643 34.4604 137.282 34.3891C135.929 34.2863 134.571 34.5199 133.331 35.069C132.335 35.5179 131.892 36.0374 132.001 36.3324Z" fill="#263238"/>
<path d="M106.452 41.335C106.735 41.8416 108.9 41.335 111.508 41.335C114.116 41.335 116.275 41.6941 116.564 41.181C116.692 40.9309 116.268 40.4755 115.369 40.0587C114.152 39.5403 112.837 39.293 111.515 39.334C110.184 39.3489 108.871 39.6416 107.66 40.1934C106.761 40.6231 106.33 41.0912 106.452 41.335Z" fill="#263238"/>
<path d="M159.585 54.2196C159.855 54.085 170.757 50.301 170.969 61.5823C171.181 72.8636 159.785 70.7536 159.759 70.4265C159.733 70.0994 159.585 54.2196 159.585 54.2196Z" fill="#F1C9BA"/>
<path d="M163.132 66.091C163.177 66.0525 163.331 66.2257 163.665 66.3668C164.136 66.561 164.665 66.561 165.136 66.3668C166.324 65.905 167.294 63.9938 167.314 61.9607C167.322 60.9934 167.116 60.0362 166.71 59.158C166.599 58.8066 166.403 58.4877 166.14 58.2294C165.877 57.9711 165.554 57.7812 165.2 57.6765C164.973 57.6187 164.733 57.643 164.523 57.7451C164.312 57.8473 164.145 58.0207 164.05 58.2345C163.902 58.5487 163.98 58.7732 163.915 58.7989C163.851 58.8245 163.671 58.6129 163.755 58.1575C163.814 57.8768 163.965 57.6239 164.185 57.4392C164.494 57.2021 164.883 57.092 165.271 57.1314C165.736 57.2156 166.172 57.4171 166.538 57.7168C166.903 58.0164 167.186 58.4044 167.359 58.8438C167.859 59.8131 168.115 60.8896 168.104 61.98C168.072 64.2567 166.941 66.4053 165.316 66.9055C165.014 66.9995 164.696 67.0247 164.383 66.9792C164.071 66.9337 163.773 66.8186 163.511 66.6426C163.17 66.3604 163.093 66.1103 163.132 66.091Z" fill="#DAA188"/>
<path d="M175.01 36.3003C172.748 32.2727 172.305 27.5139 171.123 23.0437C169.941 18.5735 167.564 13.9301 163.241 12.2754L163.138 12.3203C159.284 10.6592 154.44 10.531 151.164 13.1669C150.521 7.29215 145.459 2.53334 139.761 0.904318C134.063 -0.724707 124.857 -0.0384638 119.307 2.04592C115.022 3.66212 110.834 7.06768 105.727 12.0894C103.573 14.2077 101.594 16.4962 99.81 18.9326L94.4781 34.1839C93.9326 34.565 93.4494 35.0279 93.0455 35.5564C91.0027 38.2116 94.6323 41.6748 97.1955 39.5199L97.2404 39.4814C97.7351 40.3665 98.0948 41.258 98.4867 42.143L98.5702 42.3098C98.8143 42.8613 99.0649 43.4193 99.3732 43.9645V43.926L102.842 60.9922C103.189 56.3681 103.215 40.2575 103.562 35.6333C107.053 35.6108 110.504 34.8827 113.705 33.4927C116.907 32.1028 119.794 30.0798 122.191 27.5459C124.761 24.8074 126.862 21.3441 130.286 19.7407C134.699 17.682 139.87 19.3687 144.419 21.0683L144.226 20.8887C146.606 22.0616 148.739 23.6792 150.508 25.654C149.268 34.7795 150.008 44.0647 152.68 52.8792C153.078 54.2004 154.196 56.9325 155.481 57.4584C157.992 58.4974 158.731 55.932 160.292 54.598C161.436 53.6167 163.106 53.5205 164.93 53.5654C166.061 50.782 167.275 46.0681 168.29 41.9378C169.814 42.4421 171.435 42.587 173.025 42.3611L171.65 38.8401C172.245 39.2945 172.927 39.6219 173.654 39.8021C174.018 39.8783 174.397 39.8432 174.741 39.7014C175.085 39.5595 175.378 39.3175 175.581 39.0068C176.05 38.1538 175.485 37.1405 175.01 36.3003Z" fill="#263238"/>
<path d="M145.935 14.9435C146.516 15.413 147.058 15.93 147.553 16.4891C148.822 18.088 149.652 19.9888 149.962 22.0047C150.212 23.3862 150.322 24.7893 150.29 26.1927C150.29 27.7063 150.104 29.3289 149.95 31.0349C149.753 32.8237 149.669 34.623 149.699 36.4222C149.733 37.3798 149.836 38.3336 150.007 39.2762C150.131 40.2841 150.509 41.2441 151.106 42.0661C151.387 42.3922 151.747 42.6399 152.153 42.7849C152.558 42.9299 152.994 42.9673 153.419 42.8934C154.23 42.7646 154.974 42.367 155.532 41.7647C156.624 40.5525 156.92 38.9941 157.215 37.6152L156.868 37.6536C157.341 38.9022 157.99 40.0771 158.795 41.1426C159.577 42.135 160.711 42.7894 161.963 42.9704C162.543 43.0391 163.132 42.9482 163.665 42.7075C164.163 42.4664 164.575 42.0793 164.847 41.5979C165.105 41.1589 165.236 40.6573 165.226 40.1485C165.216 39.6763 165.041 39.2225 164.731 38.8658L164.551 39.0197C165.507 40.1597 166.691 41.088 168.027 41.7454C168.379 41.9214 168.744 42.0714 169.119 42.1944C169.244 42.2476 169.376 42.2843 169.511 42.3034C169.391 42.2375 169.267 42.1817 169.138 42.1367C168.894 42.034 168.534 41.8737 168.085 41.6364C166.795 40.9446 165.656 40.0052 164.731 38.8722L164.551 39.0197C164.815 39.3712 164.963 39.7963 164.973 40.2354C164.983 40.6746 164.856 41.1061 164.609 41.4697C164.358 41.8943 163.987 42.2356 163.543 42.4509C163.057 42.664 162.52 42.7373 161.995 42.6626C160.833 42.4823 159.784 41.8679 159.059 40.9437C158.28 39.8996 157.657 38.7481 157.209 37.5254L156.984 36.993L156.862 37.5638C156.566 38.9363 156.219 40.4307 155.256 41.521C154.747 42.067 154.067 42.4244 153.329 42.5343C152.974 42.593 152.61 42.5589 152.272 42.4352C151.934 42.3116 151.634 42.1027 151.401 41.8288C150.849 41.0602 150.499 40.1644 150.386 39.2249C150.215 38.3017 150.112 37.3671 150.078 36.4287C150.044 34.6449 150.119 32.8608 150.303 31.0862C150.444 29.3738 150.592 27.7512 150.605 26.2184C150.631 24.7937 150.504 23.3703 150.226 21.9727C149.884 19.9207 148.997 17.998 147.656 16.4058C147.172 15.8224 146.589 15.3276 145.935 14.9435V14.9435Z" fill="#681D82"/>
<path d="M94.6128 29.797C94.6502 29.8411 94.6934 29.88 94.7413 29.9125L95.146 30.2203C95.3643 30.3928 95.5964 30.5472 95.8398 30.6821C96.1553 30.8904 96.486 31.0748 96.8291 31.2337C99.0137 32.2864 101.428 32.7759 103.851 32.6575C107.454 32.5001 110.935 31.3039 113.872 29.2134C117.219 26.9302 120.187 23.5118 122.634 19.5932C123.881 17.6307 124.902 15.6104 126.02 13.7505C127.04 11.9341 128.319 10.275 129.816 8.82495C131.162 7.51349 132.817 6.56076 134.628 6.05433C135.448 5.84574 136.296 5.76782 137.14 5.82344C137.918 5.88575 138.685 6.04962 139.42 6.31087C141.666 7.13776 143.519 8.7767 144.611 10.9029C144.967 11.7006 145.235 12.5351 145.408 13.3914C145.415 13.3339 145.415 13.2757 145.408 13.2182C145.408 13.0771 145.369 12.9103 145.343 12.7115C145.225 12.066 145.028 11.4372 144.759 10.8388C144.308 9.89187 143.705 9.02522 142.973 8.27339C141.996 7.28977 140.82 6.52653 139.523 6.03509C138.768 5.75073 137.976 5.57161 137.172 5.50277C136.297 5.43349 135.416 5.50714 134.564 5.72082C132.693 6.22528 130.98 7.19381 129.585 8.53634C128.068 10.0067 126.77 11.6871 125.731 13.526C124.6 15.4052 123.572 17.419 122.345 19.3623C119.879 23.2809 116.956 26.6544 113.705 28.9248C110.825 30.9934 107.412 32.1952 103.87 32.3881C101.485 32.5247 99.1031 32.0847 96.9254 31.1054C96.1292 30.7155 95.357 30.2786 94.6128 29.797Z" fill="#681D82"/>
<path d="M93.2769 22.5369C93.4495 22.7063 93.6465 22.849 93.8614 22.9602C94.4123 23.3146 94.9901 23.6256 95.5895 23.8902C96.4782 24.2867 97.3978 24.6106 98.339 24.8586C99.4972 25.1495 100.68 25.332 101.872 25.4038C103.065 25.4601 104.261 25.4064 105.444 25.2434C106.405 25.1126 107.353 24.898 108.277 24.6021C108.904 24.4086 109.514 24.1641 110.101 23.8709C110.333 23.7851 110.55 23.6639 110.744 23.5118C110.712 23.4477 109.793 23.8966 108.219 24.3455C107.299 24.6066 106.361 24.7974 105.412 24.9163C104.251 25.0576 103.08 25.1027 101.911 25.051C100.742 24.9759 99.5819 24.8043 98.4418 24.5379C97.5122 24.3087 96.6016 24.0085 95.718 23.6401C94.1826 23.018 93.3154 22.4472 93.2769 22.5369Z" fill="#681D82"/>
<path d="M106.189 47.6201C106.51 47.96 108.444 46.4785 111.206 46.4657C113.968 46.4529 115.998 47.851 116.294 47.5047C116.442 47.3443 116.114 46.7286 115.228 46.0809C114.039 45.2356 112.614 44.7867 111.155 44.7982C109.708 44.8134 108.306 45.2973 107.159 46.1771C106.317 46.8505 106.028 47.4598 106.189 47.6201Z" fill="#263238"/>
<path d="M110.088 52.7188C110.113 53.2984 110.363 53.8455 110.786 54.2441C111.208 54.6428 111.769 54.8617 112.35 54.8545C112.635 54.864 112.919 54.816 113.185 54.7136C113.451 54.6112 113.694 54.4563 113.899 54.2582C114.104 54.0601 114.267 53.8229 114.378 53.5607C114.49 53.2984 114.547 53.0164 114.547 52.7316C114.525 52.1504 114.276 51.6007 113.853 51.2004C113.431 50.8 112.868 50.5807 112.285 50.5895C112 50.5818 111.716 50.6312 111.45 50.7346C111.185 50.8381 110.942 50.9936 110.738 51.192C110.533 51.3904 110.37 51.6277 110.258 51.8899C110.147 52.1521 110.089 52.434 110.088 52.7188V52.7188Z" fill="#263238"/>
<path d="M122.172 71.5873C124.359 71.0136 126.586 70.602 128.834 70.356L130.478 69.9519C131.223 70.9716 131.211 73.6974 130.53 74.762C130.151 75.2972 129.662 75.7456 129.096 76.0773C128.53 76.4091 127.9 76.6166 127.247 76.6861C126.788 76.7752 126.315 76.7671 125.859 76.6621C125.403 76.5571 124.974 76.3577 124.6 76.0768C124.6 76.0768 122.564 75.1148 122.172 71.5873Z" fill="#DAA188"/>
<path d="M126.277 76.5834C127.145 76.5212 127.984 76.2506 128.725 75.7945C129.491 75.268 130.074 74.5174 130.395 73.646C130.798 72.5825 130.869 71.4223 130.601 70.3174L130.556 70.1379L130.845 70.3238C128.397 70.6958 126.187 71.0101 124.581 71.2089C123.724 71.3712 122.852 71.4443 121.979 71.427C122.815 71.1496 123.675 70.9563 124.549 70.8498C126.136 70.5547 128.339 70.2084 130.787 69.8043L131.018 69.7659L131.076 69.9903L131.127 70.1892C131.424 71.3988 131.332 72.6712 130.864 73.8256C130.489 74.7751 129.812 75.5752 128.937 76.1024C128.356 76.4602 127.692 76.6612 127.01 76.686C126.553 76.6924 126.271 76.6155 126.277 76.5834Z" fill="#263238"/>
<path d="M126.945 76.7694C126.696 76.7945 126.445 76.7501 126.219 76.6412V76.5899V76.5514C126.251 76.5001 126.315 76.5001 126.482 76.4873C127.269 76.4466 128.028 76.1915 128.679 75.7497C129.432 75.2348 130.006 74.4999 130.324 73.6461C130.715 72.6229 130.793 71.5069 130.549 70.4393C128.294 70.7857 126.193 71.0807 124.594 71.2859C121.928 71.6194 121.915 71.536 121.896 71.4334C121.876 71.3308 121.896 71.2538 124.51 70.7921C126.168 70.4906 128.365 70.1507 130.754 69.7531L131.056 69.7018L131.185 70.1956C131.491 71.4216 131.399 72.7132 130.921 73.8834C130.538 74.8472 129.85 75.66 128.962 76.1986C128.373 76.5657 127.697 76.7714 127.003 76.7951L126.945 76.7694ZM126.727 76.6027H127.003C127.669 76.5764 128.317 76.3799 128.885 76.0319C129.738 75.5041 130.4 74.7175 130.774 73.7872C131.236 72.6492 131.326 71.3942 131.031 70.202L130.941 69.8493H130.78C128.41 70.2213 126.193 70.5868 124.542 70.8947C123.367 71.1127 122.737 71.2474 122.41 71.3308C122.75 71.3308 123.386 71.2474 124.574 71.0999C126.168 70.9011 128.262 70.6061 130.51 70.2598L130.427 69.9263L131.069 70.3367H130.857H130.709C130.946 71.4229 130.864 72.5543 130.472 73.5948C130.143 74.4794 129.548 75.241 128.769 75.7754C128.168 76.2161 127.466 76.5004 126.727 76.6027V76.6027Z" fill="#263238"/>
<path d="M56.3499 76.9296C52.9995 78.0001 54.6031 83.1705 56.4995 88.5C58.9572 88.3761 67.036 102.788 67 101C66.955 98.7644 59.7391 75.8466 56.3499 76.9296Z" fill="#F1C9BA"/>
<path d="M69.8292 115.263L72.6365 175.55L77.5701 180.854L83.8592 188.467C83.8592 188.467 77.5701 213.787 68.3709 216.045C59.1717 218.302 49.208 214.852 46.2851 206.803C43.3622 198.754 44.859 184.625 45.7583 175.582C46.6577 166.539 50.8975 117.136 50.8975 117.136L61.6706 112.736L69.8292 115.263Z" fill="#F1C9BA"/>
<path d="M69.752 115.93C69.752 115.93 70.4779 110.652 69.752 107.195C69.0261 103.738 64.2851 96.4589 64.2851 96.4589C64.2851 96.4589 65.011 89.5451 64.2851 88.4548C63.5592 87.3645 61.9147 83.3561 58.8183 87.3581C58.8183 87.3581 56.6277 82.6314 55.1694 82.2658C54.4616 82.0235 53.6931 82.0235 52.9852 82.2658L56.8397 77.1735C56.9641 76.4843 56.9641 75.7784 56.8397 75.0891C56.7402 74.598 56.4733 74.1564 56.0845 73.8395C55.6956 73.5226 55.2088 73.35 54.7069 73.3511C54.3933 73.3507 54.0833 73.4182 53.7983 73.5488C53.5133 73.6794 53.26 73.8702 53.0559 74.1079L43.6832 84.998C43.6832 84.998 37.8567 95.561 38.0429 96.8437C38.2292 98.1264 41.5055 102.302 41.5055 102.302C41.5055 102.302 49.8567 113.762 50.6148 115.949C51.055 117.484 51.1795 119.092 50.9809 120.676L69.752 115.93Z" fill="#F1C9BA"/>
<path d="M46.3813 94.4449C46.426 93.7441 46.5335 93.0487 46.7025 92.367C47.0088 90.6979 47.5045 89.069 48.1801 87.512C48.8799 85.9445 49.9356 84.5611 51.2636 83.4715C51.659 83.146 52.09 82.8664 52.5484 82.6377C52.7138 82.5409 52.8939 82.4716 53.0816 82.4325C53.0816 82.4902 52.3621 82.8109 51.3921 83.6511C50.1467 84.7665 49.1489 86.1297 48.4627 87.6531C47.7885 89.1889 47.2595 90.7842 46.8824 92.4183C46.7594 93.1039 46.592 93.7809 46.3813 94.4449V94.4449Z" fill="#DAA188"/>
<path d="M54.604 94.7978C54.6056 94.3847 54.6772 93.9748 54.816 93.5856C55.3572 91.674 56.3061 89.9019 57.5976 88.3907C57.8464 88.0594 58.1481 87.7713 58.4905 87.5377C58.5676 87.6083 57.2892 88.9808 56.2229 90.9946C55.1565 93.0084 54.7325 94.8234 54.604 94.7978Z" fill="#DAA188"/>
<path d="M56.306 77.7654C56.7808 77.069 56.8495 76.077 56.8495 75.1122C56.9286 75.6127 57.1659 76.9039 56.4537 77.9237C55.6418 79.0862 53.7166 81.3108 53.04 82.1103C53.5244 81.3184 55.7069 78.6441 56.306 77.7654Z" fill="#DAA188"/>
<path d="M64.0089 96.1509C63.991 96.1622 63.9709 96.1697 63.95 96.173C63.929 96.1762 63.9076 96.175 63.8871 96.1696C63.8666 96.1642 63.8474 96.1546 63.8308 96.1415C63.8142 96.1283 63.8005 96.1119 63.7905 96.0932C63.7729 96.0549 63.7711 96.0112 63.7855 95.9716C63.8 95.932 63.8294 95.8997 63.8676 95.8816C63.8855 95.8683 63.906 95.8591 63.9278 95.8545C63.9496 95.8499 63.9722 95.8501 63.9939 95.8551C64.0156 95.86 64.036 95.8696 64.0536 95.8832C64.0713 95.8968 64.0858 95.914 64.0961 95.9337C64.1065 95.9534 64.1124 95.9751 64.1135 95.9973C64.1146 96.0195 64.1109 96.0417 64.1027 96.0624C64.0944 96.083 64.0817 96.1016 64.0655 96.1169C64.0493 96.1322 64.03 96.1438 64.0089 96.1509V96.1509Z" fill="#DAA188"/>
<path d="M63.9062 99.0883C63.8405 98.2696 63.8837 97.4458 64.0347 96.6384C64.1118 95.997 64.1953 95.4647 64.2724 95.0478L64.4972 95.1376C64.1632 95.5352 63.9383 95.779 63.8998 95.7341C63.8612 95.6892 64.0154 95.4198 64.2981 94.9901L64.5486 94.5989V95.0799C64.5486 95.5032 64.4715 96.0676 64.3944 96.6833C64.3427 97.5035 64.1784 98.3127 63.9062 99.0883Z" fill="#DAA188"/>
<path d="M70.6643 135.068C70.6692 135.117 70.6692 135.166 70.6643 135.216L70.7093 135.664C70.7543 136.088 70.8057 136.665 70.8763 137.396C70.992 138.897 71.1333 141.071 71.2811 143.765C71.583 149.146 71.9235 156.592 72.2125 164.801C72.5016 173.01 72.7522 180.456 72.9063 185.844C72.9706 188.518 73.022 190.686 73.0605 192.257C73.0605 192.988 73.0605 193.54 73.0605 193.989C73.0605 194.168 73.0605 194.322 73.0605 194.444C73.0605 194.566 73.0605 194.598 73.0605 194.598C73.0508 194.547 73.0508 194.495 73.0605 194.444C73.0605 194.322 73.0605 194.175 73.0605 193.989C73.0605 193.565 73.0091 192.988 72.977 192.257C72.9128 190.724 72.8228 188.55 72.7136 185.882C72.508 180.475 72.2318 173.055 71.9235 164.846C71.6151 156.637 71.2811 149.216 71.0948 143.81C70.9663 141.142 70.8635 138.967 70.7928 137.435L70.69 135.703C70.69 135.523 70.69 135.376 70.69 135.254C70.671 135.194 70.6623 135.131 70.6643 135.068V135.068Z" fill="#DAA188"/>
<path d="M248.077 131.881C248.077 131.881 233.687 187.036 231.278 193.45C226.518 206.078 223.267 212.081 217.884 215.256C211.993 218.7 201.457 216.737 198.971 211.119C196.697 205.988 190.659 184.542 190.659 184.542L209.141 177.891L231.175 131.784L248.077 131.881Z" fill="#F1C9BA"/>
<path d="M280.968 105.964C281.874 106.605 262.46 123.581 262.46 123.581L248.077 131.881L243.336 149.498L228.304 140.237C228.304 140.237 233.745 122.664 236.276 121.452C240.683 119.342 241.531 112.262 243.111 112.525C244.691 112.788 245.379 112.762 244.852 115.385C244.325 118.008 244.113 119.169 244.113 119.169L260.726 114.365C260.726 114.365 269.931 105.438 272.822 105.964C274.493 106.265 274.685 106.49 274.685 106.49C274.685 106.49 277.48 103.443 280.968 105.964Z" fill="#F1C9BA"/>
<path d="M260.726 114.365C260.475 114.492 260.213 114.593 259.942 114.667L257.777 115.372L250.601 117.61L243.426 119.83L241.248 120.509C240.986 120.609 240.715 120.682 240.438 120.727C240.684 120.59 240.942 120.476 241.209 120.387C241.71 120.189 242.436 119.919 243.349 119.605C245.167 118.964 247.698 118.156 250.505 117.29C253.312 116.424 255.856 115.674 257.713 115.148L259.91 114.538C260.174 114.449 260.448 114.391 260.726 114.365V114.365Z" fill="#DAA188"/>
<path d="M263.552 119.015C263.671 118.82 263.813 118.642 263.976 118.483C264.265 118.156 264.689 117.687 265.216 117.117C266.276 115.975 267.754 114.41 269.398 112.698L273.632 108.343C274.055 107.917 274.345 107.378 274.467 106.791C274.475 106.577 274.465 106.362 274.435 106.15C274.435 106.15 274.473 106.201 274.518 106.31C274.578 106.472 274.604 106.644 274.595 106.817C274.523 107.452 274.248 108.048 273.811 108.516C272.771 109.696 271.287 111.229 269.642 112.948C267.998 114.667 266.488 116.199 265.39 117.296C264.837 117.848 264.387 118.29 264.073 118.579C263.918 118.745 263.743 118.892 263.552 119.015V119.015Z" fill="#DAA188"/>
<path d="M212.828 170.137C212.912 170.169 210.496 175.845 207.439 182.804C204.381 189.762 201.824 195.374 201.74 195.342C201.657 195.31 204.066 189.634 207.13 182.669C210.194 175.704 212.745 170.098 212.828 170.137Z" fill="#DAA188"/>
<path d="M55.3073 82.3225C56.6948 83.0672 57.856 85.3445 58.8362 87.3486C58.2925 86.9797 56.9936 83.4463 55.1535 82.4489C54.2739 81.9721 53.0025 82.3225 51.541 83.2606C52.6213 82.2457 54.1888 81.7222 55.3073 82.3225Z" fill="#DAA188"/>
<path d="M58.9219 87.2248C60.0368 85.8954 61.6323 84.2897 63.4219 87.0509C61.6935 85.067 60.4707 85.7949 58.9219 87.2248Z" fill="#DAA188"/>
</g>
<defs>
<clipPath id="clip0_1614_10266">
<rect width="281" height="242" fill="white"/>
</clipPath>
</defs>
</svg>
