<svg width="213" height="419" viewBox="0 0 213 419" fill="none" xmlns="http://www.w3.org/2000/svg">
<g clip-path="url(#clip0_1597_8595)">
<g filter="url(#filter0_d_1597_8595)">
<path fill-rule="evenodd" clip-rule="evenodd" d="M144.585 91.1497C145.045 87.0047 145.095 82.8245 144.735 78.6697C144.362 74.4896 142.761 70.513 140.135 67.2397C137.405 64.0797 133.205 62.0497 129.075 62.5797C128.014 62.7165 126.973 63.0132 125.936 63.3087C124.473 63.7259 123.018 64.1407 121.525 64.0997C119.296 64.0328 117.305 63 115.317 61.969C114.629 61.6123 113.942 61.2559 113.245 60.9397C108.973 59.0003 104.187 58.4985 99.605 59.5097C97.1901 59.9649 94.9537 61.0952 93.155 62.7697C92.2688 63.6146 91.612 64.671 91.2464 65.8395C90.8808 67.0081 90.8184 68.2504 91.065 69.4497C88.06 69.32 85.0509 69.5857 82.115 70.2397C79.1547 70.9035 76.571 72.6977 74.915 75.2397C73.425 77.8497 73.535 81.4797 75.665 83.5897C74.2466 83.4037 72.8096 83.7522 71.634 84.5674C70.4584 85.3826 69.6282 86.6061 69.305 87.9997C69.0394 89.3969 69.181 90.841 69.7129 92.1601C70.2448 93.4791 71.1445 94.6175 72.305 95.4397C75.0809 97.1393 78.3653 97.8081 81.5834 97.3305C84.4073 108.219 90.9713 133.041 95.2151 145.22C100.745 161.09 117.455 158.22 117.455 158.22C117.455 158.22 118.368 161.773 119.618 166.549L119.585 166.56C111.075 170.56 79.705 186.01 71.115 212.75L71.155 212.74L71.1656 212.75L50.685 276.48C49.2791 280.777 48.7447 285.313 49.1129 289.819C49.4812 294.326 50.7448 298.715 52.8298 302.727C54.9148 306.74 57.7793 310.296 61.2555 313.188C64.7318 316.08 68.75 318.25 73.075 319.57L156.733 344.993L170.145 370.73L212.765 350.73L258.815 327.18L229.355 270.9L211.045 207.9C223.985 216.48 247.995 228.17 276.745 222.07C307.885 215.45 292.935 98.0001 292.935 98.0001L258.715 97.1201L255.305 179.93L216.625 162.85L216.525 163C214.195 162 212.155 161 211.075 160.45C192.262 150.186 179.135 147.859 160.632 153.019L150.034 114.306C152.733 113.985 160.406 111.753 157.655 102.6C154.972 93.6738 148.126 96.4191 145.535 97.8712L143.709 91.2005L144.585 91.1497ZM131.141 295.929L91.765 282.83L106.117 248.178L131.141 295.929Z" fill="#681D82"/>
</g>
</g>
<g clip-path="url(#clip1_1597_8595)">
<path d="M71.155 212.74L104.625 245.33L135.465 304.18L170.145 370.73L212.765 350.73L258.815 327.18L229.355 270.9L211.045 207.9C223.985 216.48 247.995 228.17 276.745 222.07C307.885 215.45 292.935 98.0001 292.935 98.0001L258.715 97.1201L255.305 179.93L216.625 162.85L216.525 163C214.195 162 212.155 161 211.075 160.45C189.685 148.78 175.645 147.37 152.695 155.56L119.585 166.56C111.075 170.56 79.705 186.01 71.115 212.75" fill="#681D82"/>
<g opacity="0.3">
<path opacity="0.3" d="M170.295 151.24C166.235 216.16 162.179 281.08 158.125 346L170.125 370.74L170.295 151.24Z" fill="black"/>
</g>
<path d="M132.595 218.59C132.735 218.65 133.965 215.59 135.665 211.9C137.365 208.21 138.905 205.28 138.765 205.21C138.278 205.752 137.861 206.353 137.525 207C136.865 208.16 135.995 209.8 135.145 211.66C134.295 213.52 133.605 215.23 133.145 216.49C132.87 217.163 132.685 217.869 132.595 218.59V218.59Z" fill="#FAFAFA"/>
<path d="M105.355 204.9C107.417 206.504 109.589 207.961 111.855 209.26C114.025 210.717 116.29 212.026 118.635 213.18C116.563 211.591 114.392 210.134 112.135 208.82C109.965 207.364 107.7 206.055 105.355 204.9V204.9Z" fill="#FAFAFA"/>
<path d="M117.175 195C117.528 193.252 117.708 191.473 117.715 189.69C117.883 187.91 117.883 186.119 117.715 184.34C117.356 186.09 117.175 187.873 117.175 189.66C117.007 191.436 117.007 193.224 117.175 195V195Z" fill="#FAFAFA"/>
<path d="M89.9852 193.14C91.6967 192.382 93.3366 191.472 94.8851 190.42C96.5244 189.506 98.0774 188.445 99.5251 187.25C97.8097 188.007 96.1663 188.917 94.6151 189.97C92.978 190.883 91.4282 191.944 89.9852 193.14V193.14Z" fill="#FAFAFA"/>
<path d="M131.525 247.08C130.786 244.714 129.884 242.402 128.825 240.16C127.919 237.854 126.857 235.612 125.645 233.45C126.386 235.816 127.288 238.128 128.345 240.37C129.249 242.678 130.311 244.92 131.525 247.08V247.08Z" fill="#FAFAFA"/>
<path d="M143.665 259.34C144.626 257.995 145.444 256.554 146.105 255.04C146.928 253.6 147.598 252.079 148.105 250.5C147.145 251.845 146.327 253.286 145.665 254.8C144.842 256.24 144.172 257.761 143.665 259.34V259.34Z" fill="#FAFAFA"/>
<path d="M133.525 275.84C135.158 276.547 136.893 276.989 138.665 277.15C140.415 277.487 142.208 277.541 143.975 277.31C143.975 277.16 141.615 277.05 138.745 276.64C135.875 276.23 133.525 275.69 133.525 275.84Z" fill="#FAFAFA"/>
<path d="M120.525 257.79C120.097 256.119 119.504 254.494 118.755 252.94C118.163 251.317 117.406 249.758 116.495 248.29C116.924 249.962 117.52 251.587 118.275 253.14C118.861 254.764 119.615 256.323 120.525 257.79Z" fill="#FAFAFA"/>
<path d="M152.135 295.93C152.265 296.01 153.735 293.93 155.755 291.65C157.775 289.37 159.575 287.57 159.465 287.46C156.462 289.746 153.967 292.63 152.135 295.93V295.93Z" fill="#FAFAFA"/>
<path d="M157.865 254.92C158.583 256.662 159.457 258.335 160.475 259.92C161.353 261.596 162.381 263.189 163.545 264.68C162.824 262.94 161.951 261.267 160.935 259.68C160.058 258.004 159.03 256.41 157.865 254.92V254.92Z" fill="#FAFAFA"/>
<path d="M153.785 240.8C155.68 240.572 157.55 240.177 159.375 239.62C161.242 239.227 163.07 238.665 164.835 237.94C162.94 238.163 161.069 238.558 159.245 239.12C157.377 239.51 155.549 240.073 153.785 240.8V240.8Z" fill="#FAFAFA"/>
<path d="M154.025 211.82C152.926 213.104 151.923 214.468 151.025 215.9C149.995 217.229 149.066 218.633 148.245 220.1C150.601 217.675 152.541 214.878 153.985 211.82H154.025Z" fill="#FAFAFA"/>
<path d="M163.235 210.4C164.268 211.638 165.428 212.764 166.695 213.76C167.853 214.891 169.126 215.897 170.495 216.76C169.47 215.519 168.309 214.395 167.035 213.41C165.88 212.273 164.606 211.264 163.235 210.4V210.4Z" fill="#FAFAFA"/>
<path d="M155.965 195.23C157.703 193.967 159.258 192.47 160.585 190.78C162.044 189.198 163.276 187.421 164.245 185.5C164.115 185.42 162.475 187.76 160.185 190.44C157.895 193.12 155.855 195.12 155.965 195.23Z" fill="#FAFAFA"/>
<path d="M130.395 190.56C132.198 191.393 134.072 192.062 135.995 192.56C137.867 193.224 139.795 193.719 141.755 194.04C139.944 193.217 138.068 192.548 136.145 192.04C134.276 191.378 132.352 190.883 130.395 190.56V190.56Z" fill="#FAFAFA"/>
<path d="M166.395 166.2C166.555 166.2 166.485 163.91 166.835 161.13C167.185 158.35 167.835 156.13 167.655 156.13C166.898 157.697 166.443 159.394 166.315 161.13C166.027 162.81 166.054 164.53 166.395 166.2V166.2Z" fill="#FAFAFA"/>
<path d="M169.235 289.14C171.439 290.571 173.734 291.858 176.105 292.99C178.396 294.276 180.771 295.406 183.215 296.37C181.01 294.944 178.715 293.661 176.345 292.53C174.053 291.242 171.678 290.11 169.235 289.14V289.14Z" fill="#FAFAFA"/>
<path d="M144.585 91.1497C145.045 87.0047 145.095 82.8245 144.735 78.6697C144.362 74.4896 142.761 70.513 140.135 67.2397C137.405 64.0797 133.205 62.0497 129.075 62.5797C126.515 62.9097 124.075 64.1697 121.525 64.0997C118.525 64.0097 115.955 62.1697 113.245 60.9397C108.973 59.0003 104.187 58.4985 99.605 59.5097C97.1901 59.9649 94.9537 61.0952 93.155 62.7697C92.2688 63.6146 91.612 64.671 91.2464 65.8395C90.8808 67.0081 90.8184 68.2504 91.065 69.4497C88.06 69.32 85.0509 69.5857 82.115 70.2397C79.1547 70.9035 76.571 72.6977 74.915 75.2397C73.425 77.8497 73.535 81.4797 75.665 83.5897C74.2466 83.4037 72.8096 83.7522 71.634 84.5674C70.4584 85.3826 69.6282 86.6061 69.305 87.9997C69.0395 89.3969 69.181 90.841 69.7129 92.1601C70.2448 93.4791 71.1445 94.6175 72.305 95.4397C75.1015 97.1519 78.4141 97.8179 81.655 97.3197C84.435 96.7897 87.655 96.0097 89.885 94.3197" fill="#263238"/>
<path d="M146.755 185.35C141.242 186.768 135.393 185.951 130.48 183.076C125.567 180.201 121.989 175.501 120.525 170C118.835 163.59 117.455 158.22 117.455 158.22C117.455 158.22 100.745 161.09 95.2151 145.22C89.6851 129.35 80.2151 92.0102 80.2151 92.0102C87.9406 85.0997 97.3707 80.3766 107.532 78.3286C117.692 76.2806 128.216 76.9819 138.015 80.3602L141.015 81.3602L162.195 158.73C162.954 161.492 163.156 164.378 162.788 167.218C162.42 170.059 161.491 172.798 160.054 175.276C158.617 177.754 156.701 179.921 154.417 181.65C152.134 183.38 149.529 184.638 146.755 185.35V185.35Z" fill="#F1C9BA"/>
<path d="M117.355 158C124.733 155.675 131.252 151.209 136.085 145.17C136.085 145.17 135.025 158.24 118.705 162.17L117.355 158Z" fill="#DAA188"/>
<path d="M144.525 98.5101C144.755 98.3001 154.355 91.6201 157.655 102.6C160.955 113.58 149.255 114.6 149.135 114.31C149.015 114.02 144.525 98.5101 144.525 98.5101Z" fill="#F1C9BA"/>
<path d="M151.245 109.14C151.245 109.14 151.485 109.22 151.845 109.27C152.359 109.328 152.875 109.184 153.285 108.87C154.285 108.1 154.745 105.96 154.195 103.97C153.945 103.02 153.483 102.138 152.845 101.39C152.635 101.085 152.354 100.836 152.027 100.662C151.7 100.488 151.336 100.394 150.965 100.39C150.723 100.388 150.487 100.474 150.303 100.632C150.119 100.79 149.999 101.01 149.965 101.25C149.905 101.6 150.045 101.8 149.965 101.84C149.885 101.88 149.665 101.72 149.625 101.24C149.604 100.953 149.682 100.667 149.845 100.43C149.964 100.269 150.113 100.133 150.285 100.03C150.457 99.9266 150.647 99.8587 150.845 99.83C151.321 99.7827 151.802 99.8591 152.24 100.052C152.678 100.245 153.058 100.547 153.345 100.93C154.1 101.74 154.645 102.722 154.935 103.79C155.525 106.02 155.015 108.43 153.565 109.37C153.297 109.543 152.993 109.654 152.676 109.693C152.36 109.733 152.038 109.701 151.735 109.6C151.345 109.4 151.215 109.18 151.245 109.14Z" fill="#DAA188"/>
<path d="M93.6752 114.9C93.8684 115.491 94.2846 115.984 94.8355 116.274C95.3864 116.563 96.0285 116.626 96.6252 116.45C96.9212 116.376 97.1994 116.243 97.4434 116.059C97.6874 115.876 97.8923 115.646 98.046 115.382C98.1997 115.119 98.2992 114.827 98.3385 114.524C98.3779 114.222 98.3564 113.914 98.2752 113.62C98.0819 113.028 97.6662 112.534 97.1157 112.243C96.5653 111.952 95.9233 111.886 95.3252 112.06C95.0288 112.135 94.7505 112.269 94.5064 112.453C94.2623 112.638 94.0575 112.869 93.9038 113.133C93.7502 113.398 93.6508 113.69 93.6116 113.994C93.5723 114.297 93.594 114.605 93.6752 114.9V114.9Z" fill="#263238"/>
<path d="M90.7051 113.36C91.0851 113.56 92.3751 111.72 94.8251 110.9C97.2751 110.08 99.4651 110.71 99.6251 110.32C99.7151 110.15 99.2451 109.71 98.2751 109.4C96.9642 109.014 95.565 109.049 94.2751 109.5C93.0035 109.921 91.8998 110.738 91.1251 111.83C90.5951 112.66 90.5251 113.28 90.7051 113.36Z" fill="#263238"/>
<path d="M117.665 106.84C117.858 107.443 118.282 107.945 118.844 108.238C119.406 108.53 120.061 108.588 120.665 108.4C120.961 108.325 121.239 108.193 121.483 108.009C121.727 107.826 121.932 107.596 122.086 107.332C122.24 107.068 122.339 106.777 122.379 106.474C122.418 106.171 122.396 105.864 122.315 105.57C122.221 105.27 122.068 104.992 121.866 104.752C121.664 104.511 121.417 104.313 121.139 104.168C120.86 104.023 120.556 103.935 120.243 103.907C119.93 103.88 119.615 103.915 119.315 104.01C119.019 104.084 118.741 104.217 118.497 104.4C118.253 104.583 118.048 104.814 117.895 105.077C117.741 105.341 117.641 105.633 117.602 105.935C117.563 106.238 117.584 106.545 117.665 106.84V106.84Z" fill="#263238"/>
<path d="M114.855 105.76C115.235 105.97 116.525 104.12 118.965 103.3C121.405 102.48 123.605 103.11 123.775 102.72C123.855 102.55 123.395 102.11 122.425 101.81C121.115 101.424 119.717 101.456 118.425 101.9C117.152 102.324 116.046 103.139 115.265 104.23C114.745 105.06 114.665 105.68 114.855 105.76Z" fill="#263238"/>
<path d="M112.065 126.84C112.065 126.7 110.425 126.94 107.865 127.45C107.215 127.6 106.585 127.67 106.345 127.28C106.069 126.652 105.995 125.953 106.135 125.28C106.215 123.57 106.295 121.78 106.385 119.91C106.675 112.3 106.665 106.12 106.385 106.11C106.105 106.1 105.595 112.27 105.305 119.88C105.245 121.75 105.195 123.54 105.145 125.25C105.001 126.133 105.178 127.038 105.645 127.8C105.808 127.991 106.013 128.142 106.243 128.241C106.474 128.34 106.725 128.384 106.975 128.37C107.35 128.352 107.72 128.281 108.075 128.16C110.525 127.48 112.105 127 112.065 126.84Z" fill="#263238"/>
<path d="M119.815 126.12C119.415 126.23 120.295 128.88 118.665 131.52C117.035 134.16 114.105 134.82 114.215 135.19C114.215 135.37 115.015 135.5 116.215 135.13C117.775 134.627 119.109 133.594 119.985 132.21C120.817 130.878 121.104 129.277 120.785 127.74C120.525 126.6 119.995 126 119.815 126.12Z" fill="#263238"/>
<path d="M90.1651 108.77C90.7751 109.18 92.2651 108.04 94.2751 107.33C96.2851 106.62 98.1351 106.45 98.3351 105.74C98.4151 105.4 97.9551 104.93 97.0351 104.66C95.822 104.35 94.5422 104.426 93.3751 104.88C92.1927 105.3 91.1693 106.075 90.4451 107.1C89.9251 107.91 89.8851 108.56 90.1651 108.77Z" fill="#263238"/>
<path d="M115.065 95.8805C115.435 96.0805 116.065 95.7505 116.785 95.3205C117.701 94.7716 118.661 94.2999 119.655 93.9105C120.666 93.5466 121.706 93.2722 122.765 93.0905C123.615 92.9205 124.275 92.7905 124.425 92.3905C124.575 91.9905 124.095 91.3905 123.015 90.9905C121.581 90.5084 120.023 90.5474 118.615 91.1005C117.192 91.6064 115.989 92.5931 115.215 93.8905C114.665 94.9105 114.715 95.6905 115.065 95.8805Z" fill="#263238"/>
<path d="M81.0452 97.1696C89.403 96.6708 97.3834 93.5178 103.825 88.1696C111.005 82.2896 119.995 78.1696 122.445 79.3296C124.895 80.4896 127.225 88.7296 135.805 89.3296C135.805 89.3296 138.865 105.33 145.085 103.33C151.305 101.33 141.745 77.5596 141.745 77.5596L124.525 73.5996L106.845 74.2496L90.9752 77.8496L77.2452 85.7396L81.0452 97.1696Z" fill="#263238"/>
</g>
<path d="M167.975 341.71L156.335 336.11L162.735 317.19L176.795 313.94C178.105 313.64 179.565 313.29 181.195 312.84C183.097 312.309 184.896 311.46 186.515 310.33C188.585 309.019 190.463 307.427 192.095 305.6C193.425 303.79 196.245 304.47 196.245 306.48C196.245 308.49 192.695 313.56 186.395 317.15C180.095 320.74 191.235 322.47 195.285 323.15C199.335 323.83 211.735 326.62 212.475 328.03C213.555 330.09 211.475 331.67 207.475 330.88C203.475 330.09 191.195 328.53 190.865 330.67V330.73C191.852 332.273 192.331 334.086 192.236 335.915C192.141 337.744 191.476 339.497 190.335 340.93C188.085 343.76 184.685 347.31 182.195 346.77C177.525 345.78 167.975 341.71 167.975 341.71Z" fill="#F1C9BA"/>
<path d="M168.685 308.42L157.775 345.31L73.0751 319.57C68.7501 318.25 64.7318 316.08 61.2556 313.188C57.7793 310.296 54.9148 306.74 52.8298 302.727C50.7449 298.715 49.4812 294.326 49.113 289.819C48.7447 285.313 49.2792 280.777 50.6851 276.48L71.455 211.85L116.525 223.05L91.7651 282.83L168.685 308.42Z" fill="#681D82"/>
<path d="M71.1551 318.92L71.5651 319.07L72.7851 319.46L77.5251 320.93L95.3051 326.37L156.965 345.08L157.195 345.14L157.275 344.92C161.045 333.64 164.705 321.24 168.935 308.5L169.015 308.26L168.775 308.17L166.645 307.47L91.8751 282.64L92.0051 282.91C98.0051 268.41 102.855 256.53 106.255 248.25L110.155 238.7C110.585 237.61 110.925 236.77 111.155 236.19C111.385 235.61 111.485 235.33 111.485 235.33C111.485 235.33 111.345 235.61 111.095 236.17L110.035 238.65L106.035 248.16C102.585 256.42 97.6451 268.28 91.6051 282.76L91.5251 282.96L91.7351 283.03L166.475 308L168.605 308.71L168.445 308.38C164.205 321.13 160.565 333.53 156.805 344.8L157.115 344.64L95.3951 326.12L77.5251 320.77L72.7651 319.38L71.5351 319.03L71.1551 318.92Z" fill="#263238"/>
<path d="M96.6752 226.19C96.938 224.379 97.0251 222.547 96.9352 220.72C97.0251 218.893 96.938 217.061 96.6752 215.25C96.4184 217.061 96.3314 218.893 96.4152 220.72C96.3314 222.547 96.4184 224.379 96.6752 226.19V226.19Z" fill="#FAFAFA"/>
<path d="M79.6652 227.06C80.4436 225.375 81.0597 223.621 81.5052 221.82C82.1206 220.069 82.5693 218.265 82.8452 216.43C82.0689 218.115 81.4528 219.869 81.0052 221.67C80.3898 223.42 79.9411 225.225 79.6652 227.06V227.06Z" fill="#FAFAFA"/>
<path d="M90.2152 242.41C91.9642 242.479 93.7106 242.221 95.3652 241.65C97.066 241.233 98.676 240.508 100.115 239.51C100.045 239.37 97.9452 240.36 95.2152 241.15C92.4852 241.94 90.2052 242.26 90.2152 242.41Z" fill="#FAFAFA"/>
<path d="M70.9751 250.86C70.9415 249.103 70.7271 247.353 70.3351 245.64C70.1213 243.893 69.7361 242.171 69.1851 240.5C69.2299 242.26 69.4442 244.011 69.8251 245.73C70.0423 247.473 70.4274 249.191 70.9751 250.86V250.86Z" fill="#FAFAFA"/>
<path d="M77.8652 264.63C78.8426 263.113 79.6731 261.505 80.3452 259.83C81.1675 258.23 81.8371 256.556 82.3452 254.83C81.3623 256.346 80.5284 257.953 79.8552 259.63C79.0315 261.228 78.365 262.903 77.8652 264.63V264.63Z" fill="#FAFAFA"/>
<path d="M80.6851 276.69C82.3279 276.183 83.9158 275.513 85.4251 274.69C87.0073 274.013 88.5209 273.186 89.9451 272.22C88.2979 272.723 86.7064 273.394 85.1951 274.22C83.6108 274.886 82.0995 275.714 80.6851 276.69V276.69Z" fill="#FAFAFA"/>
<path d="M59.0451 273.48C59.5783 275.05 60.213 276.583 60.9451 278.07C61.5165 279.624 62.1844 281.14 62.9451 282.61C62.6713 280.965 62.1593 279.368 61.4251 277.87C60.8448 276.301 60.0434 274.823 59.0451 273.48V273.48Z" fill="#FAFAFA"/>
<path d="M65.065 302.53C65.5 300.694 65.771 298.823 65.8751 296.94C66.1525 295.073 66.2496 293.185 66.1651 291.3C65.7301 293.135 65.4591 295.006 65.3551 296.89C65.0776 298.756 64.9804 300.645 65.065 302.53V302.53Z" fill="#FAFAFA"/>
<path d="M80.3351 311.7C81.7781 310.74 83.1185 309.634 84.3351 308.4C85.6613 307.297 86.874 306.064 87.9551 304.72C86.5142 305.682 85.1741 306.788 83.9551 308.02C82.6319 309.126 81.4195 310.359 80.3351 311.7V311.7Z" fill="#FAFAFA"/>
<path d="M106.735 314.33C107.614 315.959 108.638 317.506 109.795 318.95C110.821 320.49 111.99 321.929 113.285 323.25C112.406 321.622 111.378 320.079 110.215 318.64C109.193 317.098 108.028 315.655 106.735 314.33V314.33Z" fill="#FAFAFA"/>
<path d="M98.3652 302C99.8655 301.015 101.213 299.816 102.365 298.44C103.661 297.183 104.754 295.732 105.605 294.14C105.485 294.05 103.995 295.93 101.985 298.14C99.9752 300.35 98.2652 301.84 98.3652 302Z" fill="#FAFAFA"/>
<path d="M118.285 304.77C119.553 305.279 120.932 305.448 122.285 305.26C123.648 305.243 124.983 304.878 126.165 304.2C126.115 304.05 124.415 304.59 122.255 304.74C120.095 304.89 118.315 304.62 118.285 304.77Z" fill="#FAFAFA"/>
<path d="M130.885 326.65C131.387 325.261 131.723 323.818 131.885 322.35C132.223 320.912 132.384 319.437 132.365 317.96C131.53 320.788 131.03 323.705 130.875 326.65H130.885Z" fill="#FAFAFA"/>
<path d="M145.765 334.19C147.514 333.384 149.187 332.424 150.765 331.32C152.448 330.358 154.041 329.247 155.525 328C153.776 328.809 152.103 329.773 150.525 330.88C148.844 331.841 147.251 332.949 145.765 334.19V334.19Z" fill="#FAFAFA"/>
<path d="M140.455 307.57C140.345 307.67 141.795 309.39 143.455 311.63C145.115 313.87 146.255 315.78 146.385 315.71C145.781 314.126 144.935 312.645 143.875 311.32C142.942 309.896 141.788 308.63 140.455 307.57V307.57Z" fill="#FAFAFA"/>
<path d="M151.955 312.62C153.973 312.004 155.872 311.054 157.575 309.81C155.558 310.425 153.658 311.375 151.955 312.62V312.62Z" fill="#FAFAFA"/>
<g opacity="0.2">
<path opacity="0.2" d="M92.5251 281.32C88.0051 281.78 83.4751 282.25 78.9651 282.82C77.3923 282.934 75.8436 283.271 74.3651 283.82C73.6303 284.106 72.9609 284.538 72.3972 285.09C71.8336 285.641 71.3873 286.301 71.0851 287.03C70.803 287.768 70.7727 288.579 70.9987 289.337C71.2247 290.094 71.6945 290.756 72.3351 291.22C72.9755 291.548 73.6902 291.703 74.409 291.672C75.1277 291.64 75.826 291.422 76.4352 291.04C77.6477 290.272 78.7801 289.384 79.8151 288.39C81.849 286.707 84.2133 285.471 86.7551 284.76C87.9136 284.541 89.0327 284.15 90.0751 283.6C90.5961 283.31 91.0144 282.866 91.2723 282.329C91.5302 281.791 91.6151 281.187 91.5152 280.6" fill="black"/>
</g>
<path d="M76.1451 293.6C76.2251 293.6 76.7851 292.67 77.9251 291.26C80.8933 287.581 84.9228 284.907 89.4651 283.6C91.2051 283.1 92.3251 282.96 92.3151 282.87C92.0506 282.822 91.7797 282.822 91.5151 282.87C90.794 282.938 90.0788 283.058 89.3751 283.23C87.0392 283.795 84.8195 284.763 82.8151 286.09C80.8111 287.41 79.0544 289.072 77.6251 291C77.1962 291.585 76.8086 292.2 76.4651 292.84C76.3121 293.071 76.2036 293.329 76.1451 293.6Z" fill="#263238"/>
<defs>
<filter id="filter0_d_1597_8595" x="9" y="23" width="327.522" height="391.73" filterUnits="userSpaceOnUse" color-interpolation-filters="sRGB">
<feFlood flood-opacity="0" result="BackgroundImageFix"/>
<feColorMatrix in="SourceAlpha" type="matrix" values="0 0 0 0 0 0 0 0 0 0 0 0 0 0 0 0 0 0 127 0" result="hardAlpha"/>
<feOffset dy="4"/>
<feGaussianBlur stdDeviation="20"/>
<feComposite in2="hardAlpha" operator="out"/>
<feColorMatrix type="matrix" values="0 0 0 0 1 0 0 0 0 1 0 0 0 0 1 0 0 0 0.75 0"/>
<feBlend mode="normal" in2="BackgroundImageFix" result="effect1_dropShadow_1597_8595"/>
<feBlend mode="normal" in="SourceGraphic" in2="effect1_dropShadow_1597_8595" result="shape"/>
</filter>
<clipPath id="clip0_1597_8595">
<rect width="170" height="419" fill="white" transform="matrix(-1 0 0 1 170 0)"/>
</clipPath>
<clipPath id="clip1_1597_8595">
<rect width="100" height="312" fill="white" transform="matrix(-1 0 0 1 169.525 59)"/>
</clipPath>
</defs>
</svg>
