<svg width="24" height="24" viewBox="0 0 24 24" fill="none" xmlns="http://www.w3.org/2000/svg">
<path d="M20.9561 10.2386L18.8116 5.31669C18.7278 5.12435 18.5379 5 18.3281 5H5.67186C5.46205 5 5.27221 5.12435 5.18843 5.31669L3.0439 10.2386C2.96304 10.4242 2.99556 10.6398 3.12767 10.7932L11.6003 20.637C11.7005 20.7534 11.8464 20.8203 12 20.8203C12.1536 20.8203 12.2995 20.7534 12.3997 20.637L20.8724 10.7932C21.0044 10.6398 21.037 10.4242 20.9561 10.2386ZM14.4406 10.9766L12 18.5697L9.55933 10.9766H14.4406ZM9.80184 9.92188L12 6.50254L14.1981 9.92188H9.80184ZM12.9659 6.05469H17.3622L15.164 9.47402L12.9659 6.05469ZM8.83592 9.47402L6.63778 6.05469H11.0341L8.83592 9.47402ZM10.7012 17.9756L4.67701 10.9766H8.45153L10.7012 17.9756ZM15.5484 10.9766H19.323L13.2988 17.9756L15.5484 10.9766ZM16.13 9.92188L18.2385 6.6419L19.6676 9.92188H16.13ZM5.76147 6.6419L7.87001 9.92188H4.33234L5.76147 6.6419Z" fill="black"/>
</svg>
