<svg width="24" height="24" viewBox="0 0 24 24" fill="none" xmlns="http://www.w3.org/2000/svg">
<g clip-path="url(#clip0)">
<path d="M11.8174 8.74784L15.253 12.1834L15.2693 12.0035C15.2693 10.1984 13.8024 8.73148 11.9973 8.73148L11.8174 8.74784Z" fill="black"/>
<path d="M11.9973 6.55018C15.0075 6.55018 17.4506 8.99328 17.4506 12.0035C17.4506 12.707 17.3088 13.3777 17.0634 13.9939L20.2536 17.1841C21.9005 15.8099 23.1984 14.0321 24 12.0035C22.1077 7.21552 17.4561 3.82355 11.9973 3.82355C10.4704 3.82355 9.00893 4.0962 7.65106 4.58699L10.0069 6.93735C10.623 6.69742 11.2938 6.55018 11.9973 6.55018Z" fill="black"/>
<path d="M1.09064 3.57809L3.57735 6.0648L4.07362 6.56107C2.27403 7.96802 0.850716 9.83852 0 12.0035C1.88686 16.7914 6.54397 20.1834 11.9973 20.1834C13.6878 20.1834 15.302 19.8562 16.7799 19.2618L17.2434 19.7253L20.4227 22.91L21.8133 21.5249L2.48124 2.1875L1.09064 3.57809ZM7.12204 9.60401L8.80711 11.2891C8.75803 11.5236 8.72531 11.7581 8.72531 12.0035C8.72531 13.8085 10.1922 15.2754 11.9973 15.2754C12.2427 15.2754 12.4772 15.2427 12.7062 15.1936L14.3913 16.8787C13.666 17.2386 12.8589 17.4568 11.9973 17.4568C8.98707 17.4568 6.54397 15.0137 6.54397 12.0035C6.54397 11.1418 6.76212 10.3347 7.12204 9.60401Z" fill="black"/>
</g>
<defs>
<clipPath id="clip0">
<rect width="24" height="24" fill="white"/>
</clipPath>
</defs>
</svg>
